<svg width="667" height="983" viewBox="0 0 667 983" fill="none" xmlns="http://www.w3.org/2000/svg">
<path fill-rule="evenodd" clip-rule="evenodd" d="M451.889 823.796C451.889 824.234 450.496 824.592 448.793 824.592C447.091 824.592 445.698 824.95 445.698 825.388C445.698 825.826 444.654 826.184 443.377 826.184C442.1 826.184 441.056 826.542 441.056 826.98C441.056 827.418 440.011 827.776 438.734 827.776C437.458 827.776 436.413 828.134 436.413 828.572C436.413 829.01 435.368 829.368 434.092 829.368C432.815 829.368 431.77 829.726 431.77 830.164C431.77 830.602 431.011 830.96 430.084 830.96C425.541 830.96 417.842 836.2 417.842 839.292C417.842 839.981 417.169 840.512 416.295 840.512C415.005 840.512 414.747 839.981 414.747 837.328C414.747 835.577 414.399 834.144 413.973 834.144C413.548 834.144 413.2 833.607 413.2 832.95C413.2 832.294 412.851 831.756 412.426 831.756C412 831.756 411.652 831.373 411.652 830.904C411.652 829.635 409.615 827.776 408.225 827.776C407.556 827.776 407.009 827.418 407.009 826.98C407.009 826.542 406.313 826.184 405.462 826.184C404.611 826.184 403.914 825.826 403.914 825.388C403.914 824.88 397.466 824.592 386.117 824.592C374.768 824.592 368.32 824.88 368.32 825.388C368.32 825.826 366.927 826.184 365.225 826.184C363.523 826.184 362.13 826.542 362.13 826.98C362.13 827.418 361.592 827.776 360.934 827.776C359.588 827.776 355.94 831.238 355.94 832.516C355.94 832.974 355.591 833.348 355.166 833.348C354.74 833.348 354.392 833.732 354.392 834.201C354.392 835.096 352.499 837.328 351.739 837.328C351.496 837.328 351.297 836.783 351.297 836.117C351.297 835.451 349.39 832.943 347.058 830.545C343.527 826.912 342.364 826.184 340.094 826.184C338.595 826.184 337.369 825.826 337.369 825.388C337.369 824.879 330.663 824.592 318.798 824.592C306.934 824.592 300.227 824.879 300.227 825.388C300.227 825.826 299.001 826.184 297.502 826.184C295.233 826.184 294.07 826.912 290.538 830.545C288.207 832.943 286.299 835.451 286.299 836.117C286.299 836.783 285.951 837.328 285.526 837.328C285.1 837.328 284.752 838.045 284.752 838.92C284.752 839.796 284.404 840.512 283.978 840.512C283.552 840.512 283.204 841.229 283.204 842.104C283.204 842.98 282.856 843.697 282.43 843.697C282.005 843.697 281.657 844.413 281.657 845.289C281.657 846.164 281.308 846.881 280.883 846.881C280.457 846.881 280.109 847.597 280.109 848.473C280.109 849.348 279.761 850.065 279.335 850.065C278.91 850.065 278.561 850.602 278.561 851.259C278.561 851.915 278.213 852.453 277.788 852.453C277.362 852.453 277.014 852.99 277.014 853.647C277.014 854.303 276.666 854.841 276.24 854.841C275.815 854.841 275.466 855.557 275.466 856.433C275.466 857.308 275.118 858.025 274.693 858.025C274.267 858.025 273.919 858.741 273.919 859.617C273.919 860.493 273.571 861.209 273.145 861.209C272.719 861.209 272.371 861.925 272.371 862.801C272.371 863.677 272.023 864.393 271.597 864.393C271.172 864.393 270.824 865.109 270.824 865.985C270.824 866.861 270.475 867.577 270.05 867.577C269.624 867.577 269.276 868.114 269.276 868.771C269.276 869.428 268.928 869.965 268.502 869.965C268.077 869.965 267.729 870.682 267.729 871.557C267.729 872.433 267.38 873.149 266.955 873.149C266.529 873.149 266.181 873.687 266.181 874.343C266.181 875 265.833 875.537 265.407 875.537C264.982 875.537 264.633 876.254 264.633 877.129C264.633 878.005 264.285 878.721 263.86 878.721C263.434 878.721 263.086 879.438 263.086 880.313C263.086 881.189 262.738 881.905 262.312 881.905C261.886 881.905 261.538 882.622 261.538 883.498C261.538 884.373 261.19 885.09 260.765 885.09C260.339 885.09 259.991 885.473 259.991 885.942C259.991 886.838 258.097 889.07 257.337 889.07C257.094 889.07 256.896 887.458 256.896 885.488C256.896 883.517 256.547 881.905 256.122 881.905C255.696 881.905 255.348 881.189 255.348 880.313C255.348 879.438 255 878.721 254.574 878.721C254.149 878.721 253.8 878.263 253.8 877.703C253.8 877.143 253.104 876.169 252.253 875.537C251.402 874.906 250.705 874.011 250.705 873.547C250.705 873.084 250.009 872.188 249.158 871.557C248.307 870.926 247.61 870.03 247.61 869.567C247.61 869.104 246.914 868.208 246.063 867.577C245.211 866.946 244.515 866.115 244.515 865.73C244.515 865.347 243.47 864.028 242.194 862.801C240.917 861.574 239.872 860.177 239.872 859.696C239.872 859.214 239.524 858.821 239.099 858.821C238.673 858.821 238.325 858.428 238.325 857.946C238.325 857.465 237.28 856.067 236.003 854.841C234.727 853.614 233.682 852.216 233.682 851.736C233.682 851.254 233.334 850.861 232.908 850.861C232.483 850.861 232.135 850.467 232.135 849.986C232.135 849.505 231.09 848.107 229.813 846.881C228.536 845.654 227.492 844.256 227.492 843.775C227.492 843.294 227.144 842.9 226.718 842.9C226.293 842.9 225.944 842.514 225.944 842.042C225.944 841.57 224.552 839.807 222.849 838.124C221.147 836.442 219.754 834.662 219.754 834.171C219.754 832.844 216.14 829.368 214.759 829.368C214.102 829.368 213.564 829.01 213.564 828.572C213.564 828.134 212.867 827.776 212.016 827.776C211.165 827.776 210.469 827.418 210.469 826.98C210.469 826.494 206.857 826.184 201.183 826.184C195.509 826.184 191.898 825.874 191.898 825.388C191.898 824.88 185.45 824.592 174.101 824.592C162.752 824.592 156.304 824.88 156.304 825.388C156.304 825.826 155.336 826.184 154.154 826.184C152.891 826.184 151.543 826.842 150.887 827.776C150.274 828.652 149.229 829.368 148.566 829.368C147.903 829.368 146.858 830.085 146.245 830.96C145.631 831.836 144.51 832.552 143.752 832.552C142.996 832.552 142.376 832.867 142.376 833.252C142.376 833.636 141.331 834.397 140.055 834.94C138.778 835.484 137.733 836.244 137.733 836.629C137.733 837.014 137.113 837.328 136.357 837.328C135.599 837.328 134.478 838.045 133.864 838.92C133.251 839.796 132.129 840.512 131.372 840.512C130.615 840.512 129.995 840.871 129.995 841.308C129.995 841.746 129.647 842.104 129.222 842.104C128.796 842.104 128.448 840.75 128.448 839.096C128.448 837.001 127.978 835.74 126.9 834.94C126.049 834.309 125.353 833.359 125.353 832.828C125.353 832.298 124.656 831.636 123.805 831.358C122.954 831.08 122.258 830.519 122.258 830.111C122.258 829.702 121.561 829.368 120.71 829.368C119.859 829.368 119.162 829.01 119.162 828.572C119.162 828.134 117.77 827.776 116.067 827.776C114.365 827.776 112.972 827.418 112.972 826.98C112.972 826.483 108.329 826.184 100.592 826.184C92.8538 826.184 88.2111 825.886 88.2111 825.388C88.2111 824.891 83.5684 824.592 75.8306 824.592C68.0928 824.592 63.4501 824.891 63.4501 825.388C63.4501 825.826 62.4055 826.184 61.1288 826.184C59.852 826.184 58.8074 826.542 58.8074 826.98C58.8074 827.418 58.111 827.776 57.2599 827.776C56.4087 827.776 55.7123 828.134 55.7123 828.572C55.7123 829.01 55.0159 829.368 54.1647 829.368C53.3136 829.368 52.6172 829.683 52.6172 830.068C52.6172 830.452 51.5726 831.213 50.2958 831.756C49.0191 832.3 47.9745 833.06 47.9745 833.445C47.9745 833.83 47.2781 834.144 46.4269 834.144C45.5758 834.144 44.8794 834.502 44.8794 834.94C44.8794 835.378 44.1829 835.736 43.3318 835.736C42.4806 835.736 41.7842 836.095 41.7842 836.532C41.7842 836.97 41.0878 837.328 40.2367 837.328C39.3855 837.328 38.6891 837.687 38.6891 838.124C38.6891 838.562 37.9927 838.92 37.1415 838.92C36.2904 838.92 35.594 839.235 35.594 839.62C35.594 840.005 34.5494 840.765 33.2726 841.308C31.9959 841.852 30.9513 842.612 30.9513 842.997C30.9513 843.382 30.2549 843.697 29.4037 843.697C28.5526 843.697 27.8561 844.055 27.8561 844.493C27.8561 844.93 27.1597 845.289 26.3086 845.289C25.4574 845.289 24.761 845.647 24.761 846.085C24.761 846.522 24.2294 846.881 23.5802 846.881C22.0443 846.881 15.4756 853.638 15.4756 855.218C15.4756 855.886 15.1274 856.433 14.7019 856.433C14.2763 856.433 13.9281 857.507 13.9281 858.821C13.9281 860.134 13.5799 861.209 13.1543 861.209C12.7287 861.209 12.3805 862.104 12.3805 863.199C12.3805 864.294 12.0323 865.189 11.6067 865.189C11.1811 865.189 10.8329 866.085 10.8329 867.179C10.8329 868.274 10.4847 869.169 10.0592 869.169C9.63359 869.169 9.28538 870.065 9.28538 871.159C9.28538 872.254 8.93718 873.149 8.5116 873.149C8.08602 873.149 7.73782 874.045 7.73782 875.139C7.73782 876.234 7.38962 877.129 6.96404 877.129C6.53846 877.129 6.19026 878.025 6.19026 879.119C6.19026 880.214 5.84205 881.109 5.41647 881.109C4.99089 881.109 4.64269 882.005 4.64269 883.1C4.64269 884.194 4.29449 885.09 3.86891 885.09C3.44333 885.09 3.09513 886.164 3.09513 887.478C3.09513 888.791 2.74693 889.866 2.32135 889.866C1.89577 889.866 1.54756 890.761 1.54756 891.856C1.54756 892.95 1.19936 893.846 0.773782 893.846C0.314929 893.846 0 896.765 0 901.01C0 905.255 0.314929 908.174 0.773782 908.174C1.19936 908.174 1.54756 909.428 1.54756 910.96C1.54756 912.493 1.89577 913.746 2.32135 913.746C2.74693 913.746 3.09513 915 3.09513 916.532C3.09513 918.065 3.44333 919.318 3.86891 919.318C4.29449 919.318 4.64269 920.751 4.64269 922.502C4.64269 924.254 4.99089 925.687 5.41647 925.687C5.84205 925.687 6.19026 926.94 6.19026 928.473C6.19026 930.005 6.53846 931.259 6.96404 931.259C7.38962 931.259 7.73782 932.512 7.73782 934.045C7.73782 935.577 8.08602 936.831 8.5116 936.831C8.93718 936.831 9.28538 938.264 9.28538 940.015C9.28538 941.766 9.63359 943.199 10.0592 943.199C10.4847 943.199 10.8329 943.743 10.8329 944.408C10.8329 945.768 20.4085 955.935 21.6891 955.935C22.1425 955.935 24.9181 958.443 27.8561 961.507C30.7942 964.572 33.5798 967.08 34.0464 967.08C34.513 967.08 37.2986 969.587 40.2367 972.652C43.1747 975.716 46.1174 978.224 46.7767 978.224C47.4352 978.224 47.9745 978.582 47.9745 979.02C47.9745 979.458 48.6709 979.816 49.522 979.816C50.3732 979.816 51.0696 980.174 51.0696 980.612C51.0696 981.05 52.1142 981.408 53.391 981.408C54.6677 981.408 55.7123 981.766 55.7123 982.204C55.7123 982.642 57.1051 983 58.8074 983C60.5097 983 61.9026 982.642 61.9026 982.204C61.9026 981.74 64.4816 981.408 68.0928 981.408C71.704 981.408 74.2831 981.076 74.2831 980.612C74.2831 980.126 77.8943 979.816 83.5684 979.816C89.2426 979.816 92.8538 979.506 92.8538 979.02C92.8538 978.538 96.2066 978.224 101.365 978.224C106.524 978.224 109.877 977.91 109.877 977.428C109.877 976.956 112.714 976.632 116.841 976.632C120.968 976.632 123.805 976.308 123.805 975.836C123.805 975.398 125.121 975.04 126.729 975.04C128.766 975.04 129.992 974.557 130.769 973.448C131.383 972.572 132.504 971.856 133.261 971.856C134.122 971.856 134.638 971.26 134.638 970.264C134.638 969.388 134.986 968.672 135.412 968.672C135.837 968.672 136.186 967.955 136.186 967.08C136.186 966.204 136.534 965.488 136.959 965.488C137.385 965.488 137.733 964.771 137.733 963.896C137.733 961.866 138.632 961.866 140.055 963.896C140.668 964.771 141.632 965.488 142.197 965.488C142.762 965.488 145.628 967.995 148.566 971.06C151.504 974.124 154.37 976.632 154.935 976.632C155.5 976.632 156.464 977.348 157.078 978.224C157.733 979.158 159.081 979.816 160.344 979.816C161.526 979.816 162.494 980.174 162.494 980.612C162.494 981.055 164.558 981.408 167.137 981.408C169.716 981.408 171.78 981.055 171.78 980.612C171.78 980.174 173.172 979.816 174.875 979.816C176.577 979.816 177.97 979.458 177.97 979.02C177.97 978.582 179.363 978.224 181.065 978.224C182.767 978.224 184.16 977.866 184.16 977.428C184.16 976.99 185.205 976.632 186.481 976.632C187.758 976.632 188.803 976.274 188.803 975.836C188.803 975.398 190.196 975.04 191.898 975.04C193.6 975.04 194.993 974.682 194.993 974.244C194.993 973.806 196.386 973.448 198.088 973.448C199.79 973.448 201.183 973.09 201.183 972.652C201.183 972.214 202.576 971.856 204.278 971.856C205.981 971.856 207.374 971.498 207.374 971.06C207.374 970.622 208.766 970.264 210.469 970.264C212.171 970.264 213.564 969.905 213.564 969.468C213.564 969.03 214.957 968.672 216.659 968.672C218.361 968.672 219.754 968.352 219.754 967.962C219.754 967.198 223.159 966.44 229.62 965.765C232.293 965.485 233.682 965.637 233.682 966.21C233.682 966.688 234.379 967.08 235.23 967.08C236.081 967.08 236.777 967.438 236.777 967.876C236.777 968.313 238.17 968.672 239.872 968.672C241.575 968.672 242.968 968.996 242.968 969.394C242.968 969.792 244.796 970.303 247.03 970.531C249.264 970.759 253.007 971.355 255.348 971.856C257.689 972.356 261.432 972.953 263.666 973.18C265.9 973.409 267.729 973.92 267.729 974.318C267.729 974.715 269.47 975.04 271.597 975.04C273.725 975.04 275.466 975.398 275.466 975.836C275.466 976.278 277.53 976.632 280.109 976.632C282.688 976.632 284.752 976.985 284.752 977.428C284.752 977.866 286.493 978.224 288.621 978.224C290.749 978.224 292.49 977.866 292.49 977.428C292.49 976.99 293.369 976.632 294.444 976.632C296.844 976.632 303.323 970.258 303.323 967.896C303.323 967.01 303.671 966.284 304.096 966.284C304.522 966.284 304.87 965.388 304.87 964.294C304.87 963.199 305.218 962.303 305.644 962.303C306.069 962.303 306.418 961.587 306.418 960.711C306.418 959.836 306.766 959.119 307.191 959.119C307.617 959.119 307.965 958.403 307.965 957.527C307.965 956.652 308.313 955.935 308.739 955.935C309.165 955.935 309.513 955.219 309.513 954.343C309.513 953.468 309.861 952.751 310.287 952.751C310.712 952.751 311.06 952.035 311.06 951.159C311.06 950.284 311.409 949.567 311.834 949.567C312.26 949.567 312.608 948.851 312.608 947.975C312.608 947.1 312.956 946.383 313.382 946.383C313.807 946.383 314.155 945.667 314.155 944.791C314.155 943.915 314.504 943.199 314.929 943.199C315.355 943.199 315.703 942.303 315.703 941.209C315.703 940.114 316.051 939.219 316.477 939.219C316.902 939.219 317.251 938.502 317.251 937.627C317.251 936.751 317.599 936.035 318.024 936.035C318.45 936.035 318.798 935.318 318.798 934.443C318.798 933.567 319.093 932.851 319.454 932.851C320.483 932.851 323.441 935.725 323.441 936.725C323.441 937.221 323.789 937.627 324.215 937.627C324.64 937.627 324.988 937.995 324.988 938.444C324.988 939.529 331.264 945.948 333.56 947.212C335.871 948.485 346.081 948.551 346.487 947.296C346.65 946.794 347.288 946.383 347.906 946.383C348.522 946.383 350.184 945.219 351.597 943.796C353.011 942.374 354.965 940.672 355.94 940.015C356.915 939.358 358.864 937.662 360.271 936.244C363.129 933.369 365.225 933.484 365.225 936.518C365.225 937.566 365.573 938.423 365.999 938.423C366.424 938.423 366.773 939.677 366.773 941.209C366.773 942.741 367.121 943.995 367.546 943.995C367.972 943.995 368.32 945.249 368.32 946.781C368.32 948.313 368.668 949.567 369.094 949.567C369.52 949.567 369.868 950.821 369.868 952.353C369.868 953.886 370.216 955.139 370.642 955.139C371.067 955.139 371.415 956.393 371.415 957.925C371.415 959.458 371.764 960.711 372.189 960.711C372.615 960.711 372.963 962.144 372.963 963.896C372.963 965.647 373.311 967.08 373.737 967.08C374.162 967.08 374.51 968.154 374.51 969.468C374.51 970.781 374.859 971.856 375.284 971.856C375.71 971.856 376.058 972.405 376.058 973.076C376.058 974.661 381.069 979.816 382.61 979.816C383.262 979.816 383.796 980.174 383.796 980.612C383.796 981.05 384.84 981.408 386.117 981.408C387.394 981.408 388.439 981.766 388.439 982.204C388.439 982.642 389.135 983 389.986 983C390.837 983 391.534 982.642 391.534 982.204C391.534 981.726 394.629 981.408 399.271 981.408C403.914 981.408 407.009 981.09 407.009 980.612C407.009 980.119 411.136 979.816 417.842 979.816C424.549 979.816 428.675 980.119 428.675 980.612C428.675 981.05 429.72 981.408 430.997 981.408C432.273 981.408 433.318 981.766 433.318 982.204C433.318 982.71 439.508 983 450.341 983C461.174 983 467.364 982.71 467.364 982.204C467.364 981.692 475.102 981.408 489.03 981.408C502.958 981.408 510.696 981.124 510.696 980.612C510.696 980.174 511.741 979.816 513.017 979.816C514.294 979.816 515.339 979.458 515.339 979.02C515.339 978.582 516.383 978.224 517.66 978.224C518.937 978.224 519.981 977.866 519.981 977.428C519.981 976.99 521.026 976.632 522.303 976.632C523.58 976.632 524.624 976.274 524.624 975.836C524.624 975.398 525.669 975.04 526.945 975.04C528.222 975.04 529.267 974.726 529.267 974.343C529.267 973.96 530.253 973.444 531.457 973.196C533.766 972.721 538.552 968.648 538.552 967.158C538.552 966.677 538.9 966.284 539.326 966.284C539.752 966.284 540.1 965.746 540.1 965.09C540.1 964.433 540.448 963.896 540.874 963.896C541.299 963.896 541.647 962.821 541.647 961.507C541.647 958.278 543.33 958.41 546.729 961.905C548.218 963.438 549.767 964.692 550.171 964.692C550.574 964.692 553.167 967.02 555.934 969.866C558.7 972.711 561.352 975.04 561.828 975.04C562.303 975.04 563.668 976.114 564.861 977.428C566.194 978.897 567.803 979.816 569.04 979.816C570.146 979.816 571.051 980.174 571.051 980.612C571.051 981.055 573.115 981.408 575.694 981.408C578.273 981.408 580.336 981.055 580.336 980.612C580.336 980.174 581.729 979.816 583.432 979.816C585.134 979.816 586.527 979.458 586.527 979.02C586.527 978.582 587.919 978.224 589.622 978.224C591.324 978.224 592.717 977.866 592.717 977.428C592.717 976.99 594.11 976.632 595.812 976.632C597.514 976.632 598.907 976.274 598.907 975.836C598.907 975.398 599.952 975.04 601.229 975.04C602.505 975.04 603.55 974.682 603.55 974.244C603.55 973.806 604.943 973.448 606.645 973.448C608.347 973.448 609.74 973.09 609.74 972.652C609.74 972.214 611.133 971.856 612.835 971.856C614.538 971.856 615.93 971.498 615.93 971.06C615.93 970.622 617.323 970.264 619.026 970.264C620.728 970.264 622.121 969.905 622.121 969.468C622.121 969.03 623.513 968.672 625.216 968.672C626.918 968.672 628.311 968.313 628.311 967.876C628.311 967.438 629.704 967.08 631.406 967.08C633.108 967.08 634.501 966.76 634.501 966.37C634.501 965.981 635.72 965.444 637.209 965.176C638.699 964.91 641.136 964.473 642.626 964.207C644.115 963.939 645.334 963.402 645.334 963.013C645.334 962.623 646.031 962.303 646.882 962.303C647.733 962.303 648.429 961.945 648.429 961.507C648.429 961.07 649.126 960.711 649.977 960.711C650.836 960.711 651.524 960.18 651.524 959.517C651.524 958.861 651.873 958.323 652.298 958.323C652.724 958.323 653.072 957.786 653.072 957.129C653.072 956.473 653.42 955.935 653.846 955.935C654.271 955.935 654.619 954.861 654.619 953.547C654.619 952.234 654.968 951.159 655.393 951.159C655.819 951.159 656.167 949.547 656.167 947.577C656.167 945.607 656.515 943.995 656.941 943.995C657.371 943.995 657.715 941.872 657.715 939.219C657.715 936.566 658.058 934.443 658.488 934.443C658.914 934.443 659.262 932.473 659.262 930.065C659.262 927.657 659.61 925.687 660.036 925.687C660.466 925.687 660.81 923.564 660.81 920.91C660.81 918.257 661.153 916.134 661.584 916.134C662.009 916.134 662.357 914.164 662.357 911.756C662.357 909.348 662.706 907.378 663.131 907.378C663.561 907.378 663.905 905.255 663.905 902.602C663.905 899.949 664.248 897.826 664.679 897.826C665.104 897.826 665.452 895.886 665.452 893.514C665.452 890.843 665.821 889.026 666.42 888.738C667.193 888.367 667.193 888.18 666.42 887.81C665.887 887.554 665.452 885.943 665.452 884.227C665.452 882.513 665.104 881.109 664.679 881.109C664.253 881.109 663.905 880.572 663.905 879.915C663.905 879.259 663.557 878.721 663.131 878.721C662.706 878.721 662.357 878.184 662.357 877.527C662.357 876.871 662.009 876.333 661.584 876.333C661.158 876.333 660.81 875.94 660.81 875.459C660.81 874.978 659.765 873.58 658.488 872.353C657.212 871.127 656.167 869.729 656.167 869.248C656.167 868.766 655.819 868.373 655.393 868.373C654.968 868.373 654.619 867.98 654.619 867.498C654.619 867.018 653.575 865.62 652.298 864.393C651.021 863.166 649.977 861.769 649.977 861.288C649.977 860.806 649.629 860.413 649.203 860.413C648.777 860.413 648.429 860.02 648.429 859.538C648.429 859.057 647.385 857.66 646.108 856.433C644.831 855.206 643.787 853.808 643.787 853.328C643.787 852.846 643.438 852.453 643.013 852.453C642.587 852.453 642.239 852.067 642.239 851.595C642.239 851.122 640.846 849.359 639.144 847.677C637.442 845.994 636.049 844.203 636.049 843.697C636.049 843.19 634.656 841.399 632.954 839.716C631.251 838.034 629.858 836.271 629.858 835.798C629.858 835.326 629.51 834.94 629.085 834.94C628.659 834.94 628.311 834.566 628.311 834.108C628.311 832.83 624.663 829.368 623.316 829.368C622.658 829.368 622.121 829.01 622.121 828.572C622.121 828.134 621.424 827.776 620.573 827.776C619.722 827.776 619.026 827.418 619.026 826.98C619.026 826.494 615.414 826.184 609.74 826.184C604.066 826.184 600.455 825.874 600.455 825.388C600.455 824.88 594.007 824.592 582.658 824.592C571.309 824.592 564.861 824.88 564.861 825.388C564.861 825.826 564.164 826.184 563.313 826.184C562.462 826.184 561.766 826.542 561.766 826.98C561.766 827.418 561.069 827.776 560.218 827.776C559.367 827.776 558.671 828.134 558.671 828.572C558.671 829.01 558.051 829.368 557.294 829.368C556.536 829.368 555.415 830.085 554.802 830.96C554.188 831.836 553.143 832.552 552.48 832.552C551.817 832.552 550.773 833.269 550.159 834.144C549.545 835.02 548.424 835.736 547.667 835.736C546.91 835.736 546.29 836.051 546.29 836.436C546.29 836.82 545.245 837.581 543.969 838.124C542.692 838.668 541.647 839.428 541.647 839.813C541.647 840.198 541.028 840.512 540.271 840.512C539.513 840.512 538.392 841.229 537.778 842.104C537.165 842.98 536.12 843.697 535.457 843.697C534.794 843.697 533.749 844.413 533.136 845.289C531.83 847.152 529.267 847.416 529.267 845.687C529.267 845.03 528.919 844.493 528.493 844.493C528.067 844.493 527.719 843.955 527.719 843.299C527.719 842.642 527.371 842.104 526.945 842.104C526.52 842.104 526.172 841.558 526.172 840.89C526.172 839.31 519.603 832.552 518.067 832.552C517.418 832.552 516.886 832.194 516.886 831.756C516.886 831.318 515.145 830.96 513.017 830.96C510.889 830.96 509.148 830.602 509.148 830.164C509.148 829.692 506.311 829.368 502.184 829.368C498.058 829.368 495.22 829.044 495.22 828.572C495.22 828.108 492.641 827.776 489.03 827.776C485.419 827.776 482.84 827.444 482.84 826.98C482.84 826.508 480.002 826.184 475.876 826.184C471.749 826.184 468.912 825.86 468.912 825.388C468.912 824.924 466.333 824.592 462.722 824.592C459.11 824.592 456.531 824.26 456.531 823.796C456.531 823.358 455.487 823 454.21 823C452.933 823 451.889 823.358 451.889 823.796ZM87.6161 893.766C90.2841 895.036 94.2946 896.888 96.5293 897.882C98.7632 898.877 100.592 899.833 100.592 900.009C100.592 901.021 97.4787 902.998 89.0043 907.369C82.1834 910.885 78.9745 912.14 77.6614 911.801C76.6547 911.54 75.8306 911.02 75.8306 910.643C75.8306 910.267 74.786 909.514 73.5093 908.97C71.2351 908.001 71.1879 907.864 71.1879 902.277V896.574L76.0241 894.064C78.6843 892.683 81.2889 891.532 81.8127 891.505C82.3366 891.479 84.9481 892.497 87.6161 893.766Z" fill="#6FDFF4"/>
<path fill-rule="evenodd" clip-rule="evenodd" d="M448.249 824.531C448.249 824.952 446.867 825.297 445.178 825.297C443.49 825.297 442.108 825.641 442.108 826.062C442.108 826.483 441.072 826.828 439.806 826.828C438.539 826.828 437.503 827.172 437.503 827.593C437.503 828.014 436.467 828.359 435.2 828.359C433.934 828.359 432.898 828.703 432.898 829.124C432.898 829.545 431.861 829.89 430.595 829.89C429.328 829.89 428.292 830.234 428.292 830.656C428.292 831.077 427.539 831.421 426.62 831.421C422.114 831.421 414.476 836.46 414.476 839.434C414.476 840.097 413.809 840.608 412.941 840.608C411.662 840.608 411.406 840.097 411.406 837.545C411.406 835.861 411.061 834.483 410.639 834.483C410.217 834.483 409.871 833.967 409.871 833.335C409.871 832.703 409.526 832.187 409.104 832.187C408.681 832.187 408.336 831.818 408.336 831.367C408.336 830.146 406.315 828.359 404.937 828.359C404.273 828.359 403.731 828.014 403.731 827.593C403.731 827.172 403.04 826.828 402.196 826.828C401.351 826.828 400.661 826.483 400.661 826.062C400.661 825.574 394.265 825.297 383.007 825.297C371.749 825.297 365.353 825.574 365.353 826.062C365.353 826.483 363.972 826.828 362.283 826.828C360.594 826.828 359.213 827.172 359.213 827.593C359.213 828.014 358.679 828.359 358.027 828.359C356.691 828.359 353.073 831.688 353.073 832.918C353.073 833.358 352.727 833.718 352.305 833.718C351.883 833.718 351.537 834.087 351.537 834.538C351.537 835.399 349.659 837.545 348.905 837.545C348.664 837.545 348.467 837.021 348.467 836.38C348.467 835.74 346.575 833.328 344.263 831.021C340.759 827.528 339.606 826.828 337.355 826.828C335.868 826.828 334.651 826.483 334.651 826.062C334.651 825.573 327.999 825.297 316.23 825.297C304.461 825.297 297.809 825.573 297.809 826.062C297.809 826.483 296.592 826.828 295.106 826.828C292.854 826.828 291.701 827.528 288.198 831.021C285.885 833.328 283.993 835.74 283.993 836.38C283.993 837.021 283.648 837.545 283.226 837.545C282.803 837.545 282.458 838.234 282.458 839.077C282.458 839.919 282.113 840.608 281.69 840.608C281.268 840.608 280.923 841.297 280.923 842.139C280.923 842.981 280.578 843.67 280.155 843.67C279.733 843.67 279.388 844.359 279.388 845.201C279.388 846.043 279.042 846.732 278.62 846.732C278.198 846.732 277.853 847.421 277.853 848.263C277.853 849.105 277.507 849.794 277.085 849.794C276.663 849.794 276.318 850.311 276.318 850.943C276.318 851.574 275.972 852.091 275.55 852.091C275.128 852.091 274.783 852.608 274.783 853.239C274.783 853.871 274.437 854.388 274.015 854.388C273.593 854.388 273.247 855.077 273.247 855.919C273.247 856.761 272.902 857.45 272.48 857.45C272.058 857.45 271.712 858.139 271.712 858.981C271.712 859.823 271.367 860.512 270.945 860.512C270.523 860.512 270.177 861.201 270.177 862.043C270.177 862.885 269.832 863.574 269.41 863.574C268.988 863.574 268.642 864.263 268.642 865.105C268.642 865.947 268.297 866.636 267.875 866.636C267.452 866.636 267.107 867.153 267.107 867.785C267.107 868.416 266.762 868.933 266.339 868.933C265.917 868.933 265.572 869.622 265.572 870.464C265.572 871.306 265.227 871.995 264.804 871.995C264.382 871.995 264.037 872.512 264.037 873.144C264.037 873.775 263.691 874.292 263.269 874.292C262.847 874.292 262.502 874.981 262.502 875.823C262.502 876.665 262.156 877.354 261.734 877.354C261.312 877.354 260.967 878.043 260.967 878.885C260.967 879.727 260.621 880.416 260.199 880.416C259.777 880.416 259.432 881.105 259.432 881.947C259.432 882.789 259.086 883.478 258.664 883.478C258.242 883.478 257.896 883.847 257.896 884.298C257.896 885.16 256.018 887.306 255.265 887.306C255.024 887.306 254.826 885.756 254.826 883.861C254.826 881.967 254.481 880.416 254.059 880.416C253.637 880.416 253.291 879.727 253.291 878.885C253.291 878.043 252.946 877.354 252.524 877.354C252.101 877.354 251.756 876.913 251.756 876.375C251.756 875.836 251.065 874.899 250.221 874.292C249.377 873.685 248.686 872.824 248.686 872.378C248.686 871.932 247.995 871.071 247.151 870.464C246.306 869.857 245.616 868.996 245.616 868.55C245.616 868.105 244.925 867.243 244.081 866.636C243.236 866.029 242.545 865.23 242.545 864.86C242.545 864.491 241.509 863.223 240.243 862.043C238.976 860.863 237.94 859.519 237.94 859.057C237.94 858.593 237.595 858.215 237.173 858.215C236.75 858.215 236.405 857.837 236.405 857.374C236.405 856.912 235.369 855.567 234.102 854.388C232.836 853.208 231.8 851.864 231.8 851.401C231.8 850.938 231.454 850.56 231.032 850.56C230.61 850.56 230.265 850.182 230.265 849.718C230.265 849.256 229.228 847.912 227.962 846.732C226.696 845.552 225.659 844.208 225.659 843.746C225.659 843.282 225.314 842.904 224.892 842.904C224.47 842.904 224.124 842.533 224.124 842.079C224.124 841.624 222.743 839.929 221.054 838.311C219.365 836.693 217.984 834.982 217.984 834.509C217.984 833.232 214.399 829.89 213.029 829.89C212.377 829.89 211.844 829.545 211.844 829.124C211.844 828.703 211.153 828.359 210.308 828.359C209.464 828.359 208.773 828.014 208.773 827.593C208.773 827.126 205.191 826.828 199.563 826.828C193.934 826.828 190.352 826.53 190.352 826.062C190.352 825.574 183.956 825.297 172.699 825.297C161.441 825.297 155.045 825.574 155.045 826.062C155.045 826.483 154.085 826.828 152.912 826.828C151.659 826.828 150.322 827.46 149.672 828.359C149.063 829.201 148.027 829.89 147.369 829.89C146.712 829.89 145.675 830.579 145.067 831.421C144.458 832.263 143.346 832.952 142.594 832.952C141.844 832.952 141.229 833.255 141.229 833.625C141.229 833.995 140.193 834.726 138.926 835.249C137.66 835.772 136.624 836.503 136.624 836.873C136.624 837.243 136.009 837.545 135.258 837.545C134.507 837.545 133.395 838.234 132.786 839.077C132.177 839.919 131.065 840.608 130.314 840.608C129.563 840.608 128.948 840.952 128.948 841.373C128.948 841.794 128.603 842.139 128.181 842.139C127.759 842.139 127.413 840.837 127.413 839.246C127.413 837.231 126.947 836.017 125.878 835.249C125.034 834.642 124.343 833.728 124.343 833.218C124.343 832.707 123.652 832.071 122.808 831.804C121.964 831.537 121.273 830.997 121.273 830.604C121.273 830.211 120.582 829.89 119.738 829.89C118.893 829.89 118.203 829.545 118.203 829.124C118.203 828.703 116.821 828.359 115.132 828.359C113.444 828.359 112.062 828.014 112.062 827.593C112.062 827.115 107.457 826.828 99.7814 826.828C92.1059 826.828 87.5006 826.541 87.5006 826.062C87.5006 825.584 82.8953 825.297 75.2198 825.297C67.5443 825.297 62.939 825.584 62.939 826.062C62.939 826.483 61.9028 826.828 60.6364 826.828C59.3699 826.828 58.3337 827.172 58.3337 827.593C58.3337 828.014 57.6429 828.359 56.7986 828.359C55.9543 828.359 55.2635 828.703 55.2635 829.124C55.2635 829.545 54.5727 829.89 53.7284 829.89C52.8841 829.89 52.1933 830.192 52.1933 830.563C52.1933 830.933 51.1571 831.664 49.8907 832.187C48.6242 832.709 47.588 833.441 47.588 833.81C47.588 834.181 46.8972 834.483 46.0529 834.483C45.2086 834.483 44.5178 834.828 44.5178 835.249C44.5178 835.67 43.827 836.014 42.9827 836.014C42.1384 836.014 41.4476 836.359 41.4476 836.78C41.4476 837.201 40.7568 837.545 39.9125 837.545C39.0682 837.545 38.3774 837.89 38.3774 838.311C38.3774 838.732 37.6867 839.077 36.8423 839.077C35.998 839.077 35.3073 839.379 35.3073 839.749C35.3073 840.119 34.2711 840.85 33.0046 841.373C31.7381 841.896 30.702 842.627 30.702 842.997C30.702 843.367 30.0112 843.67 29.1669 843.67C28.3226 843.67 27.6318 844.014 27.6318 844.435C27.6318 844.856 26.941 845.201 26.0967 845.201C25.2524 845.201 24.5616 845.545 24.5616 845.967C24.5616 846.388 24.0343 846.732 23.3903 846.732C21.8667 846.732 15.351 853.231 15.351 854.75C15.351 855.393 15.0056 855.919 14.5834 855.919C14.1613 855.919 13.8159 856.952 13.8159 858.215C13.8159 859.478 13.4705 860.512 13.0483 860.512C12.6262 860.512 12.2808 861.373 12.2808 862.426C12.2808 863.478 11.9354 864.34 11.5132 864.34C11.0911 864.34 10.7457 865.201 10.7457 866.254C10.7457 867.306 10.4003 868.167 9.97814 868.167C9.55598 868.167 9.21059 869.029 9.21059 870.081C9.21059 871.134 8.86519 871.995 8.44304 871.995C8.02089 871.995 7.67549 872.856 7.67549 873.909C7.67549 874.962 7.33009 875.823 6.90794 875.823C6.48579 875.823 6.14039 876.684 6.14039 877.737C6.14039 878.789 5.79499 879.651 5.37284 879.651C4.95069 879.651 4.60529 880.512 4.60529 881.565C4.60529 882.617 4.2599 883.478 3.83774 883.478C3.41559 883.478 3.0702 884.512 3.0702 885.775C3.0702 887.038 2.7248 888.072 2.30265 888.072C1.88049 888.072 1.5351 888.933 1.5351 889.986C1.5351 891.038 1.1897 891.9 0.767549 891.9C0.312392 891.9 0 894.707 0 898.789C0 902.872 0.312392 905.679 0.767549 905.679C1.1897 905.679 1.5351 906.885 1.5351 908.359C1.5351 909.833 1.88049 911.038 2.30265 911.038C2.7248 911.038 3.0702 912.244 3.0702 913.718C3.0702 915.191 3.41559 916.397 3.83774 916.397C4.2599 916.397 4.60529 917.775 4.60529 919.459C4.60529 921.144 4.95069 922.522 5.37284 922.522C5.79499 922.522 6.14039 923.727 6.14039 925.201C6.14039 926.675 6.48579 927.88 6.90794 927.88C7.33009 927.88 7.67549 929.086 7.67549 930.56C7.67549 932.033 8.02089 933.239 8.44304 933.239C8.86519 933.239 9.21059 934.617 9.21059 936.301C9.21059 937.986 9.55598 939.364 9.97814 939.364C10.4003 939.364 10.7457 939.887 10.7457 940.527C10.7457 941.834 20.2441 951.612 21.5144 951.612C21.9642 951.612 24.7174 954.024 27.6318 956.971C30.5461 959.919 33.3093 962.33 33.7722 962.33C34.235 962.33 36.9982 964.742 39.9125 967.689C42.8269 970.636 45.7459 973.048 46.3999 973.048C47.0531 973.048 47.588 973.392 47.588 973.813C47.588 974.234 48.2788 974.579 49.1231 974.579C49.9674 974.579 50.6582 974.923 50.6582 975.345C50.6582 975.766 51.6944 976.11 52.9609 976.11C54.2273 976.11 55.2635 976.455 55.2635 976.876C55.2635 977.297 56.6451 977.641 58.3337 977.641C60.0223 977.641 61.4039 977.297 61.4039 976.876C61.4039 976.429 63.9622 976.11 67.5443 976.11C71.1265 976.11 73.6847 975.791 73.6847 975.345C73.6847 974.877 77.2668 974.579 82.8953 974.579C88.5237 974.579 92.1059 974.281 92.1059 973.813C92.1059 973.349 95.4317 973.048 100.549 973.048C105.666 973.048 108.992 972.746 108.992 972.282C108.992 971.828 111.807 971.517 115.9 971.517C119.993 971.517 122.808 971.205 122.808 970.751C122.808 970.33 124.113 969.986 125.708 969.986C127.729 969.986 128.945 969.521 129.716 968.455C130.324 967.612 131.437 966.923 132.188 966.923C133.042 966.923 133.554 966.35 133.554 965.392C133.554 964.55 133.899 963.861 134.321 963.861C134.743 963.861 135.089 963.172 135.089 962.33C135.089 961.488 135.434 960.799 135.856 960.799C136.278 960.799 136.624 960.11 136.624 959.268C136.624 957.316 137.516 957.316 138.926 959.268C139.535 960.11 140.491 960.799 141.052 960.799C141.612 960.799 144.455 963.211 147.369 966.158C150.284 969.105 153.127 971.517 153.687 971.517C154.247 971.517 155.204 972.206 155.812 973.048C156.463 973.947 157.8 974.579 159.052 974.579C160.225 974.579 161.185 974.923 161.185 975.345C161.185 975.77 163.232 976.11 165.791 976.11C168.349 976.11 170.396 975.77 170.396 975.345C170.396 974.923 171.777 974.579 173.466 974.579C175.155 974.579 176.536 974.234 176.536 973.813C176.536 973.392 177.918 973.048 179.606 973.048C181.295 973.048 182.677 972.703 182.677 972.282C182.677 971.861 183.713 971.517 184.979 971.517C186.246 971.517 187.282 971.172 187.282 970.751C187.282 970.33 188.664 969.986 190.352 969.986C192.041 969.986 193.422 969.641 193.422 969.22C193.422 968.799 194.804 968.455 196.493 968.455C198.181 968.455 199.563 968.11 199.563 967.689C199.563 967.268 200.944 966.923 202.633 966.923C204.322 966.923 205.703 966.579 205.703 966.158C205.703 965.737 207.085 965.392 208.773 965.392C210.462 965.392 211.844 965.048 211.844 964.627C211.844 964.206 213.225 963.861 214.914 963.861C216.602 963.861 217.984 963.554 217.984 963.179C217.984 962.444 221.362 961.715 227.77 961.065C230.422 960.797 231.8 960.943 231.8 961.493C231.8 961.953 232.491 962.33 233.335 962.33C234.179 962.33 234.87 962.675 234.87 963.096C234.87 963.517 236.252 963.861 237.94 963.861C239.629 963.861 241.01 964.174 241.01 964.556C241.01 964.938 242.824 965.43 245.04 965.65C247.256 965.869 250.969 966.442 253.291 966.923C255.613 967.405 259.326 967.978 261.542 968.197C263.758 968.417 265.572 968.909 265.572 969.291C265.572 969.673 267.299 969.986 269.41 969.986C271.52 969.986 273.247 970.33 273.247 970.751C273.247 971.177 275.294 971.517 277.853 971.517C280.411 971.517 282.458 971.857 282.458 972.282C282.458 972.703 284.185 973.048 286.296 973.048C288.407 973.048 290.133 972.703 290.133 972.282C290.133 971.861 291.006 971.517 292.072 971.517C294.453 971.517 300.879 965.387 300.879 963.116C300.879 962.263 301.225 961.565 301.647 961.565C302.069 961.565 302.414 960.703 302.414 959.651C302.414 958.598 302.76 957.737 303.182 957.737C303.604 957.737 303.949 957.048 303.949 956.206C303.949 955.364 304.295 954.675 304.717 954.675C305.139 954.675 305.484 953.986 305.484 953.144C305.484 952.301 305.83 951.612 306.252 951.612C306.674 951.612 307.02 950.923 307.02 950.081C307.02 949.239 307.365 948.55 307.787 948.55C308.209 948.55 308.555 947.861 308.555 947.019C308.555 946.177 308.9 945.488 309.322 945.488C309.744 945.488 310.09 944.799 310.09 943.957C310.09 943.115 310.435 942.426 310.857 942.426C311.279 942.426 311.625 941.737 311.625 940.895C311.625 940.053 311.97 939.364 312.392 939.364C312.815 939.364 313.16 938.502 313.16 937.45C313.16 936.397 313.505 935.536 313.928 935.536C314.35 935.536 314.695 934.847 314.695 934.005C314.695 933.163 315.04 932.474 315.463 932.474C315.885 932.474 316.23 931.785 316.23 930.943C316.23 930.1 316.523 929.411 316.88 929.411C317.901 929.411 320.835 932.176 320.835 933.137C320.835 933.614 321.181 934.005 321.603 934.005C322.025 934.005 322.371 934.358 322.371 934.79C322.371 935.834 328.595 942.007 330.873 943.223C333.165 944.447 343.293 944.511 343.696 943.304C343.858 942.821 344.491 942.426 345.103 942.426C345.715 942.426 347.363 941.306 348.765 939.938C350.167 938.57 352.105 936.933 353.073 936.301C354.04 935.67 355.973 934.038 357.369 932.675C360.204 929.91 362.283 930.021 362.283 932.938C362.283 933.946 362.628 934.77 363.051 934.77C363.473 934.77 363.818 935.976 363.818 937.45C363.818 938.923 364.164 940.129 364.586 940.129C365.008 940.129 365.353 941.335 365.353 942.809C365.353 944.282 365.699 945.488 366.121 945.488C366.543 945.488 366.888 946.694 366.888 948.167C366.888 949.641 367.234 950.847 367.656 950.847C368.078 950.847 368.423 952.053 368.423 953.526C368.423 955 368.769 956.206 369.191 956.206C369.613 956.206 369.959 957.584 369.959 959.268C369.959 960.952 370.304 962.33 370.726 962.33C371.148 962.33 371.494 963.364 371.494 964.627C371.494 965.89 371.839 966.923 372.261 966.923C372.683 966.923 373.029 967.452 373.029 968.097C373.029 969.621 377.999 974.579 379.528 974.579C380.175 974.579 380.704 974.923 380.704 975.345C380.704 975.766 381.74 976.11 383.007 976.11C384.273 976.11 385.31 976.455 385.31 976.876C385.31 977.297 386 977.641 386.845 977.641C387.689 977.641 388.38 977.297 388.38 976.876C388.38 976.416 391.45 976.11 396.055 976.11C400.661 976.11 403.731 975.804 403.731 975.345C403.731 974.871 407.824 974.579 414.476 974.579C421.129 974.579 425.222 974.871 425.222 975.345C425.222 975.766 426.258 976.11 427.525 976.11C428.791 976.11 429.827 976.455 429.827 976.876C429.827 977.362 435.968 977.641 446.713 977.641C457.459 977.641 463.6 977.362 463.6 976.876C463.6 976.383 471.275 976.11 485.091 976.11C498.907 976.11 506.582 975.837 506.582 975.345C506.582 974.923 507.618 974.579 508.885 974.579C510.151 974.579 511.188 974.234 511.188 973.813C511.188 973.392 512.224 973.048 513.49 973.048C514.757 973.048 515.793 972.703 515.793 972.282C515.793 971.861 516.829 971.517 518.096 971.517C519.362 971.517 520.398 971.172 520.398 970.751C520.398 970.33 521.434 969.986 522.701 969.986C523.967 969.986 525.003 969.684 525.003 969.316C525.003 968.948 525.981 968.451 527.176 968.213C529.466 967.756 534.214 963.838 534.214 962.406C534.214 961.943 534.559 961.565 534.982 961.565C535.404 961.565 535.749 961.048 535.749 960.416C535.749 959.785 536.095 959.268 536.517 959.268C536.939 959.268 537.284 958.234 537.284 956.971C537.284 953.865 538.954 953.993 542.325 957.354C543.802 958.828 545.338 960.033 545.739 960.033C546.139 960.033 548.712 962.273 551.456 965.01C554.199 967.746 556.831 969.986 557.302 969.986C557.774 969.986 559.128 971.019 560.311 972.282C561.633 973.695 563.23 974.579 564.456 974.579C565.554 974.579 566.451 974.923 566.451 975.345C566.451 975.77 568.498 976.11 571.056 976.11C573.615 976.11 575.662 975.77 575.662 975.345C575.662 974.923 577.043 974.579 578.732 974.579C580.42 974.579 581.802 974.234 581.802 973.813C581.802 973.392 583.184 973.048 584.872 973.048C586.561 973.048 587.942 972.703 587.942 972.282C587.942 971.861 589.324 971.517 591.013 971.517C592.701 971.517 594.083 971.172 594.083 970.751C594.083 970.33 595.119 969.986 596.386 969.986C597.652 969.986 598.688 969.641 598.688 969.22C598.688 968.799 600.07 968.455 601.758 968.455C603.447 968.455 604.829 968.11 604.829 967.689C604.829 967.268 606.21 966.923 607.899 966.923C609.587 966.923 610.969 966.579 610.969 966.158C610.969 965.737 612.351 965.392 614.039 965.392C615.728 965.392 617.109 965.048 617.109 964.627C617.109 964.206 618.491 963.861 620.18 963.861C621.868 963.861 623.25 963.517 623.25 963.096C623.25 962.675 624.631 962.33 626.32 962.33C628.009 962.33 629.39 962.023 629.39 961.648C629.39 961.274 630.599 960.757 632.077 960.5C633.554 960.243 635.972 959.824 637.449 959.567C638.927 959.31 640.136 958.793 640.136 958.419C640.136 958.044 640.827 957.737 641.671 957.737C642.515 957.737 643.206 957.392 643.206 956.971C643.206 956.55 643.897 956.206 644.741 956.206C645.594 956.206 646.276 955.695 646.276 955.057C646.276 954.426 646.622 953.909 647.044 953.909C647.466 953.909 647.811 953.392 647.811 952.761C647.811 952.129 648.157 951.612 648.579 951.612C649.001 951.612 649.346 950.579 649.346 949.316C649.346 948.053 649.692 947.019 650.114 947.019C650.536 947.019 650.881 945.469 650.881 943.574C650.881 941.679 651.227 940.129 651.649 940.129C652.076 940.129 652.417 938.087 652.417 935.536C652.417 932.984 652.757 930.943 653.184 930.943C653.606 930.943 653.952 929.048 653.952 926.732C653.952 924.416 654.297 922.522 654.719 922.522C655.146 922.522 655.487 920.48 655.487 917.928C655.487 915.377 655.828 913.335 656.254 913.335C656.676 913.335 657.022 911.44 657.022 909.124C657.022 906.809 657.367 904.914 657.789 904.914C658.216 904.914 658.557 902.872 658.557 900.321C658.557 897.769 658.898 895.727 659.325 895.727C659.747 895.727 660.092 893.862 660.092 891.58C660.092 889.012 660.457 887.264 661.052 886.987C661.819 886.63 661.819 886.451 661.052 886.094C660.523 885.849 660.092 884.299 660.092 882.649C660.092 881 659.747 879.651 659.325 879.651C658.902 879.651 658.557 879.134 658.557 878.502C658.557 877.871 658.212 877.354 657.789 877.354C657.367 877.354 657.022 876.837 657.022 876.206C657.022 875.574 656.676 875.057 656.254 875.057C655.832 875.057 655.487 874.679 655.487 874.216C655.487 873.754 654.451 872.409 653.184 871.23C651.918 870.05 650.881 868.706 650.881 868.243C650.881 867.78 650.536 867.402 650.114 867.402C649.692 867.402 649.346 867.024 649.346 866.561C649.346 866.098 648.31 864.754 647.044 863.574C645.777 862.394 644.741 861.05 644.741 860.588C644.741 860.125 644.396 859.746 643.974 859.746C643.551 859.746 643.206 859.368 643.206 858.905C643.206 858.443 642.17 857.098 640.903 855.919C639.637 854.739 638.601 853.395 638.601 852.932C638.601 852.469 638.255 852.091 637.833 852.091C637.411 852.091 637.066 851.72 637.066 851.266C637.066 850.811 635.684 849.116 633.995 847.498C632.307 845.879 630.925 844.157 630.925 843.67C630.925 843.183 629.544 841.46 627.855 839.842C626.166 838.224 624.785 836.529 624.785 836.074C624.785 835.62 624.439 835.249 624.017 835.249C623.595 835.249 623.25 834.889 623.25 834.449C623.25 833.219 619.631 829.89 618.295 829.89C617.643 829.89 617.109 829.545 617.109 829.124C617.109 828.703 616.419 828.359 615.574 828.359C614.73 828.359 614.039 828.014 614.039 827.593C614.039 827.126 610.457 826.828 604.829 826.828C599.2 826.828 595.618 826.53 595.618 826.062C595.618 825.574 589.222 825.297 577.964 825.297C566.707 825.297 560.311 825.574 560.311 826.062C560.311 826.483 559.62 826.828 558.776 826.828C557.931 826.828 557.241 827.172 557.241 827.593C557.241 828.014 556.55 828.359 555.705 828.359C554.861 828.359 554.17 828.703 554.17 829.124C554.17 829.545 553.556 829.89 552.805 829.89C552.053 829.89 550.941 830.579 550.333 831.421C549.724 832.263 548.688 832.952 548.03 832.952C547.372 832.952 546.336 833.641 545.727 834.483C545.119 835.325 544.006 836.014 543.255 836.014C542.504 836.014 541.89 836.317 541.89 836.687C541.89 837.057 540.853 837.788 539.587 838.311C538.32 838.834 537.284 839.565 537.284 839.935C537.284 840.305 536.669 840.608 535.919 840.608C535.167 840.608 534.055 841.297 533.446 842.139C532.838 842.981 531.802 843.67 531.144 843.67C530.486 843.67 529.45 844.359 528.841 845.201C527.546 846.993 525.003 847.247 525.003 845.584C525.003 844.952 524.658 844.435 524.236 844.435C523.814 844.435 523.468 843.919 523.468 843.287C523.468 842.656 523.123 842.139 522.701 842.139C522.279 842.139 521.933 841.613 521.933 840.971C521.933 839.451 515.418 832.952 513.894 832.952C513.25 832.952 512.723 832.608 512.723 832.187C512.723 831.766 510.996 831.421 508.885 831.421C506.774 831.421 505.047 831.077 505.047 830.656C505.047 830.202 502.233 829.89 498.139 829.89C494.046 829.89 491.231 829.578 491.231 829.124C491.231 828.678 488.673 828.359 485.091 828.359C481.509 828.359 478.951 828.04 478.951 827.593C478.951 827.139 476.136 826.828 472.043 826.828C467.949 826.828 465.135 826.516 465.135 826.062C465.135 825.616 462.576 825.297 458.994 825.297C455.412 825.297 452.854 824.977 452.854 824.531C452.854 824.11 451.818 823.766 450.551 823.766C449.285 823.766 448.249 824.11 448.249 824.531ZM86.9103 891.823C89.5568 893.044 93.535 894.825 95.7517 895.782C97.9676 896.738 99.7814 897.658 99.7814 897.826C99.7814 898.8 96.6935 900.701 88.2873 904.905C81.5214 908.287 78.3383 909.493 77.0358 909.167C76.0372 908.917 75.2198 908.416 75.2198 908.054C75.2198 907.692 74.1836 906.968 72.9171 906.445C70.6613 905.513 70.6145 905.382 70.6145 900.008V894.523L75.4117 892.109C78.0505 890.781 80.6341 889.674 81.1537 889.649C81.6733 889.624 84.2638 890.602 86.9103 891.823Z" fill="black"/>
<path fill-rule="evenodd" clip-rule="evenodd" d="M49.3872 849.634L30.134 860.109L15.351 898.128L19.9908 915.349C22.5429 924.821 24.6306 932.7 24.6306 932.859C24.6306 933.019 31.9308 939.554 40.8528 947.383L57.0742 961.617L62.1523 961.127C64.9446 960.856 79.6639 959.542 94.8614 958.205C121.318 955.879 122.482 955.711 122.238 954.258C121.884 952.162 112.205 912.405 111.744 911.158C111.481 910.445 106.454 912.676 94.6733 918.733L77.9753 927.318L66.9809 919.848C60.9334 915.74 55.8469 911.986 55.6765 911.507C55.5068 911.027 55.6181 904.631 55.9259 897.292L56.4839 883.948L82.3803 871.936L97.0642 878.769C105.14 882.527 111.805 885.549 111.876 885.486C112.164 885.228 113.84 842.802 113.572 842.541C113.413 842.384 104.82 841.711 94.4776 841.045C84.1349 840.379 74.09 839.682 72.1565 839.497C68.8315 839.178 67.5896 839.731 49.3872 849.634ZM439.491 842.25C434.003 843.96 429.239 845.609 428.905 845.914C428.571 846.22 429.002 870.364 429.864 899.569C430.726 928.774 431.432 954.699 431.432 957.181V961.694L503.965 960.624L512.792 957.565C517.647 955.883 521.929 954.214 522.308 953.855C522.687 953.496 524.98 948.485 527.404 942.719L531.812 932.234L530.659 928.857C530.024 927 529.63 925.364 529.784 925.221C529.937 925.078 539.215 933.019 550.402 942.866C561.589 952.714 571.23 960.773 571.827 960.775C572.658 960.778 635.435 944.749 636.137 944.355C636.221 944.307 638.58 931.19 641.378 915.204C645.42 892.122 646.285 885.846 645.583 884.72C645.097 883.94 637.099 873.89 627.811 862.385C612.084 842.908 610.727 841.44 608.101 841.063C606.55 840.84 596.301 840.451 585.325 840.2L565.369 839.743L527.029 864.115L523.94 884.825C522.241 896.216 520.619 905.766 520.336 906.048C519.941 906.44 514.141 903.651 512.096 902.086C511.924 901.954 513.684 899 516.006 895.52L520.227 889.192L521.328 866.609L508.11 845.474L480.324 842.243C465.043 840.466 451.848 839.041 451.004 839.077C450.16 839.113 444.979 840.541 439.491 842.25ZM141.682 851.329C131.55 857.726 122.858 863.352 122.365 863.831C121.692 864.485 115.016 905.62 114.18 914.269C114.036 915.752 164.561 960.779 166.369 960.779C167.958 960.779 229.872 944.626 230.479 944.053C230.769 943.778 233.274 930.524 236.046 914.599L241.085 885.643L205.528 841.463L202.004 841.052C200.066 840.825 189.846 840.428 179.292 840.169L160.103 839.698L141.682 851.329ZM367.341 840.567C366.497 840.923 361.489 848.298 356.212 856.955C350.935 865.612 346.445 872.704 346.234 872.714C346.023 872.725 344.682 869.376 343.256 865.273C341.829 861.169 339.29 853.937 337.611 849.2L334.561 840.588H299.693L270.391 894.692C254.276 924.449 241.174 948.873 241.277 948.967C241.974 949.608 286.828 957.561 287.265 957.121C287.569 956.817 293.909 943.65 301.354 927.86C308.8 912.071 314.966 899.079 315.057 898.988C315.182 898.864 327.931 915.635 337.471 928.474C338.151 929.391 340.957 927.217 352.962 916.478C361.026 909.264 367.929 903.363 368.305 903.363C369.289 903.363 378.478 930.44 383.114 946.999C385.294 954.789 387.127 961.218 387.188 961.287C387.453 961.59 430.109 957.76 430.469 957.401C430.69 957.18 423.338 930.635 414.131 898.411L397.392 839.822L383.134 839.87C375.292 839.897 368.186 840.21 367.341 840.567ZM477.101 866.904L484.776 868.65V882.191L478.252 883.573C474.664 884.333 470.95 885.142 470.001 885.37C468.275 885.784 468.274 885.78 468.274 875.435C468.274 869.743 468.533 865.102 468.85 865.122C469.167 865.143 472.879 865.944 477.101 866.904ZM180.333 884.758C191.526 887.227 191.189 886.818 191.189 897.933V905.418L176.228 910.972L169.125 906.301C165.218 903.732 162.017 901.417 162.01 901.156C161.986 900.221 169.93 882.693 170.384 882.679C170.64 882.671 175.116 883.607 180.333 884.758ZM585.709 884.71C590.986 885.836 595.537 886.962 595.824 887.213C596.111 887.464 596.435 891.631 596.544 896.473L596.743 905.277L581.703 910.945L574.688 906.276C570.828 903.707 567.543 901.499 567.385 901.369C567.019 901.067 575.218 882.709 575.731 882.683C575.942 882.672 580.432 883.585 585.709 884.71ZM479.73 919.148L487.463 921.917V932.964L479.595 934.63C475.268 935.547 471.469 936.293 471.152 936.289C470.835 936.284 470.577 931.803 470.577 926.329C470.577 920.742 470.888 916.377 471.287 916.377C471.677 916.377 475.477 917.623 479.73 919.148Z" fill="url(#paint0_linear_215_197)"/>
<path fill-rule="evenodd" clip-rule="evenodd" d="M49.3503 849.591L30.1317 860.057L15.351 898.076L19.9908 915.297C22.5429 924.769 24.6306 932.646 24.6306 932.802C24.6306 932.958 31.9415 939.514 40.8774 947.37L57.1241 961.656L60.6417 961.228C62.5767 960.992 76.9391 959.721 92.5587 958.404C108.178 957.087 121.359 955.887 121.848 955.739C122.48 955.547 122.188 953.284 120.847 947.955C117.432 934.399 117.541 934.698 116.018 934.698C115.234 934.698 102.788 938.327 88.3602 942.763L62.1292 950.827L53.9341 944.174C49.4263 940.515 42.8891 935.249 39.4067 932.473L33.0752 927.426L31.1011 920.918C24.1709 898.08 24.7496 899.515 21.9342 898.175C18.4442 896.516 19.234 895.655 24.2469 895.655C26.7184 895.655 28.6196 895.271 28.9803 894.698C29.3112 894.172 32.5456 887.547 36.1669 879.976L42.7517 866.211L71.8349 853.767V847.048C71.8349 837.084 72.4374 837.016 49.3503 849.591ZM141.264 851.599C130.94 858.112 122.229 863.885 121.907 864.428C121.584 864.971 119.638 876.612 117.582 890.296C113.019 920.67 112.482 918.607 124.558 917.149C128.91 916.623 132.574 916.092 132.7 915.968C132.825 915.844 133.861 906.166 135.003 894.462L137.077 873.182L148.353 868.534C154.556 865.977 159.848 863.659 160.114 863.383C160.379 863.108 160.931 858.139 161.341 852.342C161.943 843.812 161.89 841.607 161.06 840.78C160.206 839.927 156.919 841.724 141.264 851.599ZM299.413 841.329C299.413 842.238 311.336 857.458 312.062 857.476C312.325 857.483 317.585 853.932 323.752 849.586L334.964 841.684L331.58 841.166C325.915 840.301 299.413 840.435 299.413 841.329ZM608.679 843.907L605.981 845.736L603.31 874.413L608.71 880.249C611.68 883.459 616.359 888.541 619.107 891.542L624.105 896.997L622.131 918.336C621.045 930.072 620.045 940.026 619.909 940.457C619.773 940.891 611.648 942.054 601.726 943.06C591.862 944.06 583.099 945.138 582.255 945.454C581.23 945.838 579.863 948.231 578.141 952.656C576.722 956.301 575.699 959.419 575.867 959.587C576.091 959.81 635.187 944.822 636.137 944.301C636.221 944.255 638.58 931.138 641.378 915.151C645.525 891.468 646.297 885.813 645.547 884.611C644.715 883.275 614.288 845.29 612.24 843.029C611.562 842.281 610.802 842.469 608.679 843.907ZM201.863 850.679C198.731 854.153 195.714 857.577 195.158 858.289C194.267 859.43 195.839 861.594 208.403 876.511C216.588 886.23 222.658 894.097 222.658 894.984C222.658 896.312 215.019 937.92 214.711 938.27C214.65 938.34 205.992 939.633 195.472 941.143C184.952 942.654 176.214 944.02 176.053 944.18C175.573 944.66 169.819 959.961 170.119 959.961C171.218 959.961 230.063 944.41 230.474 944.01C230.763 943.731 233.274 930.477 236.057 914.557L241.114 885.613L224.499 864.988C215.36 853.645 207.809 844.363 207.719 844.363C207.63 844.363 204.995 847.206 201.863 850.679ZM471.344 863.426C471.344 865.574 471.534 865.685 477.293 866.916C480.565 867.615 483.686 868.333 484.231 868.511C484.961 868.751 485.162 870.582 484.998 875.502L484.776 882.168L470.737 885.097L470.415 894.013C470.237 898.916 470.194 903.065 470.32 903.233C470.445 903.4 476.34 902.022 483.418 900.17L496.289 896.804L500.427 880.515C502.702 871.556 504.404 864.068 504.211 863.874C503.778 863.442 479.125 861.228 474.606 861.215C471.516 861.206 471.344 861.323 471.344 863.426ZM294.04 913.752C283.698 930.417 275.235 944.57 275.235 945.203C275.235 945.837 276.962 948.706 279.073 951.578C282.709 956.526 285.741 958.598 287.202 957.133C287.54 956.794 293.909 943.598 301.354 927.808C308.8 912.019 314.967 899.026 315.057 898.935C315.149 898.844 320.363 905.627 326.646 914.008C336.846 927.615 338.227 929.16 339.556 928.451C340.375 928.014 341.216 927.001 341.426 926.201C341.636 925.401 342.221 924.746 342.727 924.746C343.232 924.746 349.042 919.923 355.638 914.028C362.235 908.134 367.936 903.311 368.309 903.311C369.153 903.311 378.32 929.728 381.592 941.588C382.929 946.43 385.194 952.717 386.628 955.559L389.236 960.727H393.697C397.369 960.727 398.455 960.413 399.829 958.955C400.747 957.981 401.497 956.689 401.497 956.085C401.498 955.141 371.09 884.376 370.289 883.455C370.129 883.272 364.441 886.89 357.649 891.494C350.856 896.098 344.982 900.064 344.595 900.306C344.208 900.548 343.385 904.823 342.765 909.806C342.146 914.789 341.499 919.005 341.33 919.175C341.16 919.344 340.769 915.14 340.463 909.833L339.905 900.183L337.504 898.395C333.819 895.65 314.138 883.403 313.452 883.429C313.119 883.442 304.383 897.087 294.04 913.752ZM111.43 913.391C111.394 914.936 111.154 916.745 110.898 917.411C110.563 918.281 110.891 918.622 112.064 918.622C113.772 918.622 113.773 918.137 112.073 912.497C111.563 910.806 111.488 910.911 111.43 913.391ZM518.615 924.937L517.293 934.259L507.427 945.253L494.951 945.792C488.088 946.088 473.148 946.727 461.75 947.213L441.026 948.095L437.79 954.22C436.011 957.588 434.542 960.63 434.528 960.98C434.513 961.33 450.131 961.38 469.233 961.091L503.965 960.565L512.792 957.51C517.647 955.83 521.919 954.171 522.287 953.824C523.158 953.001 531.283 933.907 531.414 932.373C531.507 931.288 521.916 916.835 520.541 915.987C520.209 915.783 519.343 919.811 518.615 924.937Z" fill="#CCC7BE"/>
<path d="M195.927 728.5C32.3269 676.9 20.4269 574.667 34.9269 530C62.5266 547.2 81.4267 546.167 87.4268 543.5C84.6268 443.9 28.2604 403 0.427242 395C-7.57276 263.4 98.7606 228.833 152.927 228L174.427 97L212.927 119.5L267.427 37.5L284.927 87L287.427 0L361.927 83L390.927 45.5L422.427 132L487.427 103L454.927 216.5H487.427L480.927 228C600.527 252.4 610.094 349.5 599.927 395C553.927 404.2 538.427 497.833 536.427 543.5C555.627 549.5 576.427 537 584.427 530C604.427 563 593.427 709.5 463.927 728.5C360.327 743.7 311.761 779.167 300.427 795C300.427 795 261.427 751 195.927 728.5Z" fill="url(#paint1_linear_215_197)"/>
<path d="M102.5 554C65.3 564.8 46.6667 558.5 42 554C29 629 155 710.5 215 723.5C252.343 731.591 290.667 746.5 304.5 758C312.5 750.5 345.7 733.1 414.5 723.5C566.5 709.1 585.833 604.833 576.5 554.5C566.9 561.3 537.5 557.333 524 554.5C521.2 449.3 565.833 396.333 588.5 383V349L578 340.5L581.5 328.5L567.5 301.5H556.5V289L534.5 266.5H522V257L487.5 239.5L461 243.5L465 231.5H434.5L465 129L413 150.5L407 121L385.5 71.5L355.5 110L352 93.5L302 37V93.5L277.5 110L272 103L261 71.5L228.5 121L221.5 144.5L190 121L166.5 237.5L168.5 246L141.5 255L133 243.5L113 239L80.5 255V268L71 265L46 289.5V300.5H35.5L19.5 329L25 340.5L14 347.5V383.5C85.2 416.3 102.667 510.833 102.5 554Z" fill="#151A1E"/>
<path fill-rule="evenodd" clip-rule="evenodd" d="M109.025 262.118L96.275 269.212V276.489V283.765L89.212 282.215L82.149 280.665L72.712 290.063L63.275 299.46V306.23V313L57.025 313.001L50.775 313.002L44.965 323.751L39.155 334.5L41.215 339.519C42.348 342.28 43.275 345.073 43.275 345.727C43.275 346.381 41.297 348.075 38.88 349.491C34.022 352.338 34.148 351.995 32.166 367.801L31 377.101L40.888 387.293C46.326 392.898 63.936 410.905 80.021 427.307L109.267 457.13L119.284 460.503L129.301 463.876L171.771 427.922L214.24 391.968L211.035 385.468L207.83 378.968L211.077 349.469L214.323 319.97L193.15 295.735C181.505 282.406 171.144 270.613 170.126 269.528C168.299 267.581 168.198 267.634 161.876 273.9C157.456 278.281 155.059 279.991 154.126 279.429C153.383 278.981 146.156 273.301 138.067 266.807C129.977 260.313 123.002 255.005 122.567 255.012C122.131 255.018 116.038 258.216 109.025 262.118ZM468.275 266.145C448.406 282.352 451.281 281.44 443.71 273.936C437.352 267.634 437.251 267.581 435.424 269.528C434.406 270.613 424.045 282.406 412.4 295.735L391.227 319.97L394.473 349.469L397.72 378.968L394.515 385.468L391.31 391.968L433.779 427.922L476.249 463.876L486.236 460.513L496.223 457.15L524.999 427.817C540.826 411.685 558.449 393.675 564.163 387.796L574.55 377.106L573.384 367.803C571.448 352.362 571.571 352.698 566.703 349.618C564.268 348.077 562.275 346.304 562.275 345.678C562.275 345.051 563.202 342.28 564.335 339.519L566.395 334.5L560.585 323.751L554.775 313.002L548.525 313.001L542.275 313V306.23V299.46L532.838 290.063L523.401 280.665L516.338 282.215L509.275 283.765V276.483V269.202L496.457 262.101C489.407 258.195 483.22 255.03 482.707 255.067C482.194 255.104 475.7 260.089 468.275 266.145ZM287.275 468.938C227.202 514.827 203.683 533.339 203.448 534.921C203.268 536.13 204.285 541.179 205.708 546.142C213.718 574.063 234.824 602.275 264.775 625.093C280.327 636.941 304.035 651.034 320.369 658.14C325.773 660.491 330.095 662.513 329.974 662.634C329.853 662.755 326.11 662.222 321.656 661.449C289.32 655.837 254.744 632.427 221.063 593.341C211.066 581.74 199.621 566.665 192.343 555.511C189.476 551.117 187.007 547.399 186.856 547.248C186.177 546.568 178.636 550.451 172.567 554.606C147.005 572.106 112.935 581.278 80.066 579.508C73.076 579.131 66.019 579.117 64.385 579.476L61.413 580.129L72.902 594.814C94.105 621.916 113.629 642.373 133.69 658.509C161.777 681.1 193.631 697.077 222.627 703.118C230.802 704.821 237.546 705.324 257.32 705.705C284.262 706.223 292.557 705.368 308.411 700.439C362.602 683.588 411.924 625.765 447.066 537.887C453.74 521.196 463.275 493.325 463.275 490.504C463.275 489.046 373.81 405.599 371.954 405.327C371.306 405.232 333.2 433.857 287.275 468.938ZM186.775 442.128C164.775 460.804 145.694 476.897 144.373 477.891L141.971 479.697L144.691 490.662L147.411 501.627L160.784 513.564C168.464 520.419 175.012 525.5 176.167 525.5C177.272 525.5 200.25 509.075 227.228 489L276.279 452.5L275.801 449.008C275.537 447.087 274.916 445.38 274.419 445.215C273.922 445.049 268.201 436.608 261.707 426.457L249.899 408L238.337 408.086L226.775 408.172L186.775 442.128ZM463.312 549.718C460.277 557.163 448.319 581.192 442.52 591.5C423.145 625.941 395.751 658.949 372.091 676.363C366.417 680.539 360.979 684.649 360.007 685.496C359.034 686.343 355.321 688.475 351.757 690.233C348.192 691.991 345.276 693.67 345.277 693.965C345.278 694.259 347.19 695.694 349.527 697.153C352.832 699.218 355.994 700.06 363.775 700.951C380.045 702.814 415.422 703.425 429.864 702.093C472.977 698.116 507.503 683.615 529.275 660.34C546.668 641.748 558.172 614.736 558.593 591.5L558.775 581.5L554.775 582C552.575 582.275 545.375 582.467 538.775 582.426C514.313 582.276 494.225 573.111 474.754 553.218L465.669 543.936L463.312 549.718Z" fill="url(#paint2_linear_215_197)"/>
<path fill-rule="evenodd" clip-rule="evenodd" d="M366.993 292.666C361.218 295.569 348.421 301.224 338.554 305.232C328.688 309.24 320.444 313.033 320.235 313.66C320.026 314.288 321.839 316.786 324.264 319.211C332.469 327.415 344.04 328.876 361.784 323.948C369.518 321.8 370.207 321.388 372.03 317.815C373.77 314.404 378.554 289.689 377.794 288.04C377.628 287.681 372.768 289.762 366.993 292.666ZM228 290.054C228.023 294.731 232.227 314.602 233.742 317.196C235.273 319.819 236.877 320.726 243.533 322.737C248.767 324.318 254.074 325.159 259.029 325.193C265.512 325.237 267.311 324.839 271.9 322.341C276.552 319.809 282.993 313.457 281.882 312.495C281.668 312.31 272.493 308.434 261.493 303.883C250.493 299.331 238.793 294.211 235.493 292.504C232.193 290.798 229.156 289.248 228.743 289.061C228.33 288.874 227.996 289.32 228 290.054Z" fill="white"/>
<path fill-rule="evenodd" clip-rule="evenodd" d="M310.262 79.75L310.796 101.5L289.618 120.5C277.97 130.95 268.133 139.618 267.757 139.761C267.382 139.905 265.609 135.55 263.817 130.083C261.156 121.965 260.302 117.088 259.153 103.458C258.38 94.281 257.561 86.585 257.332 86.357C257.104 86.129 249.448 105.868 240.318 130.221C224.042 173.635 223.729 174.617 224.297 180.5L224.877 186.5L218.467 177.5C214.941 172.55 208.075 162.763 203.21 155.75C198.345 148.737 194.08 143 193.733 143C193.386 143 190.29 157.287 186.854 174.75C178.652 216.426 178.416 220.859 182.96 248L186.392 268.5L197.267 279.086C203.248 284.908 210.087 291.438 212.464 293.597L216.785 297.524L225.714 340.012C230.625 363.38 234.764 382.863 234.912 383.306C235.059 383.75 246.411 394.392 260.138 406.956L285.096 429.799L305.119 429.301C316.132 429.027 326.32 428.509 327.76 428.151C329.56 427.703 335.93 420.939 348.151 406.5C357.926 394.95 366.53 384.796 367.27 383.936C368.01 383.075 371.393 369.35 374.787 353.436L380.958 324.5L388.47 313.5C400.336 296.124 403.783 291.906 425.932 267.66C437.407 255.099 446.583 244.608 446.323 244.348C446.063 244.087 437.895 246.42 428.174 249.532C418.452 252.644 410.295 254.986 410.046 254.738C409.798 254.489 419.072 230.763 430.656 202.014C442.239 173.264 451.587 149.624 451.429 149.48C451.271 149.337 439.91 155.915 426.181 164.099C412.452 172.282 400.888 178.645 400.482 178.239C399.588 177.344 396.402 160.052 390.073 121.75C387.46 105.938 385.057 93.014 384.732 93.032C384.408 93.05 378.362 103.181 371.297 115.545L358.451 138.027L351.433 142.567C347.573 145.063 344.203 146.894 343.943 146.634C343.683 146.374 342.552 139.263 341.429 130.831L339.388 115.5L325.012 86.75C317.105 70.938 310.431 58 310.182 58C309.932 58 309.968 67.788 310.262 79.75ZM372.166 169.762C371.792 173.481 371.169 178.078 370.78 179.979L370.073 183.434L367.735 179.65C365.492 176.021 365.227 175.892 361.269 176.506C358.999 176.858 356.242 177.389 355.142 177.685C353.481 178.133 353.361 177.994 354.437 176.862C356.759 174.42 371.119 163.137 371.993 163.067C372.462 163.03 372.539 166.043 372.166 169.762ZM258.605 200.241C258.625 200.648 256.375 199.587 253.605 197.882L248.568 194.783L240.806 199.92L242.739 193.21C243.802 189.519 245.153 184.737 245.741 182.581L246.81 178.663L252.689 189.081C255.922 194.812 258.585 199.833 258.605 200.241ZM315.474 193.267C318.204 200.27 320.244 206 320.007 206C319.77 206 317.439 204.917 314.828 203.594L310.08 201.188L306.111 204.176C295.896 211.866 296.142 212.57 303.22 195.893C306.752 187.57 309.642 180.515 309.642 180.214C309.642 178.727 310.92 181.587 315.474 193.267ZM223.611 246.528C223.104 248.713 222.679 250.954 222.666 251.508C222.653 252.062 225.567 254.499 229.142 256.924C232.717 259.348 235.637 262.044 235.63 262.916C235.624 263.787 234.954 266.975 234.142 270C233.33 273.025 232.66 276.259 232.654 277.186C232.646 278.263 237.247 281.788 245.392 286.945C255.473 293.328 262.187 296.615 277.466 302.649C293.26 308.886 296.548 310.513 295.466 311.556C294.738 312.258 289.207 316.922 283.176 321.921C273.592 329.864 271.827 330.949 269.176 330.531C267.507 330.269 260.347 329.545 253.265 328.923C243.559 328.071 238.759 327.137 233.771 325.131L227.155 322.471L217.539 288.064L225.89 270.09L214.845 257.5L219.493 249.864C222.05 245.665 224.23 242.302 224.337 242.392C224.444 242.482 224.117 244.344 223.611 246.528ZM389.616 257.36C389.63 257.833 387.392 260.681 384.642 263.69C381.892 266.699 379.647 269.687 379.653 270.331C379.659 270.974 381.401 275.224 383.524 279.774L387.384 288.049L383.507 301.774C381.374 309.324 379.184 317.116 378.64 319.09C377.746 322.334 377 322.934 370.896 325.306C365.619 327.357 360.658 328.24 348.206 329.345L332.27 330.759L307.885 310.329L326.513 303.079C341.362 297.301 347.932 294.092 358.892 287.263C366.455 282.551 372.634 278.427 372.625 278.098C372.615 277.769 371.718 274.125 370.631 270L368.653 262.5L370.98 260.5C372.26 259.4 375.434 257.028 378.035 255.228C381.39 252.906 382.614 251.454 382.25 250.228C380.077 242.907 380.64 242.759 385.03 249.5C387.538 253.35 389.602 256.887 389.616 257.36Z" fill="url(#paint3_linear_215_197)"/>
<path fill-rule="evenodd" clip-rule="evenodd" d="M311.484 64.5604C311.362 70.6478 326.56 109.646 330.813 114.159C333.784 117.311 334.972 121.458 337.065 135.956C340.844 162.149 340.342 161.579 350.868 151.63C355.722 147.042 359.693 142.339 359.693 141.179C359.693 138.305 359.034 138.464 351.694 143.094C348.186 145.308 344.796 146.533 344.16 145.819C343.526 145.104 342.252 138.126 341.33 130.314C339.753 116.945 338.826 114.466 325.61 88.2779C316.073 69.3758 311.54 61.7673 311.484 64.5604ZM383.012 97.4884C381.182 101.334 381.816 106.585 388.51 143.027C392.672 165.683 396.503 184.219 397.025 184.219C397.545 184.219 408.738 177.897 421.895 170.171C435.054 162.445 445.994 156.314 446.208 156.549C446.68 157.066 391.589 260.388 386.324 268.86L382.582 274.879L386.327 273.721C388.387 273.083 392.767 271.202 396.063 269.539C399.36 267.876 402.374 266.833 402.761 267.221C403.148 267.609 396.16 281.144 387.232 297.3L370.997 326.674L367.585 350.027C365.708 362.871 363.605 374.781 362.91 376.494C362.215 378.206 353.112 389.066 342.679 400.625C324.529 420.737 323.362 421.718 315.609 423.378C307.51 425.111 307.508 425.112 311.97 426.91C314.61 427.974 319.385 428.299 323.653 427.707C330.623 426.741 331.469 426.006 348.01 406.548C357.434 395.461 365.988 385.214 367.02 383.777C368.051 382.34 371.473 368.904 374.623 353.919C378.147 337.162 381.749 324.212 383.98 320.278C390.555 308.679 406.314 288.599 423.945 269.348C433.496 258.92 442.689 248.82 444.373 246.905C447.181 243.709 445.926 243.93 428.992 249.616C418.851 253.021 410.277 255.532 409.94 255.194C409.602 254.858 418.216 232.619 429.078 205.777C439.942 178.935 449.443 155.378 450.194 153.427C451.836 149.164 453.93 148.157 423.587 166.239C401.608 179.335 400.989 179.592 399.824 176.095C399.165 174.12 395.579 154.648 391.854 132.823C385.609 96.2335 384.92 93.4794 383.012 97.4884ZM255.639 111.061C253.81 121.721 253.839 121.896 260.14 139.381C265.178 153.357 266.342 158.501 265.799 164.403C265.424 168.49 265.394 171.555 265.732 171.218C267.148 169.802 275.76 137.183 274.934 136.357C274.439 135.862 272.641 136.714 270.94 138.254C268.449 140.505 267.692 140.63 267.053 138.892C261.995 125.157 259.993 116.995 259.993 110.115C259.993 98.175 257.767 98.6592 255.639 111.061ZM196.128 146.932C196.131 147.316 197.525 154.989 199.226 163.98L202.319 180.327L215.968 193.235C228.217 204.821 238.184 212.288 238.184 209.878C238.184 209.389 234.801 203.942 230.666 197.772C226.532 191.602 222.704 185.343 222.16 183.864C220.54 179.452 196.114 144.799 196.128 146.932ZM186.329 182.27C179.888 215.171 179.652 220.82 183.661 246.149L187.163 268.28L217.641 297.516L223.385 322.003L224.304 301.096L196.997 266.994L187.47 220.298L189.476 194.085C192.185 158.668 191.473 155.991 186.329 182.27Z" fill="url(#paint4_linear_215_197)"/>
<path d="M489 258.5L481.5 255L450.5 279L453 290.5L489 258.5Z" fill="#68EFF6"/>
<path d="M116 259.451L123.597 256L155 279.662L152.468 291L116 259.451Z" fill="#68EFF6"/>
<path d="M359.5 422.5L369 433L243 522.5C248.83 544.805 262.735 586.268 280.143 611.54C286.612 618.946 292.682 625.094 297.5 629.5C291.462 625.858 285.629 619.503 280.143 611.54C260.431 588.972 237.012 554.725 234 522.5L359.5 422.5Z" fill="#67F0F6"/>
<path fill-rule="evenodd" clip-rule="evenodd" d="M119.024 256.583L116.745 258.428L134.499 274.72C153.363 292.03 153.963 292.325 153.974 284.304C153.98 280.338 153.846 280.197 138.324 267.804C129.714 260.929 122.361 255.177 121.985 255.021C121.609 254.866 120.277 255.568 119.024 256.583ZM466.676 267.462L450.999 279.988L451.014 284.146C451.044 292.338 451.581 292.08 470.372 274.836C480.067 265.939 487.999 258.479 487.999 258.258C487.999 258.037 486.729 257.199 485.176 256.396C482.368 254.944 482.274 255 466.676 267.462ZM166.081 269.206C164.545 271.056 162.927 268.475 183.999 297.804C193.68 311.279 201.917 322.825 202.303 323.463C202.689 324.1 201.44 334.201 199.529 345.908C196.942 361.749 195.598 367.627 194.276 368.886C193.299 369.817 179.224 382.385 162.999 396.817C128.679 427.343 129.589 426.495 132.999 424.782C135.819 423.365 189.057 394.926 195.999 391.129C200.49 388.671 200.494 388.671 197.963 390.985C196.568 392.261 179.352 406.744 159.706 423.17C127.862 449.794 123.8 452.888 122.289 451.67C121.357 450.919 101.052 432.634 77.168 411.038C42.511 379.701 33.465 372.002 32.371 372.911C31.616 373.537 30.999 374.781 31 375.676C31.001 376.572 48.342 395.079 69.537 416.804L108.072 456.304L118.364 459.947L128.657 463.589L170.578 428.135C193.635 408.635 212.637 392.295 212.805 391.824C212.973 391.354 211.72 388.213 210.02 384.845L206.929 378.721L210.061 350.72C211.784 335.319 212.931 321.725 212.609 320.511C212.286 319.297 202.766 307.729 191.452 294.804C165.57 265.237 167.64 267.326 166.081 269.206ZM414.543 293.473C402.668 307.041 392.666 319.284 392.315 320.68C391.965 322.077 393.07 335.779 394.771 351.13L397.863 379.041L394.717 385.422C391.961 391.01 391.752 391.98 393.034 393.224C393.84 394.006 412.855 410.16 435.29 429.122L476.081 463.599L485.689 460.452L495.297 457.304L534.398 417.506C555.904 395.617 573.633 376.902 573.797 375.918C573.961 374.934 573.457 373.599 572.676 372.951C571.517 371.989 563.275 378.989 527.83 411.038C503.946 432.634 483.641 450.919 482.708 451.671C481.195 452.891 477.086 449.763 444.755 422.78C403.734 388.543 402.476 387.428 408.999 391.066C414.259 393.999 468.319 422.93 471.999 424.78C475.41 426.496 476.315 427.34 441.999 396.817C425.774 382.385 411.717 369.834 410.76 368.924C409.489 367.716 408.072 361.523 405.49 345.892C402.389 327.117 402.13 324.258 403.366 322.409C404.14 321.251 412.686 309.31 422.358 295.873C435.89 277.073 439.691 271.138 438.849 270.123C438.247 269.398 437.389 268.804 436.944 268.804C436.498 268.804 426.418 279.905 414.543 293.473ZM95.999 277.245C95.999 284.633 96.362 284.416 87.514 282.304C83.743 281.404 81.177 281.226 80.58 281.823C80.059 282.344 79.827 282.94 80.066 283.147C80.304 283.355 92.874 292.648 107.999 303.801C123.124 314.953 136.174 324.578 136.999 325.191C138.236 326.108 138.301 326.041 137.373 324.804C136.754 323.979 127.667 311.759 117.181 297.649C106.694 283.538 97.638 271.699 97.056 271.34C96.354 270.906 95.999 272.889 95.999 277.245ZM506.382 272.966C505.218 274.252 496.274 286.104 486.507 299.304C476.74 312.504 468.243 323.979 467.624 324.804C466.697 326.04 466.763 326.109 467.999 325.194C468.824 324.583 481.874 314.952 496.999 303.79C512.124 292.628 524.694 283.333 524.932 283.133C525.171 282.934 524.939 282.344 524.418 281.823C523.821 281.226 521.255 281.404 517.484 282.304C508.771 284.384 509.126 284.592 508.795 277.216L508.499 270.629L506.382 272.966ZM63.666 298.471C63.299 298.837 62.999 302.437 62.999 306.471V313.804H56.499C52.924 313.804 50.015 314.141 50.035 314.554C50.063 315.147 68.815 328.246 96.2 346.804C98.168 348.137 98.314 348.137 97.513 346.804C96.877 345.746 66.494 300.867 64.509 298.054C64.412 297.916 64.032 298.104 63.666 298.471ZM525.499 320.09C517.249 332.204 509.605 343.508 508.512 345.21L506.524 348.304L508.768 346.804C527.063 334.572 554.936 315.141 554.963 314.6C554.983 314.212 551.961 313.762 548.249 313.6L541.499 313.304L540.999 305.684L540.499 298.064L525.499 320.09ZM283.356 321.32L273.214 329.748L253.893 331.313C241.64 332.305 234.304 333.31 233.84 334.061C233.437 334.713 233.216 335.355 233.349 335.488C234.061 336.199 277.512 338.691 278.144 338.057C279.801 336.393 294.475 312.742 293.784 312.848C293.627 312.872 288.935 316.684 283.356 321.32ZM309.784 314.402C311.384 317.392 323.996 337.195 324.839 338.041C325.243 338.447 335.232 337.892 347.036 336.808C358.841 335.723 368.926 334.829 369.449 334.82C370.041 334.81 370.037 334.442 369.437 333.842C368.909 333.314 359.773 332.176 349.136 331.315L329.795 329.749L319.258 321.083C313.463 316.316 309.199 313.309 309.784 314.402ZM40.034 337.054C40.054 337.742 40.713 339.429 41.499 340.804C43.828 344.878 43.253 346.533 38.333 349.918L33.667 353.128L54.083 363.413C65.312 369.069 74.868 373.721 75.32 373.751C75.771 373.78 68.178 365.254 58.447 354.804C48.715 344.354 40.584 335.804 40.376 335.804C40.169 335.804 40.015 336.367 40.034 337.054ZM545.551 354.804C535.82 365.254 528.112 373.804 528.422 373.804C529.665 373.804 569.999 353.279 569.999 352.647C569.999 352.273 568.341 350.918 566.315 349.636C564.289 348.353 562.247 347.042 561.778 346.722C561.309 346.402 561.842 344.003 562.962 341.389C564.083 338.776 564.999 336.45 564.999 336.221C564.999 334.399 560.953 338.265 545.551 354.804ZM287.206 469.141L202.913 533.304L203.409 537.304C203.682 539.504 205.05 544.802 206.449 549.077C218.568 586.098 249.663 619.37 297.603 646.614C311.236 654.361 314.953 655.753 323.654 656.368L331.499 656.924L321.499 651.613C310.014 645.514 301.364 639.789 291.749 631.926C282.285 624.186 282.656 624.161 294.999 631.712C296.374 632.553 294.222 629.751 290.217 625.486C269.569 603.497 250.452 570.736 237.366 534.918C235.48 529.756 234.063 525.435 234.218 525.314C234.373 525.194 264.424 504.756 300.999 479.897C354.868 443.283 367.594 434.215 367.999 432.159C368.458 429.831 371.538 432.443 405.294 463.784C431.641 488.248 441.954 498.424 441.615 499.626C441.354 500.549 439.725 506.395 437.994 512.617C428.154 547.995 409.423 587.077 389.668 613.446C360.315 652.629 328.954 674.009 287.603 683.03C273.034 686.208 241.753 686.206 224.883 683.025C193.734 677.153 156.794 662.527 125.312 643.602C117.362 638.823 116.468 637.981 116.182 635.003C115.638 629.343 122.531 623.891 134.974 620.139C135.874 619.868 134.312 618.526 130.974 616.703C124.101 612.948 118.351 607.401 116.959 603.181C113.286 592.053 128.604 577.826 157.255 565.757C165.37 562.338 168.233 560.622 169.579 558.367L171.333 555.43L168.416 557.493C162.824 561.448 146.716 568.954 136.643 572.299C118.463 578.335 113.735 579.019 87.038 579.475C73.584 579.705 62.411 580.059 62.209 580.261C61.649 580.82 77.957 601.857 89.057 614.895C100.465 628.294 120.781 648.273 133.022 658.13C161.186 680.808 193.16 696.84 222.352 702.922C236.467 705.863 277.136 706.75 290.679 704.412C339.024 696.07 381.946 659.97 418.057 597.283C427.092 581.6 439.768 554.965 447.317 535.804C453.674 519.669 463.631 490.007 462.878 489.447C462.67 489.292 443.374 471.462 419.999 449.824C396.624 428.186 376.149 409.243 374.499 407.73L371.499 404.978L287.206 469.141ZM185.999 442.857C163.174 462.135 143.958 478.447 143.296 479.106C142.359 480.039 142.726 482.737 144.955 491.304L147.818 502.304L147.966 496.304C148.296 482.974 145.227 486.523 189.315 448.475L229.13 414.113L236.815 414.573C241.041 414.827 244.861 415.366 245.303 415.773C245.745 416.179 229.657 431.262 209.553 449.29C189.448 467.318 172.999 482.248 172.999 482.468C172.999 482.687 178.062 478.867 184.249 473.978C216.036 448.862 249.526 422.808 249.983 422.839C250.267 422.858 253.649 427.002 257.499 432.046C267.984 445.785 269.919 447.804 272.603 447.804C274.962 447.804 275.944 446.288 274.006 445.637C273.459 445.454 267.667 436.979 261.135 426.804L249.258 408.304L238.378 408.055L227.499 407.806L185.999 442.857ZM462.652 551.383L459.95 557.962L463.657 564.133C475.631 584.067 490.057 597.312 504.079 601.246C509.158 602.671 512.321 602.871 520.926 602.309C531.02 601.649 531.613 601.72 533.509 603.818C535.013 605.481 535.491 607.402 535.468 611.685C535.408 622.46 526.036 637.976 511.098 652.029C479.508 681.747 430.188 698.979 373.999 699.931C365.5 700.075 365.501 700.075 378.999 701.358C449.395 708.047 506.616 690.179 535.327 652.542C545.392 639.349 552.561 623.843 556.014 607.804C558.24 597.462 559.381 584.752 558.235 583.065C557.576 582.093 555.519 582.067 548.706 582.947C538.618 584.249 526.316 583.053 515.3 579.7C498.895 574.707 479.335 561.266 469.244 548.054C467.879 546.266 466.445 544.804 466.058 544.804C465.671 544.804 464.138 547.765 462.652 551.383ZM227.702 603.304C232.764 609.48 245.959 622.219 251.999 626.762C254.474 628.624 255.824 629.483 254.999 628.672C237.852 611.813 224.52 599.422 227.702 603.304ZM304.664 638.481C309.201 642.529 320.408 649.041 328.17 652.14C339.354 656.607 338.143 655.105 324.999 648.211C318.124 644.606 310.024 640.306 306.999 638.656L301.499 635.657L304.664 638.481Z" fill="#CCC7BE"/>
<defs>
<linearGradient id="paint0_linear_215_197" x1="333.5" y1="823" x2="333.5" y2="983" gradientUnits="userSpaceOnUse">
<stop stop-color="#FDFDFD"/>
<stop offset="1" stop-color="#F1F1F1"/>
</linearGradient>
<linearGradient id="paint1_linear_215_197" x1="301.486" y1="0" x2="301.486" y2="795" gradientUnits="userSpaceOnUse">
<stop stop-color="#9D97F2"/>
<stop offset="0.369792" stop-color="#77CAF1"/>
<stop offset="0.729167" stop-color="#8CA4EC"/>
<stop offset="1" stop-color="#67F1F7"/>
</linearGradient>
<linearGradient id="paint2_linear_215_197" x1="302.775" y1="255.012" x2="302.775" y2="705.837" gradientUnits="userSpaceOnUse">
<stop stop-color="#F9F6F0"/>
<stop offset="1" stop-color="#EFEFEF"/>
</linearGradient>
<linearGradient id="paint3_linear_215_197" x1="315.715" y1="58" x2="315.715" y2="429.799" gradientUnits="userSpaceOnUse">
<stop stop-color="#F9F6F0"/>
<stop offset="0.623127" stop-color="#F9F6F0"/>
<stop offset="1" stop-color="#63737E"/>
</linearGradient>
<linearGradient id="paint4_linear_215_197" x1="316" y1="64" x2="316" y2="428" gradientUnits="userSpaceOnUse">
<stop offset="0.364583" stop-color="#CCC7BE"/>
<stop offset="1" stop-color="#727F89"/>
</linearGradient>
</defs>
</svg>
