<svg width="921" height="232" viewBox="0 0 921 232" fill="none" xmlns="http://www.w3.org/2000/svg">
<path fill-rule="evenodd" clip-rule="evenodd" d="M623.972 1.15423C623.972 1.78905 622.049 2.30846 619.698 2.30846C617.348 2.30846 615.425 2.82786 615.425 3.46269C615.425 4.09751 613.982 4.61692 612.219 4.61692C610.456 4.61692 609.014 5.13632 609.014 5.77114C609.014 6.40597 607.572 6.92537 605.809 6.92537C604.046 6.92537 602.603 7.44478 602.603 8.0796C602.603 8.71443 601.161 9.23383 599.398 9.23383C597.635 9.23383 596.193 9.75323 596.193 10.3881C596.193 11.0229 595.144 11.5423 593.864 11.5423C587.592 11.5423 576.961 19.1394 576.961 23.6236C576.961 24.6232 576.031 25.393 574.824 25.393C573.043 25.393 572.687 24.6232 572.687 20.7761C572.687 18.2368 572.206 16.1592 571.618 16.1592C571.031 16.1592 570.55 15.3801 570.55 14.4279C570.55 13.4756 570.069 12.6965 569.481 12.6965C568.894 12.6965 568.413 12.1402 568.413 11.4603C568.413 9.6205 565.6 6.92537 563.681 6.92537C562.758 6.92537 562.002 6.40597 562.002 5.77114C562.002 5.13632 561.041 4.61692 559.865 4.61692C558.69 4.61692 557.729 4.09751 557.729 3.46269C557.729 2.72629 548.825 2.30846 533.154 2.30846C517.483 2.30846 508.58 2.72629 508.58 3.46269C508.58 4.09751 506.657 4.61692 504.306 4.61692C501.956 4.61692 500.032 5.13632 500.032 5.77114C500.032 6.40597 499.29 6.92537 498.382 6.92537C496.523 6.92537 491.485 11.9451 491.485 13.7988C491.485 14.4625 491.004 15.005 490.416 15.005C489.829 15.005 489.348 15.5613 489.348 16.2412C489.348 17.5397 486.734 20.7761 485.684 20.7761C485.349 20.7761 485.074 19.9855 485.074 19.0194C485.074 18.0533 482.441 14.4175 479.221 10.9398C474.345 5.67303 472.739 4.61692 469.605 4.61692C467.536 4.61692 465.842 4.09751 465.842 3.46269C465.842 2.72513 456.582 2.30846 440.2 2.30846C423.817 2.30846 414.557 2.72513 414.557 3.46269C414.557 4.09751 412.863 4.61692 410.794 4.61692C407.66 4.61692 406.054 5.67303 401.178 10.9398C397.959 14.4175 395.325 18.0533 395.325 19.0194C395.325 19.9855 394.844 20.7761 394.256 20.7761C393.669 20.7761 393.188 21.8149 393.188 23.0846C393.188 24.3542 392.707 25.393 392.119 25.393C391.532 25.393 391.051 26.4318 391.051 27.7015C391.051 28.9711 390.57 30.0099 389.983 30.0099C389.395 30.0099 388.914 31.0488 388.914 32.3184C388.914 33.5881 388.433 34.6269 387.846 34.6269C387.258 34.6269 386.777 35.6657 386.777 36.9353C386.777 38.205 386.296 39.2438 385.709 39.2438C385.121 39.2438 384.64 40.0229 384.64 40.9751C384.64 41.9274 384.16 42.7065 383.572 42.7065C382.984 42.7065 382.503 43.4856 382.503 44.4378C382.503 45.39 382.023 46.1692 381.435 46.1692C380.847 46.1692 380.367 47.208 380.367 48.4776C380.367 49.7473 379.886 50.7861 379.298 50.7861C378.711 50.7861 378.23 51.8249 378.23 53.0945C378.23 54.3642 377.749 55.403 377.161 55.403C376.574 55.403 376.093 56.4418 376.093 57.7114C376.093 58.9811 375.612 60.0199 375.024 60.0199C374.437 60.0199 373.956 61.0587 373.956 62.3284C373.956 63.598 373.475 64.6368 372.887 64.6368C372.3 64.6368 371.819 65.4159 371.819 66.3682C371.819 67.3204 371.338 68.0995 370.751 68.0995C370.163 68.0995 369.682 69.1383 369.682 70.408C369.682 71.6776 369.201 72.7164 368.614 72.7164C368.026 72.7164 367.545 73.4955 367.545 74.4478C367.545 75.4 367.064 76.1791 366.477 76.1791C365.889 76.1791 365.408 77.2179 365.408 78.4876C365.408 79.7572 364.928 80.796 364.34 80.796C363.752 80.796 363.271 81.8348 363.271 83.1045C363.271 84.3741 362.791 85.4129 362.203 85.4129C361.615 85.4129 361.135 86.4517 361.135 87.7214C361.135 88.991 360.654 90.0298 360.066 90.0298C359.478 90.0298 358.998 90.5862 358.998 91.266C358.998 92.5645 356.383 95.801 355.334 95.801C354.998 95.801 354.724 93.4637 354.724 90.607C354.724 87.7503 354.243 85.4129 353.655 85.4129C353.068 85.4129 352.587 84.3741 352.587 83.1045C352.587 81.8348 352.106 80.796 351.519 80.796C350.931 80.796 350.45 80.1312 350.45 79.3198C350.45 78.5072 349.489 77.0944 348.313 76.1791C347.138 75.2638 346.176 73.9653 346.176 73.2935C346.176 72.6218 345.215 71.3233 344.039 70.408C342.864 69.4927 341.903 68.1941 341.903 67.5224C341.903 66.8506 340.941 65.5521 339.766 64.6368C338.59 63.7215 337.629 62.5165 337.629 61.959C337.629 61.4027 336.186 59.4901 334.423 57.7114C332.661 55.9328 331.218 53.9059 331.218 53.2088C331.218 52.5105 330.737 51.9403 330.15 51.9403C329.562 51.9403 329.081 51.3701 329.081 50.6718C329.081 49.9746 327.639 47.9478 325.876 46.1692C324.113 44.3905 322.671 42.3637 322.671 41.6665C322.671 40.9682 322.19 40.398 321.602 40.398C321.014 40.398 320.534 39.8278 320.534 39.1295C320.534 38.4324 319.091 36.4055 317.328 34.6269C315.565 32.8482 314.123 30.8214 314.123 30.1242C314.123 29.4259 313.642 28.8557 313.055 28.8557C312.467 28.8557 311.986 28.2959 311.986 27.6115C311.986 26.9259 310.063 24.3704 307.712 21.9303C305.362 19.4903 303.439 16.9106 303.439 16.1973C303.439 14.2732 298.448 9.23383 296.542 9.23383C295.634 9.23383 294.891 8.71443 294.891 8.0796C294.891 7.44478 293.929 6.92537 292.754 6.92537C291.579 6.92537 290.617 6.40597 290.617 5.77114C290.617 5.06591 285.631 4.61692 277.796 4.61692C269.961 4.61692 264.974 4.16792 264.974 3.46269C264.974 2.72629 256.071 2.30846 240.4 2.30846C224.729 2.30846 215.826 2.72629 215.826 3.46269C215.826 4.09751 214.489 4.61692 212.857 4.61692C211.113 4.61692 209.252 5.57031 208.347 6.92537C207.5 8.19502 206.057 9.23383 205.142 9.23383C204.226 9.23383 202.783 10.2726 201.936 11.5423C201.089 12.8119 199.541 13.8507 198.495 13.8507C197.45 13.8507 196.594 14.3067 196.594 14.8653C196.594 15.4228 195.152 16.5251 193.389 17.3134C191.626 18.1018 190.183 19.2041 190.183 19.7616C190.183 20.3202 189.327 20.7761 188.283 20.7761C187.237 20.7761 185.688 21.8149 184.841 23.0846C183.994 24.3542 182.446 25.393 181.4 25.393C180.355 25.393 179.499 25.9124 179.499 26.5473C179.499 27.1821 179.018 27.7015 178.43 27.7015C177.843 27.7015 177.362 25.7381 177.362 23.3397C177.362 20.3017 176.713 18.4723 175.225 17.3134C174.05 16.3981 173.088 15.02 173.088 14.2513C173.088 13.4814 172.127 12.5222 170.951 12.1194C169.776 11.7166 168.814 10.9028 168.814 10.3107C168.814 9.71861 167.853 9.23383 166.677 9.23383C165.502 9.23383 164.541 8.71443 164.541 8.0796C164.541 7.44478 162.617 6.92537 160.267 6.92537C157.916 6.92537 155.993 6.40597 155.993 5.77114C155.993 5.04975 149.582 4.61692 138.898 4.61692C128.213 4.61692 121.803 4.18408 121.803 3.46269C121.803 2.74129 115.392 2.30846 104.708 2.30846C94.0232 2.30846 87.6125 2.74129 87.6125 3.46269C87.6125 4.09751 86.1701 4.61692 84.4072 4.61692C82.6443 4.61692 81.2019 5.13632 81.2019 5.77114C81.2019 6.40597 80.2403 6.92537 79.065 6.92537C77.8897 6.92537 76.9281 7.44478 76.9281 8.0796C76.9281 8.71443 75.9665 9.23383 74.7912 9.23383C73.6159 9.23383 72.6543 9.68975 72.6543 10.2484C72.6543 10.8059 71.2119 11.9082 69.449 12.6965C67.686 13.4849 66.2436 14.5871 66.2436 15.1446C66.2436 15.7033 65.282 16.1592 64.1067 16.1592C62.9314 16.1592 61.9698 16.6786 61.9698 17.3134C61.9698 17.9483 61.0082 18.4677 59.8329 18.4677C58.6577 18.4677 57.6961 18.9871 57.6961 19.6219C57.6961 20.2567 56.7345 20.7761 55.5592 20.7761C54.3839 20.7761 53.4223 21.2955 53.4223 21.9303C53.4223 22.5652 52.4607 23.0846 51.2854 23.0846C50.1101 23.0846 49.1485 23.5405 49.1485 24.0991C49.1485 24.6566 47.7061 25.7589 45.9432 26.5473C44.1802 27.3356 42.7378 28.4379 42.7378 28.9954C42.7378 29.554 41.7762 30.0099 40.6009 30.0099C39.4256 30.0099 38.464 30.5294 38.464 31.1642C38.464 31.799 37.5024 32.3184 36.3271 32.3184C35.1519 32.3184 34.1903 32.8378 34.1903 33.4726C34.1903 34.1075 33.4562 34.6269 32.5598 34.6269C30.4389 34.6269 21.3689 44.4251 21.3689 46.7163C21.3689 47.6847 20.8881 48.4776 20.3005 48.4776C19.7128 48.4776 19.232 50.0358 19.232 51.9403C19.232 53.8448 18.7512 55.403 18.1636 55.403C17.5759 55.403 17.0951 56.7015 17.0951 58.2886C17.0951 59.8756 16.6143 61.1741 16.0267 61.1741C15.439 61.1741 14.9582 62.4726 14.9582 64.0597C14.9582 65.6468 14.4774 66.9453 13.8898 66.9453C13.3021 66.9453 12.8213 68.2438 12.8213 69.8308C12.8213 71.4179 12.3405 72.7164 11.7529 72.7164C11.1653 72.7164 10.6845 74.0149 10.6845 75.602C10.6845 77.1891 10.2037 78.4876 9.61601 78.4876C9.02836 78.4876 8.54756 79.7861 8.54756 81.3731C8.54756 82.9602 8.06676 84.2587 7.47912 84.2587C6.89147 84.2587 6.41067 85.5572 6.41067 87.1443C6.41067 88.7313 5.92987 90.0298 5.34223 90.0298C4.75458 90.0298 4.27378 91.5881 4.27378 93.4925C4.27378 95.397 3.79298 96.9552 3.20534 96.9552C2.61769 96.9552 2.13689 98.2537 2.13689 99.8408C2.13689 101.428 1.65609 102.726 1.06845 102.726C0.434857 102.726 0 106.959 0 113.114C0 119.27 0.434857 123.502 1.06845 123.502C1.65609 123.502 2.13689 125.32 2.13689 127.542C2.13689 129.764 2.61769 131.582 3.20534 131.582C3.79298 131.582 4.27378 133.4 4.27378 135.622C4.27378 137.844 4.75458 139.662 5.34223 139.662C5.92987 139.662 6.41067 141.739 6.41067 144.279C6.41067 146.818 6.89147 148.896 7.47912 148.896C8.06676 148.896 8.54756 150.713 8.54756 152.935C8.54756 155.157 9.02836 156.975 9.61601 156.975C10.2037 156.975 10.6845 158.793 10.6845 161.015C10.6845 163.237 11.1653 165.055 11.7529 165.055C12.3405 165.055 12.8213 167.132 12.8213 169.672C12.8213 172.211 13.3021 174.289 13.8898 174.289C14.4774 174.289 14.9582 175.077 14.9582 176.042C14.9582 178.013 28.1802 192.756 29.9485 192.756C30.5746 192.756 34.4071 196.392 38.464 200.836C42.5209 205.28 46.3673 208.915 47.0116 208.915C47.6559 208.915 51.5023 212.551 55.5592 216.995C59.6161 221.439 63.6793 225.075 64.5897 225.075C65.4989 225.075 66.2436 225.594 66.2436 226.229C66.2436 226.864 67.2052 227.383 68.3805 227.383C69.5558 227.383 70.5174 227.902 70.5174 228.537C70.5174 229.172 71.9598 229.692 73.7227 229.692C75.4857 229.692 76.9281 230.211 76.9281 230.846C76.9281 231.481 78.8513 232 81.2019 232C83.5524 232 85.4756 231.481 85.4756 230.846C85.4756 230.173 89.0368 229.692 94.0232 229.692C99.0096 229.692 102.571 229.21 102.571 228.537C102.571 227.832 107.557 227.383 115.392 227.383C123.227 227.383 128.213 226.934 128.213 226.229C128.213 225.529 132.843 225.075 139.966 225.075C147.09 225.075 151.719 224.62 151.719 223.92C151.719 223.236 155.637 222.766 161.335 222.766C167.033 222.766 170.951 222.296 170.951 221.612C170.951 220.977 172.769 220.458 174.989 220.458C177.801 220.458 179.495 219.757 180.567 218.149C181.415 216.88 182.963 215.841 184.009 215.841C185.197 215.841 185.91 214.976 185.91 213.532C185.91 212.263 186.39 211.224 186.978 211.224C187.566 211.224 188.046 210.185 188.046 208.915C188.046 207.646 188.527 206.607 189.115 206.607C189.703 206.607 190.183 205.568 190.183 204.299C190.183 201.355 191.425 201.355 193.389 204.299C194.236 205.568 195.567 206.607 196.347 206.607C197.127 206.607 201.085 210.243 205.142 214.687C209.198 219.13 213.156 222.766 213.936 222.766C214.716 222.766 216.047 223.805 216.894 225.075C217.799 226.43 219.661 227.383 221.404 227.383C223.037 227.383 224.374 227.902 224.374 228.537C224.374 229.179 227.223 229.692 230.784 229.692C234.345 229.692 237.195 229.179 237.195 228.537C237.195 227.902 239.118 227.383 241.469 227.383C243.819 227.383 245.742 226.864 245.742 226.229C245.742 225.594 247.666 225.075 250.016 225.075C252.367 225.075 254.29 224.555 254.29 223.92C254.29 223.286 255.732 222.766 257.495 222.766C259.258 222.766 260.701 222.247 260.701 221.612C260.701 220.977 262.624 220.458 264.974 220.458C267.325 220.458 269.248 219.938 269.248 219.303C269.248 218.669 271.171 218.149 273.522 218.149C275.873 218.149 277.796 217.63 277.796 216.995C277.796 216.36 279.719 215.841 282.07 215.841C284.42 215.841 286.343 215.321 286.343 214.687C286.343 214.052 288.267 213.532 290.617 213.532C292.968 213.532 294.891 213.013 294.891 212.378C294.891 211.743 296.814 211.224 299.165 211.224C301.515 211.224 303.439 210.761 303.439 210.195C303.439 209.087 308.141 207.987 317.061 207.009C320.753 206.604 322.671 206.824 322.671 207.654C322.671 208.348 323.632 208.915 324.807 208.915C325.983 208.915 326.944 209.435 326.944 210.07C326.944 210.704 328.868 211.224 331.218 211.224C333.569 211.224 335.492 211.695 335.492 212.271C335.492 212.848 338.017 213.589 341.101 213.92C344.186 214.25 349.355 215.115 352.587 215.841C355.819 216.567 360.988 217.431 364.073 217.761C367.157 218.093 369.682 218.834 369.682 219.411C369.682 219.987 372.086 220.458 375.024 220.458C377.963 220.458 380.367 220.977 380.367 221.612C380.367 222.254 383.216 222.766 386.777 222.766C390.338 222.766 393.188 223.279 393.188 223.92C393.188 224.555 395.592 225.075 398.53 225.075C401.468 225.075 403.872 224.555 403.872 223.92C403.872 223.286 405.087 222.766 406.571 222.766C409.886 222.766 418.831 213.524 418.831 210.1C418.831 208.814 419.311 207.761 419.899 207.761C420.487 207.761 420.968 206.463 420.968 204.876C420.968 203.289 421.448 201.99 422.036 201.99C422.624 201.99 423.104 200.951 423.104 199.682C423.104 198.412 423.585 197.373 424.173 197.373C424.761 197.373 425.241 196.334 425.241 195.065C425.241 193.795 425.722 192.756 426.31 192.756C426.897 192.756 427.378 191.717 427.378 190.448C427.378 189.178 427.859 188.139 428.447 188.139C429.034 188.139 429.515 187.1 429.515 185.831C429.515 184.561 429.996 183.522 430.584 183.522C431.171 183.522 431.652 182.484 431.652 181.214C431.652 179.944 432.133 178.905 432.72 178.905C433.308 178.905 433.789 177.867 433.789 176.597C433.789 175.327 434.27 174.289 434.857 174.289C435.445 174.289 435.926 172.99 435.926 171.403C435.926 169.816 436.407 168.517 436.994 168.517C437.582 168.517 438.063 167.479 438.063 166.209C438.063 164.939 438.543 163.901 439.131 163.901C439.719 163.901 440.2 162.862 440.2 161.592C440.2 160.322 440.607 159.284 441.105 159.284C442.526 159.284 446.61 163.452 446.61 164.901C446.61 165.62 447.091 166.209 447.679 166.209C448.266 166.209 448.747 166.742 448.747 167.393C448.747 168.966 457.412 178.274 460.582 180.107C463.774 181.953 477.872 182.05 478.433 180.229C478.658 179.501 479.539 178.905 480.391 178.905C481.243 178.905 483.537 177.217 485.489 175.154C487.441 173.092 490.139 170.624 491.485 169.672C492.831 168.719 495.523 166.26 497.466 164.204C501.412 160.035 504.306 160.202 504.306 164.601C504.306 166.12 504.787 167.363 505.375 167.363C505.962 167.363 506.443 169.181 506.443 171.403C506.443 173.625 506.924 175.443 507.512 175.443C508.099 175.443 508.58 177.261 508.58 179.483C508.58 181.704 509.061 183.522 509.649 183.522C510.236 183.522 510.717 185.34 510.717 187.562C510.717 189.784 511.198 191.602 511.785 191.602C512.373 191.602 512.854 193.42 512.854 195.642C512.854 197.864 513.335 199.682 513.922 199.682C514.51 199.682 514.991 201.759 514.991 204.299C514.991 206.838 515.472 208.915 516.059 208.915C516.647 208.915 517.128 210.474 517.128 212.378C517.128 214.283 517.608 215.841 518.196 215.841C518.784 215.841 519.264 216.637 519.264 217.61C519.264 219.908 526.184 227.383 528.311 227.383C529.212 227.383 529.949 227.902 529.949 228.537C529.949 229.172 531.391 229.692 533.154 229.692C534.917 229.692 536.36 230.211 536.36 230.846C536.36 231.481 537.321 232 538.497 232C539.672 232 540.633 231.481 540.633 230.846C540.633 230.153 544.907 229.692 551.318 229.692C557.729 229.692 562.002 229.23 562.002 228.537C562.002 227.823 567.7 227.383 576.961 227.383C586.221 227.383 591.919 227.823 591.919 228.537C591.919 229.172 593.361 229.692 595.124 229.692C596.887 229.692 598.329 230.211 598.329 230.846C598.329 231.58 606.877 232 621.835 232C636.793 232 645.341 231.58 645.341 230.846C645.341 230.104 656.026 229.692 675.258 229.692C694.49 229.692 705.174 229.279 705.174 228.537C705.174 227.902 706.616 227.383 708.379 227.383C710.142 227.383 711.585 226.864 711.585 226.229C711.585 225.594 713.027 225.075 714.79 225.075C716.553 225.075 717.995 224.555 717.995 223.92C717.995 223.286 719.438 222.766 721.201 222.766C722.964 222.766 724.406 222.247 724.406 221.612C724.406 220.977 725.848 220.458 727.611 220.458C729.374 220.458 730.817 220.003 730.817 219.448C730.817 218.893 732.178 218.143 733.841 217.785C737.029 217.095 743.638 211.189 743.638 209.03C743.638 208.331 744.119 207.761 744.706 207.761C745.294 207.761 745.775 206.982 745.775 206.03C745.775 205.078 746.256 204.299 746.843 204.299C747.431 204.299 747.912 202.74 747.912 200.836C747.912 196.153 750.236 196.345 754.928 201.413C756.985 203.635 759.123 205.453 759.681 205.453C760.237 205.453 763.819 208.829 767.639 212.955C771.458 217.082 775.121 220.458 775.777 220.458C776.434 220.458 778.319 222.016 779.965 223.92C781.806 226.05 784.028 227.383 785.736 227.383C787.264 227.383 788.513 227.902 788.513 228.537C788.513 229.179 791.362 229.692 794.923 229.692C798.485 229.692 801.334 229.179 801.334 228.537C801.334 227.902 803.257 227.383 805.608 227.383C807.958 227.383 809.882 226.864 809.882 226.229C809.882 225.594 811.805 225.075 814.155 225.075C816.506 225.075 818.429 224.555 818.429 223.92C818.429 223.286 820.352 222.766 822.703 222.766C825.054 222.766 826.977 222.247 826.977 221.612C826.977 220.977 828.419 220.458 830.182 220.458C831.945 220.458 833.387 219.938 833.387 219.303C833.387 218.669 835.311 218.149 837.661 218.149C840.012 218.149 841.935 217.63 841.935 216.995C841.935 216.36 843.858 215.841 846.209 215.841C848.559 215.841 850.483 215.321 850.483 214.687C850.483 214.052 852.406 213.532 854.756 213.532C857.107 213.532 859.03 213.013 859.03 212.378C859.03 211.743 860.953 211.224 863.304 211.224C865.654 211.224 867.578 210.704 867.578 210.07C867.578 209.435 869.501 208.915 871.852 208.915C874.202 208.915 876.125 208.453 876.125 207.887C876.125 207.323 877.808 206.543 879.865 206.156C881.922 205.769 885.287 205.136 887.344 204.75C889.401 204.362 891.084 203.583 891.084 203.018C891.084 202.453 892.045 201.99 893.22 201.99C894.396 201.99 895.357 201.471 895.357 200.836C895.357 200.201 896.319 199.682 897.494 199.682C898.681 199.682 899.631 198.912 899.631 197.95C899.631 196.998 900.112 196.219 900.7 196.219C901.287 196.219 901.768 195.44 901.768 194.488C901.768 193.535 902.249 192.756 902.836 192.756C903.424 192.756 903.905 191.198 903.905 189.294C903.905 187.389 904.386 185.831 904.973 185.831C905.561 185.831 906.042 183.494 906.042 180.637C906.042 177.78 906.523 175.443 907.11 175.443C907.704 175.443 908.179 172.364 908.179 168.517C908.179 164.67 908.653 161.592 909.247 161.592C909.835 161.592 910.316 158.735 910.316 155.244C910.316 151.752 910.796 148.896 911.384 148.896C911.978 148.896 912.452 145.817 912.452 141.97C912.452 138.123 912.927 135.045 913.521 135.045C914.109 135.045 914.589 132.188 914.589 128.697C914.589 125.205 915.07 122.348 915.658 122.348C916.252 122.348 916.726 119.27 916.726 115.423C916.726 111.576 917.201 108.498 917.795 108.498C918.382 108.498 918.863 105.685 918.863 102.245C918.863 98.3726 919.372 95.7375 920.199 95.3197C921.267 94.7818 921.267 94.5117 920.199 93.9738C919.464 93.6033 918.863 91.2672 918.863 88.7798C918.863 86.2936 918.382 84.2587 917.795 84.2587C917.207 84.2587 916.726 83.4796 916.726 82.5274C916.726 81.5751 916.245 80.796 915.658 80.796C915.07 80.796 914.589 80.0169 914.589 79.0647C914.589 78.1124 914.109 77.3333 913.521 77.3333C912.933 77.3333 912.452 76.7631 912.452 76.0648C912.452 75.3677 911.01 73.3409 909.247 71.5622C907.484 69.7835 906.042 67.7567 906.042 67.0595C906.042 66.3612 905.561 65.791 904.973 65.791C904.386 65.791 903.905 65.2209 903.905 64.5225C903.905 63.8254 902.462 61.7986 900.7 60.0199C898.937 58.2412 897.494 56.2144 897.494 55.5172C897.494 54.8189 897.013 54.2488 896.426 54.2488C895.838 54.2488 895.357 53.6786 895.357 52.9803C895.357 52.2831 893.915 50.2563 892.152 48.4776C890.389 46.6989 888.947 44.6721 888.947 43.975C888.947 43.2767 888.466 42.7065 887.878 42.7065C887.291 42.7065 886.81 42.1467 886.81 41.4622C886.81 40.7766 884.887 38.2211 882.536 35.7811C880.185 33.3411 878.262 30.744 878.262 30.0099C878.262 29.2759 876.339 26.6788 873.988 24.2388C871.638 21.7988 869.715 19.2433 869.715 18.5577C869.715 17.8732 869.234 17.3134 868.646 17.3134C868.059 17.3134 867.578 16.7709 867.578 16.1073C867.578 14.2536 862.54 9.23383 860.681 9.23383C859.773 9.23383 859.03 8.71443 859.03 8.0796C859.03 7.44478 858.069 6.92537 856.893 6.92537C855.718 6.92537 854.756 6.40597 854.756 5.77114C854.756 5.06591 849.77 4.61692 841.935 4.61692C834.1 4.61692 829.114 4.16792 829.114 3.46269C829.114 2.72629 820.21 2.30846 804.539 2.30846C788.869 2.30846 779.965 2.72629 779.965 3.46269C779.965 4.09751 779.004 4.61692 777.828 4.61692C776.653 4.61692 775.691 5.13632 775.691 5.77114C775.691 6.40597 774.73 6.92537 773.555 6.92537C772.379 6.92537 771.418 7.44478 771.418 8.0796C771.418 8.71443 770.562 9.23383 769.517 9.23383C768.471 9.23383 766.923 10.2726 766.075 11.5423C765.228 12.8119 763.786 13.8507 762.87 13.8507C761.954 13.8507 760.512 14.8896 759.665 16.1592C758.817 17.4289 757.269 18.4677 756.223 18.4677C755.178 18.4677 754.322 18.9236 754.322 19.4822C754.322 20.0397 752.88 21.142 751.117 21.9303C749.354 22.7187 747.912 23.821 747.912 24.3785C747.912 24.9371 747.056 25.393 746.011 25.393C744.965 25.393 743.417 26.4318 742.57 27.7015C741.722 28.9711 740.28 30.0099 739.364 30.0099C738.449 30.0099 737.006 31.0488 736.159 32.3184C734.356 35.0205 730.817 35.4025 730.817 32.8955C730.817 31.9433 730.336 31.1642 729.748 31.1642C729.161 31.1642 728.68 30.3851 728.68 29.4328C728.68 28.4806 728.199 27.7015 727.611 27.7015C727.024 27.7015 726.543 26.9085 726.543 25.9401C726.543 23.649 717.473 13.8507 715.352 13.8507C714.456 13.8507 713.722 13.3313 713.722 12.6965C713.722 12.0617 711.318 11.5423 708.379 11.5423C705.441 11.5423 703.037 11.0229 703.037 10.3881C703.037 9.7036 699.119 9.23383 693.421 9.23383C687.723 9.23383 683.805 8.76406 683.805 8.0796C683.805 7.40669 680.244 6.92537 675.258 6.92537C670.271 6.92537 666.71 6.44406 666.71 5.77114C666.71 5.08669 662.792 4.61692 657.094 4.61692C651.396 4.61692 647.478 4.14714 647.478 3.46269C647.478 2.78977 643.917 2.30846 638.93 2.30846C633.944 2.30846 630.383 1.82714 630.383 1.15423C630.383 0.519403 628.94 0 627.178 0C625.415 0 623.972 0.519403 623.972 1.15423ZM120.981 102.611C124.665 104.452 130.203 107.138 133.289 108.579C136.373 110.021 138.898 111.408 138.898 111.662C138.898 113.131 134.6 115.997 122.898 122.334C113.48 127.434 109.049 129.253 107.236 128.761C105.846 128.384 104.708 127.629 104.708 127.083C104.708 126.537 103.265 125.445 101.502 124.657C98.3622 123.252 98.297 123.053 98.297 114.952V106.682L104.975 103.043C108.648 101.04 112.244 99.371 112.968 99.3329C113.691 99.2948 117.297 100.77 120.981 102.611Z" fill="#6FDFF4"/>
<path fill-rule="evenodd" clip-rule="evenodd" d="M618.946 2.2201C618.946 2.83062 617.038 3.33014 614.707 3.33014C612.375 3.33014 610.467 3.82966 610.467 4.44019C610.467 5.05072 609.036 5.55024 607.288 5.55024C605.539 5.55024 604.108 6.04976 604.108 6.66029C604.108 7.27081 602.677 7.77033 600.929 7.77033C599.18 7.77033 597.749 8.26986 597.749 8.88038C597.749 9.49091 596.318 9.99043 594.57 9.99043C592.821 9.99043 591.39 10.49 591.39 11.1005C591.39 11.711 590.35 12.2105 589.081 12.2105C582.858 12.2105 572.313 19.5169 572.313 23.8294C572.313 24.7907 571.391 25.5311 570.193 25.5311C568.427 25.5311 568.074 24.7907 568.074 21.0909C568.074 18.6488 567.597 16.6507 567.014 16.6507C566.431 16.6507 565.954 15.9014 565.954 14.9856C565.954 14.0699 565.477 13.3206 564.894 13.3206C564.311 13.3206 563.834 12.7855 563.834 12.1317C563.834 10.3623 561.044 7.77033 559.14 7.77033C558.225 7.77033 557.475 7.27081 557.475 6.66029C557.475 6.04976 556.521 5.55024 555.356 5.55024C554.19 5.55024 553.236 5.05072 553.236 4.44019C553.236 3.73198 544.404 3.33014 528.86 3.33014C513.315 3.33014 504.483 3.73198 504.483 4.44019C504.483 5.05072 502.576 5.55024 500.244 5.55024C497.912 5.55024 496.005 6.04976 496.005 6.66029C496.005 7.27081 495.268 7.77033 494.367 7.77033C492.523 7.77033 487.526 12.5979 487.526 14.3807C487.526 15.0189 487.049 15.5407 486.466 15.5407C485.883 15.5407 485.406 16.0757 485.406 16.7295C485.406 17.9783 482.813 21.0909 481.772 21.0909C481.439 21.0909 481.167 20.3305 481.167 19.4014C481.167 18.4723 478.554 14.9757 475.361 11.6311C470.524 6.56593 468.931 5.55024 465.823 5.55024C463.77 5.55024 462.09 5.05072 462.09 4.44019C462.09 3.73087 452.904 3.33014 436.654 3.33014C420.403 3.33014 411.217 3.73087 411.217 4.44019C411.217 5.05072 409.538 5.55024 407.485 5.55024C404.376 5.55024 402.783 6.56593 397.946 11.6311C394.753 14.9757 392.14 18.4723 392.14 19.4014C392.14 20.3305 391.663 21.0909 391.081 21.0909C390.498 21.0909 390.021 22.09 390.021 23.311C390.021 24.5321 389.544 25.5311 388.961 25.5311C388.378 25.5311 387.901 26.5301 387.901 27.7512C387.901 28.9722 387.424 29.9713 386.841 29.9713C386.258 29.9713 385.781 30.9703 385.781 32.1914C385.781 33.4124 385.304 34.4115 384.722 34.4115C384.139 34.4115 383.662 35.4105 383.662 36.6316C383.662 37.8526 383.185 38.8517 382.602 38.8517C382.019 38.8517 381.542 39.601 381.542 40.5167C381.542 41.4325 381.065 42.1818 380.482 42.1818C379.899 42.1818 379.422 42.9311 379.422 43.8469C379.422 44.7627 378.945 45.512 378.362 45.512C377.78 45.512 377.303 46.511 377.303 47.7321C377.303 48.9531 376.826 49.9522 376.243 49.9522C375.66 49.9522 375.183 50.9512 375.183 52.1722C375.183 53.3933 374.706 54.3923 374.123 54.3923C373.54 54.3923 373.063 55.3914 373.063 56.6124C373.063 57.8335 372.586 58.8325 372.003 58.8325C371.421 58.8325 370.944 59.8316 370.944 61.0526C370.944 62.2737 370.467 63.2727 369.884 63.2727C369.301 63.2727 368.824 64.022 368.824 64.9378C368.824 65.8536 368.347 66.6029 367.764 66.6029C367.181 66.6029 366.704 67.6019 366.704 68.823C366.704 70.044 366.227 71.0431 365.644 71.0431C365.062 71.0431 364.585 71.7923 364.585 72.7081C364.585 73.6239 364.108 74.3732 363.525 74.3732C362.942 74.3732 362.465 75.3722 362.465 76.5933C362.465 77.8144 361.988 78.8134 361.405 78.8134C360.822 78.8134 360.345 79.8124 360.345 81.0335C360.345 82.2545 359.868 83.2536 359.285 83.2536C358.702 83.2536 358.226 84.2526 358.226 85.4737C358.226 86.6947 357.749 87.6938 357.166 87.6938C356.583 87.6938 356.106 88.2288 356.106 88.8826C356.106 90.1314 353.512 93.244 352.472 93.244C352.139 93.244 351.867 90.9962 351.867 88.2488C351.867 85.5014 351.39 83.2536 350.807 83.2536C350.224 83.2536 349.747 82.2545 349.747 81.0335C349.747 79.8124 349.27 78.8134 348.687 78.8134C348.104 78.8134 347.627 78.174 347.627 77.3936C347.627 76.6122 346.673 75.2535 345.507 74.3732C344.342 73.4929 343.388 72.2441 343.388 71.5981C343.388 70.952 342.434 69.7032 341.268 68.823C340.102 67.9427 339.148 66.6939 339.148 66.0478C339.148 65.4018 338.195 64.153 337.029 63.2727C335.863 62.3925 334.909 61.2336 334.909 60.6974C334.909 60.1624 333.478 58.323 331.73 56.6124C329.981 54.9019 328.55 52.9526 328.55 52.2821C328.55 51.6106 328.073 51.0622 327.49 51.0622C326.907 51.0622 326.43 50.5138 326.43 49.8423C326.43 49.1718 325 47.2225 323.251 45.512C321.502 43.8014 320.071 41.8521 320.071 41.1817C320.071 40.5101 319.594 39.9617 319.012 39.9617C318.429 39.9617 317.952 39.4134 317.952 38.7418C317.952 38.0713 316.521 36.1221 314.772 34.4115C313.023 32.7009 311.593 30.7517 311.593 30.0812C311.593 29.4096 311.116 28.8612 310.533 28.8612C309.95 28.8612 309.473 28.3229 309.473 27.6646C309.473 27.0052 307.565 24.5476 305.234 22.201C302.902 19.8543 300.994 17.3734 300.994 16.6873C300.994 14.8369 296.044 9.99043 294.153 9.99043C293.252 9.99043 292.516 9.49091 292.516 8.88038C292.516 8.26986 291.562 7.77033 290.396 7.77033C289.23 7.77033 288.276 7.27081 288.276 6.66029C288.276 5.98205 283.33 5.55024 275.558 5.55024C267.786 5.55024 262.84 5.11843 262.84 4.44019C262.84 3.73198 254.008 3.33014 238.464 3.33014C222.919 3.33014 214.087 3.73198 214.087 4.44019C214.087 5.05072 212.762 5.55024 211.142 5.55024C209.412 5.55024 207.566 6.46714 206.669 7.77033C205.828 8.99139 204.397 9.99043 203.489 9.99043C202.581 9.99043 201.15 10.9895 200.31 12.2105C199.469 13.4316 197.933 14.4306 196.896 14.4306C195.859 14.4306 195.01 14.8691 195.01 15.4064C195.01 15.9425 193.58 17.0026 191.831 17.7608C190.082 18.5189 188.651 19.579 188.651 20.1152C188.651 20.6524 187.802 21.0909 186.766 21.0909C185.728 21.0909 184.193 22.09 183.352 23.311C182.512 24.5321 180.976 25.5311 179.938 25.5311C178.902 25.5311 178.053 26.0306 178.053 26.6411C178.053 27.2517 177.576 27.7512 176.993 27.7512C176.41 27.7512 175.933 25.863 175.933 23.5563C175.933 20.6347 175.29 18.8753 173.814 17.7608C172.648 16.8805 171.694 15.5551 171.694 14.8158C171.694 14.0754 170.74 13.153 169.574 12.7655C168.408 12.3781 167.455 11.5956 167.455 11.0261C167.455 10.4566 166.501 9.99043 165.335 9.99043C164.169 9.99043 163.215 9.49091 163.215 8.88038C163.215 8.26986 161.307 7.77033 158.976 7.77033C156.644 7.77033 154.736 7.27081 154.736 6.66029C154.736 5.96651 148.377 5.55024 137.779 5.55024C127.181 5.55024 120.822 5.13397 120.822 4.44019C120.822 3.74641 114.463 3.33014 103.864 3.33014C93.2658 3.33014 86.9068 3.74641 86.9068 4.44019C86.9068 5.05072 85.476 5.55024 83.7273 5.55024C81.9785 5.55024 80.5478 6.04976 80.5478 6.66029C80.5478 7.27081 79.5939 7.77033 78.4281 7.77033C77.2623 7.77033 76.3084 8.26986 76.3084 8.88038C76.3084 9.49091 75.3545 9.99043 74.1887 9.99043C73.0229 9.99043 72.069 10.4289 72.069 10.9662C72.069 11.5023 70.6383 12.5624 68.8895 13.3206C67.1408 14.0787 65.71 15.1388 65.71 15.675C65.71 16.2122 64.7562 16.6507 63.5903 16.6507C62.4245 16.6507 61.4707 17.1502 61.4707 17.7608C61.4707 18.3713 60.5168 18.8708 59.351 18.8708C58.1852 18.8708 57.2313 19.3703 57.2313 19.9809C57.2313 20.5914 56.2774 21.0909 55.1116 21.0909C53.9458 21.0909 52.9919 21.5904 52.9919 22.201C52.9919 22.8115 52.0381 23.311 50.8723 23.311C49.7064 23.311 48.7526 23.7495 48.7526 24.2867C48.7526 24.8229 47.3218 25.883 45.5731 26.6411C43.8243 27.3993 42.3936 28.4594 42.3936 28.9956C42.3936 29.5328 41.4397 29.9713 40.2739 29.9713C39.1081 29.9713 38.1542 30.4708 38.1542 31.0813C38.1542 31.6919 37.2003 32.1914 36.0345 32.1914C34.8687 32.1914 33.9148 32.6909 33.9148 33.3014C33.9148 33.912 33.1867 34.4115 32.2975 34.4115C30.1937 34.4115 21.1968 43.8347 21.1968 46.0381C21.1968 46.9695 20.7199 47.7321 20.1369 47.7321C19.554 47.7321 19.0771 49.2306 19.0771 51.0622C19.0771 52.8938 18.6002 54.3923 18.0173 54.3923C17.4343 54.3923 16.9574 55.6411 16.9574 57.1675C16.9574 58.6938 16.4805 59.9426 15.8976 59.9426C15.3147 59.9426 14.8377 61.1914 14.8377 62.7177C14.8377 64.244 14.3608 65.4928 13.7779 65.4928C13.195 65.4928 12.7181 66.7416 12.7181 68.2679C12.7181 69.7943 12.2411 71.0431 11.6582 71.0431C11.0753 71.0431 10.5984 72.2919 10.5984 73.8182C10.5984 75.3445 10.1215 76.5933 9.53855 76.5933C8.95564 76.5933 8.47871 77.8421 8.47871 79.3684C8.47871 80.8947 8.00178 82.1435 7.41887 82.1435C6.83596 82.1435 6.35903 83.3923 6.35903 84.9187C6.35903 86.445 5.88211 87.6938 5.29919 87.6938C4.71628 87.6938 4.23936 89.1923 4.23936 91.0239C4.23936 92.8555 3.76243 94.3541 3.17952 94.3541C2.59661 94.3541 2.11968 95.6029 2.11968 97.1292C2.11968 98.6555 1.64275 99.9043 1.05984 99.9043C0.431354 99.9043 0 103.975 0 109.895C0 115.815 0.431354 119.885 1.05984 119.885C1.64275 119.885 2.11968 121.633 2.11968 123.77C2.11968 125.907 2.59661 127.655 3.17952 127.655C3.76243 127.655 4.23936 129.404 4.23936 131.541C4.23936 133.678 4.71628 135.426 5.29919 135.426C5.88211 135.426 6.35903 137.424 6.35903 139.866C6.35903 142.308 6.83596 144.306 7.41887 144.306C8.00178 144.306 8.47871 146.055 8.47871 148.191C8.47871 150.328 8.95564 152.077 9.53855 152.077C10.1215 152.077 10.5984 153.825 10.5984 155.962C10.5984 158.099 11.0753 159.847 11.6582 159.847C12.2411 159.847 12.7181 161.845 12.7181 164.287C12.7181 166.729 13.195 168.727 13.7779 168.727C14.3608 168.727 14.8377 169.485 14.8377 170.413C14.8377 172.309 27.9533 186.488 29.7073 186.488C30.3284 186.488 34.13 189.985 38.1542 194.258C42.1784 198.532 45.9938 202.029 46.6329 202.029C47.272 202.029 51.0874 205.525 55.1116 209.799C59.1358 214.073 63.1664 217.569 64.0694 217.569C64.9713 217.569 65.71 218.069 65.71 218.679C65.71 219.29 66.6639 219.789 67.8297 219.789C68.9955 219.789 69.9494 220.289 69.9494 220.9C69.9494 221.51 71.3801 222.01 73.1289 222.01C74.8776 222.01 76.3084 222.509 76.3084 223.12C76.3084 223.73 78.2161 224.23 80.5478 224.23C82.8794 224.23 84.7871 223.73 84.7871 223.12C84.7871 222.472 88.3196 222.01 93.2658 222.01C98.2121 222.01 101.745 221.547 101.745 220.9C101.745 220.221 106.691 219.789 114.463 219.789C122.234 219.789 127.181 219.358 127.181 218.679C127.181 218.007 131.773 217.569 138.839 217.569C145.905 217.569 150.497 217.132 150.497 216.459C150.497 215.801 154.384 215.349 160.036 215.349C165.688 215.349 169.574 214.897 169.574 214.239C169.574 213.629 171.377 213.129 173.579 213.129C176.369 213.129 178.049 212.455 179.113 210.909C179.953 209.688 181.489 208.689 182.527 208.689C183.705 208.689 184.412 207.858 184.412 206.469C184.412 205.248 184.889 204.249 185.472 204.249C186.055 204.249 186.532 203.25 186.532 202.029C186.532 200.808 187.009 199.809 187.591 199.809C188.174 199.809 188.651 198.81 188.651 197.589C188.651 194.758 189.883 194.758 191.831 197.589C192.671 198.81 193.992 199.809 194.766 199.809C195.539 199.809 199.465 203.305 203.489 207.579C207.513 211.853 211.439 215.349 212.213 215.349C212.986 215.349 214.307 216.348 215.147 217.569C216.045 218.873 217.891 219.789 219.621 219.789C221.24 219.789 222.566 220.289 222.566 220.9C222.566 221.517 225.393 222.01 228.925 222.01C232.458 222.01 235.284 221.517 235.284 220.9C235.284 220.289 237.192 219.789 239.524 219.789C241.855 219.789 243.763 219.29 243.763 218.679C243.763 218.069 245.671 217.569 248.002 217.569C250.334 217.569 252.242 217.07 252.242 216.459C252.242 215.849 253.672 215.349 255.421 215.349C257.17 215.349 258.601 214.85 258.601 214.239C258.601 213.629 260.508 213.129 262.84 213.129C265.172 213.129 267.079 212.63 267.079 212.019C267.079 211.409 268.987 210.909 271.319 210.909C273.65 210.909 275.558 210.41 275.558 209.799C275.558 209.189 277.466 208.689 279.797 208.689C282.129 208.689 284.037 208.189 284.037 207.579C284.037 206.968 285.945 206.469 288.276 206.469C290.608 206.469 292.516 205.969 292.516 205.359C292.516 204.748 294.423 204.249 296.755 204.249C299.087 204.249 300.994 203.804 300.994 203.26C300.994 202.194 305.659 201.136 314.507 200.195C318.169 199.805 320.071 200.017 320.071 200.815C320.071 201.483 321.025 202.029 322.191 202.029C323.357 202.029 324.311 202.528 324.311 203.139C324.311 203.749 326.218 204.249 328.55 204.249C330.882 204.249 332.789 204.702 332.789 205.256C332.789 205.811 335.294 206.523 338.354 206.842C341.413 207.159 346.541 207.991 349.747 208.689C352.953 209.387 358.08 210.219 361.14 210.536C364.2 210.855 366.704 211.567 366.704 212.122C366.704 212.676 369.089 213.129 372.003 213.129C374.918 213.129 377.303 213.629 377.303 214.239C377.303 214.856 380.129 215.349 383.662 215.349C387.194 215.349 390.021 215.842 390.021 216.459C390.021 217.07 392.405 217.569 395.32 217.569C398.234 217.569 400.619 217.07 400.619 216.459C400.619 215.849 401.824 215.349 403.296 215.349C406.584 215.349 415.457 206.461 415.457 203.168C415.457 201.931 415.934 200.919 416.517 200.919C417.1 200.919 417.577 199.67 417.577 198.144C417.577 196.617 418.053 195.368 418.636 195.368C419.219 195.368 419.696 194.369 419.696 193.148C419.696 191.927 420.173 190.928 420.756 190.928C421.339 190.928 421.816 189.929 421.816 188.708C421.816 187.487 422.293 186.488 422.876 186.488C423.459 186.488 423.936 185.489 423.936 184.268C423.936 183.047 424.412 182.048 424.995 182.048C425.578 182.048 426.055 181.049 426.055 179.828C426.055 178.607 426.532 177.608 427.115 177.608C427.698 177.608 428.175 176.609 428.175 175.388C428.175 174.167 428.652 173.167 429.235 173.167C429.818 173.167 430.295 172.168 430.295 170.947C430.295 169.726 430.772 168.727 431.354 168.727C431.937 168.727 432.414 167.478 432.414 165.952C432.414 164.426 432.891 163.177 433.474 163.177C434.057 163.177 434.534 162.178 434.534 160.957C434.534 159.736 435.011 158.737 435.594 158.737C436.177 158.737 436.654 157.738 436.654 156.517C436.654 155.296 437.057 154.297 437.551 154.297C438.961 154.297 443.013 158.305 443.013 159.699C443.013 160.391 443.49 160.957 444.072 160.957C444.655 160.957 445.132 161.47 445.132 162.096C445.132 163.609 453.728 172.56 456.872 174.323C460.038 176.098 474.022 176.191 474.579 174.441C474.803 173.74 475.676 173.167 476.522 173.167C477.366 173.167 479.642 171.543 481.578 169.56C483.514 167.576 486.19 165.203 487.526 164.287C488.861 163.371 491.531 161.006 493.459 159.029C497.373 155.019 500.244 155.18 500.244 159.411C500.244 160.871 500.721 162.067 501.304 162.067C501.887 162.067 502.364 163.815 502.364 165.952C502.364 168.089 502.841 169.837 503.423 169.837C504.006 169.837 504.483 171.586 504.483 173.722C504.483 175.859 504.96 177.608 505.543 177.608C506.126 177.608 506.603 179.356 506.603 181.493C506.603 183.63 507.08 185.378 507.663 185.378C508.246 185.378 508.723 187.126 508.723 189.263C508.723 191.4 509.2 193.148 509.783 193.148C510.365 193.148 510.842 195.146 510.842 197.589C510.842 200.031 511.319 202.029 511.902 202.029C512.485 202.029 512.962 203.527 512.962 205.359C512.962 207.19 513.439 208.689 514.022 208.689C514.605 208.689 515.082 209.455 515.082 210.391C515.082 212.601 521.945 219.789 524.055 219.789C524.949 219.789 525.68 220.289 525.68 220.9C525.68 221.51 527.111 222.01 528.86 222.01C530.608 222.01 532.039 222.509 532.039 223.12C532.039 223.73 532.993 224.23 534.159 224.23C535.325 224.23 536.278 223.73 536.278 223.12C536.278 222.454 540.518 222.01 546.877 222.01C553.236 222.01 557.475 221.566 557.475 220.9C557.475 220.212 563.127 219.789 572.313 219.789C581.499 219.789 587.151 220.212 587.151 220.9C587.151 221.51 588.582 222.01 590.33 222.01C592.079 222.01 593.51 222.509 593.51 223.12C593.51 223.826 601.988 224.23 616.826 224.23C631.664 224.23 640.143 223.826 640.143 223.12C640.143 222.406 650.741 222.01 669.818 222.01C688.895 222.01 699.494 221.613 699.494 220.9C699.494 220.289 700.924 219.789 702.673 219.789C704.422 219.789 705.853 219.29 705.853 218.679C705.853 218.069 707.283 217.569 709.032 217.569C710.781 217.569 712.212 217.07 712.212 216.459C712.212 215.849 713.643 215.349 715.391 215.349C717.14 215.349 718.571 214.85 718.571 214.239C718.571 213.629 720.002 213.129 721.75 213.129C723.499 213.129 724.93 212.692 724.93 212.158C724.93 211.624 726.28 210.904 727.93 210.558C731.092 209.896 737.648 204.215 737.648 202.139C737.648 201.467 738.125 200.919 738.708 200.919C739.291 200.919 739.768 200.169 739.768 199.254C739.768 198.338 740.244 197.589 740.827 197.589C741.41 197.589 741.887 196.09 741.887 194.258C741.887 189.755 744.192 189.939 748.847 194.813C750.887 196.95 753.008 198.699 753.561 198.699C754.114 198.699 757.666 201.945 761.455 205.914C765.244 209.882 768.877 213.129 769.528 213.129C770.18 213.129 772.049 214.628 773.682 216.459C775.508 218.507 777.713 219.789 779.407 219.789C780.922 219.789 782.161 220.289 782.161 220.9C782.161 221.517 784.988 222.01 788.52 222.01C792.053 222.01 794.879 221.517 794.879 220.9C794.879 220.289 796.787 219.789 799.119 219.789C801.45 219.789 803.358 219.29 803.358 218.679C803.358 218.069 805.266 217.569 807.597 217.569C809.929 217.569 811.837 217.07 811.837 216.459C811.837 215.849 813.744 215.349 816.076 215.349C818.408 215.349 820.315 214.85 820.315 214.239C820.315 213.629 821.746 213.129 823.495 213.129C825.244 213.129 826.674 212.63 826.674 212.019C826.674 211.409 828.582 210.909 830.914 210.909C833.245 210.909 835.153 210.41 835.153 209.799C835.153 209.189 837.061 208.689 839.392 208.689C841.724 208.689 843.632 208.189 843.632 207.579C843.632 206.968 845.539 206.469 847.871 206.469C850.203 206.469 852.11 205.969 852.11 205.359C852.11 204.748 854.018 204.249 856.35 204.249C858.681 204.249 860.589 203.749 860.589 203.139C860.589 202.528 862.497 202.029 864.829 202.029C867.16 202.029 869.068 201.584 869.068 201.04C869.068 200.497 870.737 199.748 872.777 199.375C874.818 199.003 878.156 198.394 880.196 198.023C882.236 197.65 883.906 196.9 883.906 196.357C883.906 195.814 884.859 195.368 886.025 195.368C887.191 195.368 888.145 194.869 888.145 194.258C888.145 193.648 889.099 193.148 890.265 193.148C891.442 193.148 892.384 192.408 892.384 191.483C892.384 190.567 892.861 189.818 893.444 189.818C894.027 189.818 894.504 189.069 894.504 188.153C894.504 187.237 894.981 186.488 895.564 186.488C896.147 186.488 896.624 184.989 896.624 183.158C896.624 181.326 897.101 179.828 897.684 179.828C898.266 179.828 898.743 177.58 898.743 174.833C898.743 172.085 899.22 169.837 899.803 169.837C900.392 169.837 900.863 166.877 900.863 163.177C900.863 159.477 901.334 156.517 901.923 156.517C902.506 156.517 902.983 153.769 902.983 150.411C902.983 147.054 903.46 144.306 904.043 144.306C904.632 144.306 905.102 141.346 905.102 137.646C905.102 133.946 905.573 130.986 906.162 130.986C906.745 130.986 907.222 128.238 907.222 124.88C907.222 121.522 907.699 118.775 908.282 118.775C908.871 118.775 909.342 115.815 909.342 112.115C909.342 108.415 909.812 105.455 910.402 105.455C910.985 105.455 911.461 102.749 911.461 99.4414C911.461 95.7172 911.966 93.183 912.786 92.7811C913.846 92.2638 913.846 92.0041 912.786 91.4868C912.057 91.1305 911.461 88.8837 911.461 86.4916C911.461 84.1006 910.985 82.1435 910.402 82.1435C909.819 82.1435 909.342 81.3943 909.342 80.4785C909.342 79.5627 908.865 78.8134 908.282 78.8134C907.699 78.8134 907.222 78.0641 907.222 77.1483C907.222 76.2325 906.745 75.4833 906.162 75.4833C905.579 75.4833 905.102 74.9349 905.102 74.2633C905.102 73.5928 903.672 71.6436 901.923 69.933C900.174 68.2224 898.743 66.2732 898.743 65.6027C898.743 64.9311 898.266 64.3828 897.684 64.3828C897.101 64.3828 896.624 63.8344 896.624 63.1628C896.624 62.4924 895.193 60.5431 893.444 58.8325C891.695 57.122 890.265 55.1727 890.265 54.5022C890.265 53.8307 889.788 53.2823 889.205 53.2823C888.622 53.2823 888.145 52.7339 888.145 52.0624C888.145 51.3919 886.714 49.4426 884.965 47.7321C883.217 46.0215 881.786 44.0722 881.786 43.4018C881.786 42.7302 881.309 42.1818 880.726 42.1818C880.143 42.1818 879.666 41.6434 879.666 40.9852C879.666 40.3258 877.759 37.8682 875.427 35.5215C873.095 33.1749 871.188 30.6773 871.188 29.9713C871.188 29.2653 869.28 26.7677 866.948 24.4211C864.617 22.0744 862.709 19.6168 862.709 18.9574C862.709 18.2991 862.232 17.7608 861.649 17.7608C861.066 17.7608 860.589 17.239 860.589 16.6008C860.589 14.818 855.592 9.99043 853.748 9.99043C852.847 9.99043 852.11 9.49091 852.11 8.88038C852.11 8.26986 851.157 7.77033 849.991 7.77033C848.825 7.77033 847.871 7.27081 847.871 6.66029C847.871 5.98205 842.925 5.55024 835.153 5.55024C827.381 5.55024 822.435 5.11843 822.435 4.44019C822.435 3.73198 813.603 3.33014 798.059 3.33014C782.514 3.33014 773.682 3.73198 773.682 4.44019C773.682 5.05072 772.729 5.55024 771.563 5.55024C770.397 5.55024 769.443 6.04976 769.443 6.66029C769.443 7.27081 768.489 7.77033 767.323 7.77033C766.158 7.77033 765.204 8.26986 765.204 8.88038C765.204 9.49091 764.355 9.99043 763.318 9.99043C762.281 9.99043 760.745 10.9895 759.904 12.2105C759.064 13.4316 757.633 14.4306 756.725 14.4306C755.817 14.4306 754.386 15.4297 753.545 16.6507C752.705 17.8718 751.169 18.8708 750.132 18.8708C749.095 18.8708 748.246 19.3093 748.246 19.8465C748.246 20.3827 746.815 21.4428 745.067 22.201C743.318 22.9591 741.887 24.0192 741.887 24.5554C741.887 25.0926 741.038 25.5311 740.002 25.5311C738.964 25.5311 737.428 26.5301 736.588 27.7512C735.748 28.9722 734.317 29.9713 733.409 29.9713C732.5 29.9713 731.069 30.9703 730.229 32.1914C728.441 34.79 724.93 35.1574 724.93 32.7464C724.93 31.8306 724.453 31.0813 723.87 31.0813C723.287 31.0813 722.81 30.3321 722.81 29.4163C722.81 28.5005 722.333 27.7512 721.75 27.7512C721.167 27.7512 720.69 26.9886 720.69 26.0573C720.69 23.8538 711.693 14.4306 709.59 14.4306C708.7 14.4306 707.972 13.9311 707.972 13.3206C707.972 12.71 705.588 12.2105 702.673 12.2105C699.759 12.2105 697.374 11.711 697.374 11.1005C697.374 10.4422 693.488 9.99043 687.835 9.99043C682.183 9.99043 678.297 9.53864 678.297 8.88038C678.297 8.23322 674.764 7.77033 669.818 7.77033C664.872 7.77033 661.339 7.30744 661.339 6.66029C661.339 6.00203 657.453 5.55024 651.801 5.55024C646.149 5.55024 642.262 5.09845 642.262 4.44019C642.262 3.79303 638.73 3.33014 633.784 3.33014C628.837 3.33014 625.305 2.86725 625.305 2.2201C625.305 1.60957 623.874 1.11005 622.125 1.11005C620.377 1.11005 618.946 1.60957 618.946 2.2201ZM120.007 99.7933C123.661 101.564 129.154 104.147 132.215 105.533C135.275 106.92 137.779 108.254 137.779 108.498C137.779 109.91 133.515 112.667 121.908 118.762C112.565 123.666 108.17 125.415 106.372 124.943C104.993 124.58 103.864 123.854 103.864 123.329C103.864 122.803 102.433 121.753 100.685 120.995C97.5698 119.644 97.5052 119.453 97.5052 111.662V103.708L104.129 100.208C107.773 98.2825 111.34 96.6774 112.058 96.6408C112.775 96.6041 116.352 98.0228 120.007 99.7933Z" fill="black"/>
<path fill-rule="evenodd" clip-rule="evenodd" d="M68.1943 38.6195L41.6093 53.8083L21.1968 108.936L27.6035 133.906C31.1275 147.641 34.0102 159.065 34.0102 159.296C34.0102 159.527 44.0904 169.004 56.4099 180.355L78.8086 200.995L85.8205 200.284C89.6761 199.892 110.001 197.986 130.985 196.048C167.517 192.674 169.125 192.431 168.787 190.324C168.298 187.285 154.934 129.638 154.298 127.829C153.934 126.795 146.993 130.031 130.726 138.812L107.669 151.262L92.4879 140.43C84.1374 134.473 77.1139 129.03 76.8786 128.335C76.6444 127.64 76.798 118.364 77.223 107.723L77.9935 88.3741L113.751 70.9574L134.027 80.8646C145.178 86.3138 154.381 90.6963 154.479 90.6053C154.877 90.2312 157.191 28.7135 156.821 28.3338C156.602 28.1063 144.737 27.1316 130.456 26.1659C116.174 25.2002 102.304 24.1889 99.6344 23.9203C95.0432 23.4574 93.3284 24.26 68.1943 38.6195ZM606.853 27.9131C599.275 30.3919 592.698 32.7829 592.236 33.2258C591.775 33.6687 592.37 68.6785 593.561 111.026C594.751 153.372 595.725 190.964 595.725 194.562V201.106L695.88 199.554L708.068 195.12C714.771 192.68 720.684 190.26 721.208 189.739C721.731 189.22 724.898 181.953 728.245 173.592L734.332 158.389L732.739 153.493C731.862 150.8 731.319 148.428 731.531 148.22C731.741 148.014 744.553 159.527 760 173.806C775.447 188.085 788.76 199.771 789.584 199.774C790.731 199.778 877.415 176.536 878.384 175.965C878.5 175.896 881.757 156.875 885.622 133.695C891.202 100.227 892.397 91.127 891.427 89.4941C890.756 88.363 879.713 73.7903 866.887 57.1085C845.172 28.8666 843.298 26.7387 839.672 26.1914C837.53 25.8673 823.378 25.3045 808.223 24.9404L780.667 24.2777L727.727 59.6172L723.461 89.6462C721.115 106.163 718.876 120.01 718.485 120.419C717.939 120.987 709.931 116.945 707.107 114.674C706.87 114.484 709.299 110.2 712.505 105.154L718.334 95.979L719.854 63.2337L701.604 32.5875L663.237 27.902C642.135 25.3256 623.917 23.2598 622.751 23.312C621.585 23.3641 614.431 25.4344 606.853 27.9131ZM195.636 41.0772C181.646 50.3527 169.643 58.5105 168.963 59.2054C168.033 60.1533 158.816 119.798 157.661 132.34C157.461 134.491 227.227 199.78 229.724 199.78C231.918 199.78 317.409 176.358 318.247 175.527C318.648 175.129 322.107 155.911 325.934 132.818L332.892 90.8328L283.795 26.772L278.929 26.1748C276.253 25.8462 262.141 25.2701 247.568 24.8949L221.072 24.2122L195.636 41.0772ZM507.228 25.4721C506.062 25.9883 499.147 36.6814 491.861 49.2349C484.574 61.7873 478.374 72.0708 478.083 72.0853C477.791 72.1008 475.941 67.2454 473.972 61.2956C472.001 55.3457 468.494 44.8591 466.176 37.9901L461.965 25.5021H413.818L373.359 103.954C351.107 147.101 333.015 182.516 333.157 182.653C334.121 183.582 396.054 195.113 396.658 194.476C397.078 194.035 405.832 174.942 416.113 152.048C426.394 129.153 434.908 110.314 435.033 110.183C435.206 110.002 452.81 134.321 465.983 152.938C466.923 154.267 470.796 151.115 487.373 135.543C498.508 125.083 508.04 116.526 508.558 116.526C509.918 116.526 522.607 155.787 529.007 179.799C532.018 191.093 534.549 200.417 534.633 200.517C534.999 200.955 593.899 195.402 594.396 194.881C594.701 194.561 584.549 156.07 571.836 109.346L548.722 24.392L529.034 24.462C518.207 24.5008 508.394 24.9548 507.228 25.4721ZM658.785 63.6611L669.384 66.192V85.8276L660.375 87.8313C655.42 88.9336 650.293 90.1058 648.982 90.4366C646.598 91.0371 646.597 91.0304 646.597 76.0304C646.597 67.7772 646.954 61.048 647.392 61.0769C647.83 61.1069 652.956 62.2691 658.785 63.6611ZM249.006 89.5485C264.462 93.1295 263.995 92.5357 263.995 108.652V119.505L243.337 127.56L233.529 120.786C228.135 117.061 223.714 113.704 223.704 113.327C223.672 111.97 234.641 86.5547 235.268 86.5347C235.621 86.5236 241.802 87.8801 249.006 89.5485ZM808.752 89.4797C816.039 91.1115 822.324 92.7443 822.72 93.1084C823.115 93.4725 823.563 99.5145 823.714 106.536L823.989 119.301L803.221 127.52L793.534 120.75C788.205 117.026 783.668 113.824 783.451 113.635C782.945 113.197 794.267 86.578 794.975 86.5403C795.266 86.5248 801.466 87.8479 808.752 89.4797ZM662.415 139.414L673.093 143.43V159.447L662.23 161.864C656.254 163.192 651.009 164.275 650.572 164.269C650.134 164.262 649.777 157.764 649.777 149.827C649.777 141.726 650.207 135.397 650.757 135.397C651.296 135.397 656.543 137.204 662.415 139.414Z" fill="url(#paint0_linear_215_184)"/>
<path fill-rule="evenodd" clip-rule="evenodd" d="M68.1434 38.5562L41.6061 53.7328L21.1968 108.86L27.6035 133.831C31.1275 147.565 34.0102 158.986 34.0102 159.213C34.0102 159.439 44.1052 168.945 56.4438 180.337L78.8774 201.051L83.7347 200.43C86.4065 200.088 106.238 198.245 127.806 196.335C149.374 194.426 167.573 192.686 168.249 192.471C169.122 192.193 168.719 188.912 166.866 181.184C162.151 161.528 162.302 161.962 160.199 161.962C159.116 161.962 141.93 167.224 122.009 173.656L85.7887 185.349L74.4728 175.703C68.2483 170.397 59.2217 162.762 54.4132 158.736L45.6706 151.417L42.9447 141.982C33.3754 108.866 34.1745 110.947 30.287 109.004C25.4679 106.598 26.5585 105.35 33.4803 105.35C36.893 105.35 39.5182 104.793 40.0163 103.962C40.4731 103.2 44.9393 93.5935 49.9396 82.6151L59.032 62.6565L99.1903 44.6126V34.8698C99.1903 20.4225 100.022 20.3237 68.1434 38.5562ZM195.059 41.469C180.803 50.9122 168.775 59.283 168.33 60.0712C167.884 60.8582 165.197 77.7376 162.358 97.5797C156.057 141.621 155.316 138.63 171.991 136.516C178 135.753 183.06 134.983 183.233 134.803C183.406 134.623 184.837 120.591 186.413 103.621L189.277 72.7646L204.848 66.0244C213.412 62.3168 220.72 58.9556 221.087 58.556C221.453 58.1563 222.215 50.9521 222.781 42.5457C223.612 30.1776 223.539 26.9795 222.393 25.7807C221.214 24.5441 216.676 27.1494 195.059 41.469ZM413.433 26.5777C413.433 27.8953 429.896 49.9642 430.898 49.9897C431.261 49.9997 438.524 44.8513 447.04 38.5496L462.521 27.0916L457.849 26.3413C450.027 25.0858 413.433 25.28 413.433 26.5777ZM840.47 30.3152L836.744 32.9671L833.057 74.5484L840.513 83.0114C844.613 87.6658 851.074 95.0343 854.869 99.3857L861.77 107.296L859.044 138.237C857.544 155.254 856.164 169.688 855.977 170.313C855.788 170.942 844.57 172.628 830.869 174.088C817.248 175.537 805.149 177.1 803.983 177.559C802.568 178.115 800.68 181.585 798.302 188.001C796.344 193.286 794.931 197.808 795.162 198.051C795.472 198.374 877.073 176.642 878.384 175.887C878.5 175.819 881.757 156.8 885.622 133.62C891.347 99.2781 892.413 91.0781 891.378 89.3354C890.229 87.3994 848.215 32.32 845.387 29.042C844.451 27.9575 843.401 28.2294 840.47 30.3152ZM278.734 40.1347C274.41 45.1721 270.244 50.1374 269.476 51.1697C268.245 52.8237 270.417 55.9607 287.764 77.591C299.066 91.6842 307.449 103.09 307.449 104.377C307.449 106.302 296.9 166.635 296.475 167.142C296.39 167.243 284.435 169.118 269.909 171.308C255.384 173.498 243.318 175.48 243.096 175.712C242.433 176.406 234.487 198.594 234.902 198.594C236.419 198.594 317.673 176.045 318.241 175.465C318.64 175.06 322.107 155.842 325.949 132.758L332.933 90.7884L309.99 60.8826C297.371 44.435 286.945 30.9768 286.821 30.9768C286.697 30.9768 283.059 35.0984 278.734 40.1347ZM650.836 58.617C650.836 61.7329 651.098 61.8939 659.05 63.6777C663.568 64.6912 667.879 65.7324 668.63 65.9911C669.639 66.3385 669.917 68.9937 669.69 76.128L669.384 85.7943L649.998 90.0413L649.553 102.969C649.308 110.079 649.249 116.094 649.423 116.337C649.595 116.58 657.735 114.582 667.509 111.897L685.281 107.015L690.994 83.3966C694.135 70.4068 696.486 59.5483 696.219 59.2675C695.621 58.6414 661.58 55.4301 655.341 55.4112C651.074 55.399 650.836 55.5677 650.836 58.617ZM406.014 131.59C391.732 155.754 380.048 176.277 380.048 177.195C380.048 178.114 382.432 182.273 385.347 186.438C390.367 193.613 394.554 196.617 396.572 194.492C397.038 194.001 405.832 174.867 416.113 151.972C426.394 129.077 434.909 110.238 435.034 110.105C435.16 109.974 442.361 119.81 451.036 131.961C465.12 151.691 467.028 153.932 468.862 152.903C469.993 152.271 471.155 150.802 471.444 149.642C471.734 148.481 472.542 147.532 473.24 147.532C473.938 147.532 481.961 140.539 491.069 131.991C500.177 123.444 508.05 116.45 508.565 116.45C509.729 116.45 522.388 154.756 526.906 171.953C528.751 178.974 531.88 188.09 533.86 192.211L537.46 199.704H543.621C548.691 199.704 550.191 199.249 552.087 197.135C553.355 195.722 554.391 193.849 554.391 192.973C554.392 191.604 512.405 88.9957 511.298 87.6603C511.078 87.395 503.223 92.64 493.845 99.3158C484.465 105.993 476.354 111.743 475.82 112.094C475.286 112.444 474.15 118.643 473.293 125.869C472.438 133.095 471.546 139.208 471.311 139.454C471.077 139.699 470.538 133.603 470.115 125.908L469.344 111.916L466.029 109.323C460.941 105.342 433.765 87.5848 432.817 87.6226C432.357 87.6403 420.295 107.426 406.014 131.59ZM153.863 131.068C153.813 133.308 153.483 135.93 153.129 136.895C152.667 138.157 153.119 138.651 154.739 138.651C157.098 138.651 157.099 137.949 154.751 129.771C154.048 127.319 153.944 127.471 153.863 131.068ZM716.109 147.809L714.283 161.325L700.661 177.267L683.433 178.048C673.957 178.478 653.327 179.405 637.589 180.108L608.973 181.388L604.505 190.269C602.048 195.153 600.02 199.564 600 200.072C599.98 200.579 621.545 200.651 647.922 200.232L695.88 199.47L708.068 195.04C714.771 192.603 720.671 190.198 721.179 189.695C722.382 188.501 733.6 160.815 733.782 158.59C733.91 157.018 720.666 136.061 718.768 134.832C718.31 134.535 717.113 140.375 716.109 147.809Z" fill="#CCC7BE"/>
<defs>
<linearGradient id="paint0_linear_215_184" x1="460.5" y1="0" x2="460.5" y2="232" gradientUnits="userSpaceOnUse">
<stop stop-color="#FDFDFD"/>
<stop offset="1" stop-color="#F1F1F1"/>
</linearGradient>
</defs>
</svg>
