<svg width="667" height="1017" viewBox="0 0 667 1017" fill="none" xmlns="http://www.w3.org/2000/svg">
<path fill-rule="evenodd" clip-rule="evenodd" d="M451.889 857.796C451.889 858.234 450.496 858.592 448.793 858.592C447.091 858.592 445.698 858.95 445.698 859.388C445.698 859.826 444.654 860.184 443.377 860.184C442.1 860.184 441.056 860.542 441.056 860.98C441.056 861.418 440.011 861.776 438.734 861.776C437.458 861.776 436.413 862.134 436.413 862.572C436.413 863.01 435.368 863.368 434.092 863.368C432.815 863.368 431.77 863.726 431.77 864.164C431.77 864.602 431.011 864.96 430.084 864.96C425.541 864.96 417.842 870.2 417.842 873.292C417.842 873.981 417.169 874.512 416.295 874.512C415.005 874.512 414.747 873.982 414.747 871.328C414.747 869.577 414.399 868.144 413.973 868.144C413.548 868.144 413.2 867.607 413.2 866.95C413.2 866.294 412.851 865.756 412.426 865.756C412 865.756 411.652 865.373 411.652 864.904C411.652 863.635 409.615 861.776 408.225 861.776C407.556 861.776 407.009 861.418 407.009 860.98C407.009 860.542 406.313 860.184 405.462 860.184C404.611 860.184 403.914 859.826 403.914 859.388C403.914 858.88 397.466 858.592 386.117 858.592C374.768 858.592 368.32 858.88 368.32 859.388C368.32 859.826 366.927 860.184 365.225 860.184C363.523 860.184 362.13 860.542 362.13 860.98C362.13 861.418 361.592 861.776 360.934 861.776C359.588 861.776 355.94 865.238 355.94 866.516C355.94 866.974 355.591 867.348 355.166 867.348C354.74 867.348 354.392 867.732 354.392 868.201C354.392 869.096 352.499 871.328 351.739 871.328C351.496 871.328 351.297 870.783 351.297 870.117C351.297 869.451 349.39 866.943 347.058 864.545C343.527 860.912 342.364 860.184 340.094 860.184C338.595 860.184 337.369 859.826 337.369 859.388C337.369 858.879 330.663 858.592 318.798 858.592C306.934 858.592 300.227 858.879 300.227 859.388C300.227 859.826 299.001 860.184 297.502 860.184C295.233 860.184 294.07 860.912 290.538 864.545C288.207 866.943 286.299 869.451 286.299 870.117C286.299 870.783 285.951 871.328 285.526 871.328C285.1 871.328 284.752 872.045 284.752 872.92C284.752 873.796 284.404 874.512 283.978 874.512C283.552 874.512 283.204 875.229 283.204 876.104C283.204 876.98 282.856 877.697 282.43 877.697C282.005 877.697 281.657 878.413 281.657 879.289C281.657 880.164 281.308 880.881 280.883 880.881C280.457 880.881 280.109 881.597 280.109 882.473C280.109 883.348 279.761 884.065 279.335 884.065C278.91 884.065 278.561 884.602 278.561 885.259C278.561 885.915 278.213 886.453 277.788 886.453C277.362 886.453 277.014 886.99 277.014 887.647C277.014 888.304 276.666 888.841 276.24 888.841C275.815 888.841 275.466 889.557 275.466 890.433C275.466 891.308 275.118 892.025 274.693 892.025C274.267 892.025 273.919 892.741 273.919 893.617C273.919 894.493 273.571 895.209 273.145 895.209C272.719 895.209 272.371 895.925 272.371 896.801C272.371 897.677 272.023 898.393 271.597 898.393C271.172 898.393 270.824 899.109 270.824 899.985C270.824 900.861 270.475 901.577 270.05 901.577C269.624 901.577 269.276 902.114 269.276 902.771C269.276 903.428 268.928 903.965 268.502 903.965C268.077 903.965 267.729 904.682 267.729 905.557C267.729 906.433 267.38 907.149 266.955 907.149C266.529 907.149 266.181 907.687 266.181 908.343C266.181 909 265.833 909.537 265.407 909.537C264.982 909.537 264.633 910.254 264.633 911.129C264.633 912.005 264.285 912.721 263.86 912.721C263.434 912.721 263.086 913.438 263.086 914.313C263.086 915.189 262.738 915.905 262.312 915.905C261.886 915.905 261.538 916.622 261.538 917.497C261.538 918.373 261.19 919.09 260.764 919.09C260.339 919.09 259.991 919.473 259.991 919.942C259.991 920.838 258.097 923.07 257.337 923.07C257.094 923.07 256.896 921.458 256.896 919.488C256.896 917.517 256.547 915.905 256.122 915.905C255.696 915.905 255.348 915.189 255.348 914.313C255.348 913.438 255 912.721 254.574 912.721C254.149 912.721 253.8 912.263 253.8 911.703C253.8 911.143 253.104 910.169 252.253 909.537C251.402 908.906 250.705 908.011 250.705 907.547C250.705 907.084 250.009 906.188 249.158 905.557C248.307 904.926 247.61 904.03 247.61 903.567C247.61 903.104 246.914 902.208 246.063 901.577C245.211 900.946 244.515 900.115 244.515 899.73C244.515 899.347 243.47 898.028 242.194 896.801C240.917 895.574 239.872 894.177 239.872 893.696C239.872 893.214 239.524 892.821 239.099 892.821C238.673 892.821 238.325 892.428 238.325 891.946C238.325 891.465 237.28 890.067 236.003 888.841C234.727 887.614 233.682 886.216 233.682 885.736C233.682 885.254 233.334 884.861 232.908 884.861C232.483 884.861 232.135 884.467 232.135 883.986C232.135 883.505 231.09 882.107 229.813 880.881C228.536 879.654 227.492 878.256 227.492 877.775C227.492 877.294 227.144 876.901 226.718 876.901C226.293 876.901 225.944 876.514 225.944 876.042C225.944 875.57 224.552 873.807 222.849 872.124C221.147 870.442 219.754 868.662 219.754 868.171C219.754 866.844 216.14 863.368 214.759 863.368C214.102 863.368 213.564 863.01 213.564 862.572C213.564 862.134 212.867 861.776 212.016 861.776C211.165 861.776 210.469 861.418 210.469 860.98C210.469 860.494 206.857 860.184 201.183 860.184C195.509 860.184 191.898 859.874 191.898 859.388C191.898 858.88 185.45 858.592 174.101 858.592C162.752 858.592 156.304 858.88 156.304 859.388C156.304 859.826 155.336 860.184 154.154 860.184C152.891 860.184 151.543 860.842 150.887 861.776C150.274 862.652 149.229 863.368 148.566 863.368C147.903 863.368 146.858 864.085 146.245 864.96C145.631 865.836 144.51 866.552 143.752 866.552C142.996 866.552 142.376 866.867 142.376 867.252C142.376 867.636 141.331 868.397 140.055 868.94C138.778 869.484 137.733 870.244 137.733 870.629C137.733 871.014 137.113 871.328 136.357 871.328C135.599 871.328 134.478 872.045 133.864 872.92C133.251 873.796 132.129 874.512 131.372 874.512C130.615 874.512 129.995 874.871 129.995 875.308C129.995 875.746 129.647 876.104 129.222 876.104C128.796 876.104 128.448 874.75 128.448 873.096C128.448 871.001 127.978 869.74 126.9 868.94C126.049 868.309 125.353 867.359 125.353 866.828C125.353 866.297 124.656 865.636 123.805 865.358C122.954 865.08 122.258 864.519 122.258 864.111C122.258 863.702 121.561 863.368 120.71 863.368C119.859 863.368 119.162 863.01 119.162 862.572C119.162 862.134 117.77 861.776 116.067 861.776C114.365 861.776 112.972 861.418 112.972 860.98C112.972 860.483 108.329 860.184 100.592 860.184C92.8538 860.184 88.2111 859.886 88.2111 859.388C88.2111 858.891 83.5684 858.592 75.8306 858.592C68.0928 858.592 63.4501 858.891 63.4501 859.388C63.4501 859.826 62.4055 860.184 61.1288 860.184C59.852 860.184 58.8074 860.542 58.8074 860.98C58.8074 861.418 58.111 861.776 57.2599 861.776C56.4087 861.776 55.7123 862.134 55.7123 862.572C55.7123 863.01 55.0159 863.368 54.1647 863.368C53.3136 863.368 52.6172 863.683 52.6172 864.068C52.6172 864.452 51.5726 865.213 50.2958 865.756C49.0191 866.3 47.9745 867.06 47.9745 867.445C47.9745 867.83 47.2781 868.144 46.4269 868.144C45.5758 868.144 44.8793 868.502 44.8793 868.94C44.8793 869.378 44.1829 869.736 43.3318 869.736C42.4806 869.736 41.7842 870.095 41.7842 870.532C41.7842 870.97 41.0878 871.328 40.2367 871.328C39.3855 871.328 38.6891 871.687 38.6891 872.124C38.6891 872.562 37.9927 872.92 37.1415 872.92C36.2904 872.92 35.594 873.235 35.594 873.62C35.594 874.005 34.5494 874.765 33.2726 875.308C31.9959 875.852 30.9513 876.612 30.9513 876.997C30.9513 877.382 30.2549 877.697 29.4037 877.697C28.5526 877.697 27.8561 878.055 27.8561 878.493C27.8561 878.93 27.1597 879.289 26.3086 879.289C25.4574 879.289 24.761 879.647 24.761 880.085C24.761 880.522 24.2294 880.881 23.5802 880.881C22.0443 880.881 15.4756 887.638 15.4756 889.218C15.4756 889.886 15.1274 890.433 14.7019 890.433C14.2763 890.433 13.9281 891.507 13.9281 892.821C13.9281 894.134 13.5799 895.209 13.1543 895.209C12.7287 895.209 12.3805 896.104 12.3805 897.199C12.3805 898.294 12.0323 899.189 11.6067 899.189C11.1811 899.189 10.8329 900.085 10.8329 901.179C10.8329 902.274 10.4847 903.169 10.0592 903.169C9.63358 903.169 9.28538 904.065 9.28538 905.159C9.28538 906.254 8.93718 907.149 8.5116 907.149C8.08602 907.149 7.73782 908.045 7.73782 909.139C7.73782 910.234 7.38962 911.129 6.96404 911.129C6.53846 911.129 6.19026 912.025 6.19026 913.119C6.19026 914.214 5.84205 915.109 5.41647 915.109C4.99089 915.109 4.64269 916.005 4.64269 917.099C4.64269 918.194 4.29449 919.09 3.86891 919.09C3.44333 919.09 3.09513 920.164 3.09513 921.478C3.09513 922.791 2.74693 923.866 2.32135 923.866C1.89577 923.866 1.54756 924.761 1.54756 925.856C1.54756 926.95 1.19936 927.846 0.773782 927.846C0.314929 927.846 0 930.765 0 935.01C0 939.255 0.314929 942.174 0.773782 942.174C1.19936 942.174 1.54756 943.428 1.54756 944.96C1.54756 946.493 1.89577 947.746 2.32135 947.746C2.74693 947.746 3.09513 949 3.09513 950.532C3.09513 952.065 3.44333 953.318 3.86891 953.318C4.29449 953.318 4.64269 954.751 4.64269 956.503C4.64269 958.254 4.99089 959.687 5.41647 959.687C5.84205 959.687 6.19026 960.94 6.19026 962.473C6.19026 964.005 6.53846 965.259 6.96404 965.259C7.38962 965.259 7.73782 966.512 7.73782 968.045C7.73782 969.577 8.08602 970.831 8.5116 970.831C8.93718 970.831 9.28538 972.264 9.28538 974.015C9.28538 975.766 9.63358 977.199 10.0592 977.199C10.4847 977.199 10.8329 977.743 10.8329 978.408C10.8329 979.768 20.4085 989.935 21.6891 989.935C22.1425 989.935 24.9181 992.443 27.8561 995.507C30.7942 998.572 33.5798 1001.08 34.0464 1001.08C34.513 1001.08 37.2986 1003.59 40.2367 1006.65C43.1747 1009.72 46.1174 1012.22 46.7767 1012.22C47.4352 1012.22 47.9745 1012.58 47.9745 1013.02C47.9745 1013.46 48.6709 1013.82 49.522 1013.82C50.3732 1013.82 51.0696 1014.17 51.0696 1014.61C51.0696 1015.05 52.1142 1015.41 53.391 1015.41C54.6677 1015.41 55.7123 1015.77 55.7123 1016.2C55.7123 1016.64 57.1051 1017 58.8074 1017C60.5097 1017 61.9026 1016.64 61.9026 1016.2C61.9026 1015.74 64.4816 1015.41 68.0928 1015.41C71.704 1015.41 74.2831 1015.08 74.2831 1014.61C74.2831 1014.13 77.8943 1013.82 83.5684 1013.82C89.2426 1013.82 92.8538 1013.51 92.8538 1013.02C92.8538 1012.54 96.2066 1012.22 101.365 1012.22C106.524 1012.22 109.877 1011.91 109.877 1011.43C109.877 1010.96 112.714 1010.63 116.841 1010.63C120.968 1010.63 123.805 1010.31 123.805 1009.84C123.805 1009.4 125.121 1009.04 126.729 1009.04C128.766 1009.04 129.992 1008.56 130.769 1007.45C131.383 1006.57 132.504 1005.86 133.261 1005.86C134.122 1005.86 134.638 1005.26 134.638 1004.26C134.638 1003.39 134.986 1002.67 135.412 1002.67C135.837 1002.67 136.186 1001.96 136.186 1001.08C136.186 1000.2 136.534 999.488 136.959 999.488C137.385 999.488 137.733 998.771 137.733 997.896C137.733 995.866 138.632 995.866 140.055 997.896C140.668 998.771 141.632 999.488 142.197 999.488C142.762 999.488 145.628 1002 148.566 1005.06C151.504 1008.12 154.37 1010.63 154.935 1010.63C155.5 1010.63 156.464 1011.35 157.078 1012.22C157.733 1013.16 159.081 1013.82 160.344 1013.82C161.526 1013.82 162.494 1014.17 162.494 1014.61C162.494 1015.05 164.558 1015.41 167.137 1015.41C169.716 1015.41 171.78 1015.05 171.78 1014.61C171.78 1014.17 173.172 1013.82 174.875 1013.82C176.577 1013.82 177.97 1013.46 177.97 1013.02C177.97 1012.58 179.363 1012.22 181.065 1012.22C182.767 1012.22 184.16 1011.87 184.16 1011.43C184.16 1010.99 185.205 1010.63 186.481 1010.63C187.758 1010.63 188.803 1010.27 188.803 1009.84C188.803 1009.4 190.196 1009.04 191.898 1009.04C193.6 1009.04 194.993 1008.68 194.993 1008.24C194.993 1007.81 196.386 1007.45 198.088 1007.45C199.79 1007.45 201.183 1007.09 201.183 1006.65C201.183 1006.21 202.576 1005.86 204.278 1005.86C205.981 1005.86 207.374 1005.5 207.374 1005.06C207.374 1004.62 208.766 1004.26 210.469 1004.26C212.171 1004.26 213.564 1003.91 213.564 1003.47C213.564 1003.03 214.957 1002.67 216.659 1002.67C218.361 1002.67 219.754 1002.35 219.754 1001.96C219.754 1001.2 223.159 1000.44 229.62 999.765C232.293 999.485 233.682 999.637 233.682 1000.21C233.682 1000.69 234.379 1001.08 235.23 1001.08C236.081 1001.08 236.777 1001.44 236.777 1001.88C236.777 1002.31 238.17 1002.67 239.872 1002.67C241.575 1002.67 242.968 1003 242.968 1003.39C242.968 1003.79 244.796 1004.3 247.03 1004.53C249.264 1004.76 253.007 1005.36 255.348 1005.86C257.689 1006.36 261.432 1006.95 263.666 1007.18C265.9 1007.41 267.729 1007.92 267.729 1008.32C267.729 1008.72 269.47 1009.04 271.597 1009.04C273.725 1009.04 275.466 1009.4 275.466 1009.84C275.466 1010.28 277.53 1010.63 280.109 1010.63C282.688 1010.63 284.752 1010.99 284.752 1011.43C284.752 1011.87 286.493 1012.22 288.621 1012.22C290.749 1012.22 292.49 1011.87 292.49 1011.43C292.49 1010.99 293.369 1010.63 294.444 1010.63C296.844 1010.63 303.323 1004.26 303.323 1001.9C303.323 1001.01 303.671 1000.28 304.096 1000.28C304.522 1000.28 304.87 999.388 304.87 998.294C304.87 997.199 305.218 996.303 305.644 996.303C306.069 996.303 306.418 995.587 306.418 994.711C306.418 993.836 306.766 993.119 307.191 993.119C307.617 993.119 307.965 992.403 307.965 991.527C307.965 990.652 308.313 989.935 308.739 989.935C309.165 989.935 309.513 989.219 309.513 988.343C309.513 987.468 309.861 986.751 310.287 986.751C310.712 986.751 311.06 986.035 311.06 985.159C311.06 984.284 311.409 983.567 311.834 983.567C312.26 983.567 312.608 982.851 312.608 981.975C312.608 981.1 312.956 980.383 313.382 980.383C313.807 980.383 314.155 979.667 314.155 978.791C314.155 977.915 314.504 977.199 314.929 977.199C315.355 977.199 315.703 976.304 315.703 975.209C315.703 974.114 316.051 973.219 316.477 973.219C316.902 973.219 317.251 972.503 317.251 971.627C317.251 970.751 317.599 970.035 318.024 970.035C318.45 970.035 318.798 969.318 318.798 968.443C318.798 967.567 319.093 966.851 319.454 966.851C320.483 966.851 323.441 969.725 323.441 970.725C323.441 971.221 323.789 971.627 324.215 971.627C324.64 971.627 324.988 971.995 324.988 972.444C324.988 973.529 331.264 979.948 333.56 981.212C335.871 982.485 346.081 982.551 346.487 981.296C346.65 980.794 347.288 980.383 347.906 980.383C348.522 980.383 350.184 979.219 351.597 977.796C353.011 976.374 354.965 974.672 355.94 974.015C356.915 973.358 358.864 971.662 360.271 970.244C363.129 967.369 365.225 967.484 365.225 970.518C365.225 971.566 365.573 972.423 365.999 972.423C366.424 972.423 366.773 973.677 366.773 975.209C366.773 976.741 367.121 977.995 367.546 977.995C367.972 977.995 368.32 979.249 368.32 980.781C368.32 982.313 368.668 983.567 369.094 983.567C369.52 983.567 369.868 984.821 369.868 986.353C369.868 987.886 370.216 989.139 370.642 989.139C371.067 989.139 371.415 990.393 371.415 991.925C371.415 993.458 371.764 994.711 372.189 994.711C372.615 994.711 372.963 996.144 372.963 997.896C372.963 999.647 373.311 1001.08 373.737 1001.08C374.162 1001.08 374.51 1002.15 374.51 1003.47C374.51 1004.78 374.859 1005.86 375.284 1005.86C375.71 1005.86 376.058 1006.41 376.058 1007.08C376.058 1008.66 381.069 1013.82 382.61 1013.82C383.262 1013.82 383.796 1014.17 383.796 1014.61C383.796 1015.05 384.84 1015.41 386.117 1015.41C387.394 1015.41 388.439 1015.77 388.439 1016.2C388.439 1016.64 389.135 1017 389.986 1017C390.837 1017 391.534 1016.64 391.534 1016.2C391.534 1015.73 394.629 1015.41 399.271 1015.41C403.914 1015.41 407.009 1015.09 407.009 1014.61C407.009 1014.12 411.136 1013.82 417.842 1013.82C424.549 1013.82 428.675 1014.12 428.675 1014.61C428.675 1015.05 429.72 1015.41 430.997 1015.41C432.273 1015.41 433.318 1015.77 433.318 1016.2C433.318 1016.71 439.508 1017 450.341 1017C461.174 1017 467.364 1016.71 467.364 1016.2C467.364 1015.69 475.102 1015.41 489.03 1015.41C502.958 1015.41 510.696 1015.12 510.696 1014.61C510.696 1014.17 511.741 1013.82 513.017 1013.82C514.294 1013.82 515.339 1013.46 515.339 1013.02C515.339 1012.58 516.383 1012.22 517.66 1012.22C518.937 1012.22 519.981 1011.87 519.981 1011.43C519.981 1010.99 521.026 1010.63 522.303 1010.63C523.58 1010.63 524.624 1010.27 524.624 1009.84C524.624 1009.4 525.669 1009.04 526.945 1009.04C528.222 1009.04 529.267 1008.73 529.267 1008.34C529.267 1007.96 530.253 1007.44 531.457 1007.2C533.766 1006.72 538.552 1002.65 538.552 1001.16C538.552 1000.68 538.9 1000.28 539.326 1000.28C539.752 1000.28 540.1 999.746 540.1 999.09C540.1 998.433 540.448 997.896 540.874 997.896C541.299 997.896 541.647 996.821 541.647 995.507C541.647 992.278 543.33 992.41 546.729 995.905C548.218 997.438 549.767 998.692 550.171 998.692C550.574 998.692 553.167 1001.02 555.934 1003.87C558.7 1006.71 561.352 1009.04 561.828 1009.04C562.303 1009.04 563.668 1010.11 564.861 1011.43C566.194 1012.9 567.803 1013.82 569.04 1013.82C570.146 1013.82 571.051 1014.17 571.051 1014.61C571.051 1015.05 573.115 1015.41 575.694 1015.41C578.273 1015.41 580.336 1015.05 580.336 1014.61C580.336 1014.17 581.729 1013.82 583.432 1013.82C585.134 1013.82 586.527 1013.46 586.527 1013.02C586.527 1012.58 587.92 1012.22 589.622 1012.22C591.324 1012.22 592.717 1011.87 592.717 1011.43C592.717 1010.99 594.11 1010.63 595.812 1010.63C597.514 1010.63 598.907 1010.27 598.907 1009.84C598.907 1009.4 599.952 1009.04 601.229 1009.04C602.505 1009.04 603.55 1008.68 603.55 1008.24C603.55 1007.81 604.943 1007.45 606.645 1007.45C608.347 1007.45 609.74 1007.09 609.74 1006.65C609.74 1006.21 611.133 1005.86 612.835 1005.86C614.538 1005.86 615.93 1005.5 615.93 1005.06C615.93 1004.62 617.323 1004.26 619.026 1004.26C620.728 1004.26 622.121 1003.91 622.121 1003.47C622.121 1003.03 623.513 1002.67 625.216 1002.67C626.918 1002.67 628.311 1002.31 628.311 1001.88C628.311 1001.44 629.704 1001.08 631.406 1001.08C633.108 1001.08 634.501 1000.76 634.501 1000.37C634.501 999.981 635.72 999.444 637.209 999.176C638.699 998.91 641.136 998.473 642.626 998.207C644.115 997.939 645.334 997.402 645.334 997.013C645.334 996.623 646.031 996.303 646.882 996.303C647.733 996.303 648.429 995.945 648.429 995.507C648.429 995.07 649.126 994.711 649.977 994.711C650.836 994.711 651.524 994.18 651.524 993.517C651.524 992.861 651.873 992.323 652.298 992.323C652.724 992.323 653.072 991.786 653.072 991.129C653.072 990.473 653.42 989.935 653.846 989.935C654.271 989.935 654.62 988.861 654.62 987.547C654.62 986.234 654.968 985.159 655.393 985.159C655.819 985.159 656.167 983.547 656.167 981.577C656.167 979.607 656.515 977.995 656.941 977.995C657.371 977.995 657.715 975.872 657.715 973.219C657.715 970.566 658.058 968.443 658.488 968.443C658.914 968.443 659.262 966.473 659.262 964.065C659.262 961.657 659.61 959.687 660.036 959.687C660.466 959.687 660.81 957.564 660.81 954.91C660.81 952.257 661.153 950.134 661.584 950.134C662.009 950.134 662.357 948.164 662.357 945.756C662.357 943.348 662.706 941.378 663.131 941.378C663.561 941.378 663.905 939.255 663.905 936.602C663.905 933.949 664.248 931.826 664.679 931.826C665.104 931.826 665.452 929.886 665.452 927.514C665.452 924.843 665.821 923.026 666.42 922.738C667.193 922.367 667.193 922.181 666.42 921.81C665.887 921.554 665.452 919.943 665.452 918.227C665.452 916.513 665.104 915.109 664.679 915.109C664.253 915.109 663.905 914.572 663.905 913.915C663.905 913.259 663.557 912.721 663.131 912.721C662.706 912.721 662.357 912.184 662.357 911.527C662.357 910.871 662.009 910.333 661.584 910.333C661.158 910.333 660.81 909.94 660.81 909.458C660.81 908.978 659.765 907.58 658.488 906.353C657.212 905.127 656.167 903.729 656.167 903.248C656.167 902.766 655.819 902.373 655.393 902.373C654.968 902.373 654.62 901.98 654.62 901.498C654.62 901.017 653.575 899.62 652.298 898.393C651.021 897.166 649.977 895.769 649.977 895.288C649.977 894.806 649.629 894.413 649.203 894.413C648.777 894.413 648.429 894.02 648.429 893.538C648.429 893.057 647.385 891.66 646.108 890.433C644.831 889.206 643.787 887.808 643.787 887.328C643.787 886.846 643.438 886.453 643.013 886.453C642.587 886.453 642.239 886.067 642.239 885.595C642.239 885.122 640.846 883.359 639.144 881.677C637.442 879.994 636.049 878.203 636.049 877.697C636.049 877.19 634.656 875.399 632.954 873.716C631.251 872.034 629.859 870.271 629.859 869.798C629.859 869.326 629.51 868.94 629.085 868.94C628.659 868.94 628.311 868.566 628.311 868.108C628.311 866.83 624.663 863.368 623.316 863.368C622.658 863.368 622.121 863.01 622.121 862.572C622.121 862.134 621.424 861.776 620.573 861.776C619.722 861.776 619.026 861.418 619.026 860.98C619.026 860.494 615.414 860.184 609.74 860.184C604.066 860.184 600.455 859.874 600.455 859.388C600.455 858.88 594.007 858.592 582.658 858.592C571.309 858.592 564.861 858.88 564.861 859.388C564.861 859.826 564.164 860.184 563.313 860.184C562.462 860.184 561.766 860.542 561.766 860.98C561.766 861.418 561.069 861.776 560.218 861.776C559.367 861.776 558.671 862.134 558.671 862.572C558.671 863.01 558.051 863.368 557.294 863.368C556.536 863.368 555.415 864.085 554.802 864.96C554.188 865.836 553.143 866.552 552.48 866.552C551.817 866.552 550.773 867.269 550.159 868.144C549.545 869.02 548.424 869.736 547.667 869.736C546.91 869.736 546.29 870.051 546.29 870.436C546.29 870.821 545.245 871.581 543.969 872.124C542.692 872.668 541.647 873.428 541.647 873.813C541.647 874.198 541.028 874.512 540.271 874.512C539.513 874.512 538.392 875.229 537.778 876.104C537.165 876.98 536.12 877.697 535.457 877.697C534.794 877.697 533.749 878.413 533.136 879.289C531.83 881.152 529.267 881.416 529.267 879.687C529.267 879.03 528.919 878.493 528.493 878.493C528.067 878.493 527.719 877.955 527.719 877.299C527.719 876.642 527.371 876.104 526.945 876.104C526.52 876.104 526.172 875.558 526.172 874.89C526.172 873.31 519.603 866.552 518.067 866.552C517.418 866.552 516.886 866.194 516.886 865.756C516.886 865.318 515.145 864.96 513.017 864.96C510.889 864.96 509.148 864.602 509.148 864.164C509.148 863.692 506.311 863.368 502.184 863.368C498.058 863.368 495.22 863.044 495.22 862.572C495.22 862.108 492.641 861.776 489.03 861.776C485.419 861.776 482.84 861.444 482.84 860.98C482.84 860.508 480.002 860.184 475.876 860.184C471.749 860.184 468.912 859.86 468.912 859.388C468.912 858.924 466.333 858.592 462.722 858.592C459.11 858.592 456.531 858.26 456.531 857.796C456.531 857.358 455.487 857 454.21 857C452.933 857 451.889 857.358 451.889 857.796ZM87.6161 927.766C90.2841 929.036 94.2946 930.888 96.5293 931.882C98.7632 932.877 100.592 933.833 100.592 934.009C100.592 935.021 97.4787 936.998 89.0043 941.369C82.1834 944.885 78.9745 946.14 77.6614 945.801C76.6547 945.54 75.8306 945.02 75.8306 944.643C75.8306 944.267 74.786 943.514 73.5093 942.97C71.2351 942.001 71.1879 941.864 71.1879 936.277V930.574L76.0241 928.064C78.6843 926.683 81.2889 925.532 81.8127 925.505C82.3366 925.479 84.9481 926.497 87.6161 927.766Z" fill="#6FDFF4"/>
<path fill-rule="evenodd" clip-rule="evenodd" d="M448.249 858.531C448.249 858.952 446.867 859.297 445.178 859.297C443.49 859.297 442.108 859.641 442.108 860.062C442.108 860.483 441.072 860.828 439.806 860.828C438.539 860.828 437.503 861.172 437.503 861.593C437.503 862.014 436.467 862.359 435.2 862.359C433.934 862.359 432.898 862.703 432.898 863.124C432.898 863.545 431.861 863.89 430.595 863.89C429.328 863.89 428.292 864.234 428.292 864.656C428.292 865.077 427.539 865.421 426.62 865.421C422.114 865.421 414.476 870.46 414.476 873.434C414.476 874.097 413.809 874.608 412.941 874.608C411.662 874.608 411.406 874.097 411.406 871.545C411.406 869.861 411.061 868.483 410.639 868.483C410.217 868.483 409.871 867.966 409.871 867.335C409.871 866.703 409.526 866.187 409.104 866.187C408.681 866.187 408.336 865.818 408.336 865.367C408.336 864.146 406.315 862.359 404.937 862.359C404.273 862.359 403.731 862.014 403.731 861.593C403.731 861.172 403.04 860.828 402.196 860.828C401.351 860.828 400.661 860.483 400.661 860.062C400.661 859.574 394.265 859.297 383.007 859.297C371.749 859.297 365.353 859.574 365.353 860.062C365.353 860.483 363.972 860.828 362.283 860.828C360.594 860.828 359.213 861.172 359.213 861.593C359.213 862.014 358.679 862.359 358.027 862.359C356.691 862.359 353.073 865.688 353.073 866.918C353.073 867.358 352.727 867.718 352.305 867.718C351.883 867.718 351.537 868.087 351.537 868.538C351.537 869.399 349.659 871.545 348.905 871.545C348.664 871.545 348.467 871.021 348.467 870.38C348.467 869.74 346.575 867.328 344.263 865.021C340.759 861.528 339.606 860.828 337.355 860.828C335.868 860.828 334.651 860.483 334.651 860.062C334.651 859.573 327.999 859.297 316.23 859.297C304.461 859.297 297.809 859.573 297.809 860.062C297.809 860.483 296.592 860.828 295.106 860.828C292.854 860.828 291.701 861.528 288.198 865.021C285.885 867.328 283.993 869.74 283.993 870.38C283.993 871.021 283.648 871.545 283.226 871.545C282.803 871.545 282.458 872.234 282.458 873.077C282.458 873.919 282.113 874.608 281.69 874.608C281.268 874.608 280.923 875.297 280.923 876.139C280.923 876.981 280.578 877.67 280.155 877.67C279.733 877.67 279.388 878.359 279.388 879.201C279.388 880.043 279.042 880.732 278.62 880.732C278.198 880.732 277.853 881.421 277.853 882.263C277.853 883.105 277.507 883.794 277.085 883.794C276.663 883.794 276.318 884.311 276.318 884.943C276.318 885.574 275.972 886.091 275.55 886.091C275.128 886.091 274.783 886.608 274.783 887.239C274.783 887.871 274.437 888.388 274.015 888.388C273.593 888.388 273.247 889.077 273.247 889.919C273.247 890.761 272.902 891.45 272.48 891.45C272.058 891.45 271.712 892.139 271.712 892.981C271.712 893.823 271.367 894.512 270.945 894.512C270.523 894.512 270.177 895.201 270.177 896.043C270.177 896.885 269.832 897.574 269.41 897.574C268.988 897.574 268.642 898.263 268.642 899.105C268.642 899.947 268.297 900.636 267.875 900.636C267.452 900.636 267.107 901.153 267.107 901.785C267.107 902.416 266.762 902.933 266.339 902.933C265.917 902.933 265.572 903.622 265.572 904.464C265.572 905.306 265.227 905.995 264.804 905.995C264.382 905.995 264.037 906.512 264.037 907.144C264.037 907.775 263.691 908.292 263.269 908.292C262.847 908.292 262.502 908.981 262.502 909.823C262.502 910.665 262.156 911.354 261.734 911.354C261.312 911.354 260.967 912.043 260.967 912.885C260.967 913.727 260.621 914.416 260.199 914.416C259.777 914.416 259.432 915.105 259.432 915.947C259.432 916.789 259.086 917.478 258.664 917.478C258.242 917.478 257.896 917.847 257.896 918.298C257.896 919.16 256.018 921.306 255.265 921.306C255.024 921.306 254.826 919.756 254.826 917.861C254.826 915.967 254.481 914.416 254.059 914.416C253.637 914.416 253.291 913.727 253.291 912.885C253.291 912.043 252.946 911.354 252.524 911.354C252.101 911.354 251.756 910.913 251.756 910.375C251.756 909.836 251.065 908.899 250.221 908.292C249.377 907.685 248.686 906.824 248.686 906.378C248.686 905.932 247.995 905.071 247.151 904.464C246.306 903.857 245.616 902.996 245.616 902.55C245.616 902.105 244.925 901.243 244.081 900.636C243.236 900.029 242.545 899.23 242.545 898.86C242.545 898.491 241.509 897.223 240.243 896.043C238.976 894.863 237.94 893.519 237.94 893.057C237.94 892.593 237.595 892.215 237.173 892.215C236.75 892.215 236.405 891.837 236.405 891.374C236.405 890.912 235.369 889.567 234.102 888.388C232.836 887.208 231.8 885.864 231.8 885.401C231.8 884.938 231.454 884.56 231.032 884.56C230.61 884.56 230.265 884.182 230.265 883.718C230.265 883.256 229.228 881.912 227.962 880.732C226.696 879.552 225.659 878.208 225.659 877.746C225.659 877.283 225.314 876.904 224.892 876.904C224.47 876.904 224.124 876.533 224.124 876.079C224.124 875.624 222.743 873.929 221.054 872.311C219.365 870.693 217.984 868.982 217.984 868.509C217.984 867.232 214.399 863.89 213.029 863.89C212.377 863.89 211.844 863.545 211.844 863.124C211.844 862.703 211.153 862.359 210.308 862.359C209.464 862.359 208.773 862.014 208.773 861.593C208.773 861.126 205.191 860.828 199.563 860.828C193.934 860.828 190.352 860.53 190.352 860.062C190.352 859.574 183.956 859.297 172.699 859.297C161.441 859.297 155.045 859.574 155.045 860.062C155.045 860.483 154.085 860.828 152.912 860.828C151.659 860.828 150.322 861.46 149.672 862.359C149.063 863.201 148.027 863.89 147.369 863.89C146.712 863.89 145.675 864.579 145.067 865.421C144.458 866.263 143.346 866.952 142.594 866.952C141.844 866.952 141.229 867.255 141.229 867.625C141.229 867.995 140.193 868.726 138.926 869.249C137.66 869.772 136.624 870.503 136.624 870.873C136.624 871.243 136.009 871.545 135.258 871.545C134.507 871.545 133.395 872.234 132.786 873.077C132.177 873.919 131.065 874.608 130.314 874.608C129.563 874.608 128.948 874.952 128.948 875.373C128.948 875.794 128.603 876.139 128.181 876.139C127.759 876.139 127.413 874.837 127.413 873.246C127.413 871.231 126.947 870.017 125.878 869.249C125.034 868.642 124.343 867.728 124.343 867.218C124.343 866.707 123.652 866.071 122.808 865.804C121.964 865.537 121.273 864.997 121.273 864.604C121.273 864.211 120.582 863.89 119.738 863.89C118.893 863.89 118.203 863.545 118.203 863.124C118.203 862.703 116.821 862.359 115.132 862.359C113.444 862.359 112.062 862.014 112.062 861.593C112.062 861.115 107.457 860.828 99.7814 860.828C92.1059 860.828 87.5006 860.541 87.5006 860.062C87.5006 859.584 82.8953 859.297 75.2198 859.297C67.5443 859.297 62.939 859.584 62.939 860.062C62.939 860.483 61.9028 860.828 60.6364 860.828C59.3699 860.828 58.3337 861.172 58.3337 861.593C58.3337 862.014 57.6429 862.359 56.7986 862.359C55.9543 862.359 55.2635 862.703 55.2635 863.124C55.2635 863.545 54.5727 863.89 53.7284 863.89C52.8841 863.89 52.1933 864.192 52.1933 864.563C52.1933 864.933 51.1571 865.664 49.8907 866.187C48.6242 866.709 47.588 867.441 47.588 867.81C47.588 868.181 46.8972 868.483 46.0529 868.483C45.2086 868.483 44.5178 868.828 44.5178 869.249C44.5178 869.67 43.827 870.014 42.9827 870.014C42.1384 870.014 41.4476 870.359 41.4476 870.78C41.4476 871.201 40.7568 871.545 39.9125 871.545C39.0682 871.545 38.3774 871.89 38.3774 872.311C38.3774 872.732 37.6867 873.077 36.8423 873.077C35.998 873.077 35.3073 873.379 35.3073 873.749C35.3073 874.119 34.2711 874.85 33.0046 875.373C31.7381 875.896 30.702 876.627 30.702 876.997C30.702 877.367 30.0112 877.67 29.1669 877.67C28.3226 877.67 27.6318 878.014 27.6318 878.435C27.6318 878.856 26.941 879.201 26.0967 879.201C25.2524 879.201 24.5616 879.545 24.5616 879.966C24.5616 880.388 24.0343 880.732 23.3903 880.732C21.8667 880.732 15.351 887.231 15.351 888.75C15.351 889.393 15.0056 889.919 14.5834 889.919C14.1613 889.919 13.8159 890.952 13.8159 892.215C13.8159 893.478 13.4705 894.512 13.0483 894.512C12.6262 894.512 12.2808 895.373 12.2808 896.426C12.2808 897.478 11.9354 898.34 11.5132 898.34C11.0911 898.34 10.7457 899.201 10.7457 900.254C10.7457 901.306 10.4003 902.167 9.97814 902.167C9.55598 902.167 9.21059 903.029 9.21059 904.081C9.21059 905.134 8.86519 905.995 8.44304 905.995C8.02089 905.995 7.67549 906.856 7.67549 907.909C7.67549 908.962 7.33009 909.823 6.90794 909.823C6.48579 909.823 6.14039 910.684 6.14039 911.737C6.14039 912.789 5.79499 913.651 5.37284 913.651C4.95069 913.651 4.60529 914.512 4.60529 915.565C4.60529 916.617 4.2599 917.478 3.83774 917.478C3.41559 917.478 3.0702 918.512 3.0702 919.775C3.0702 921.038 2.7248 922.072 2.30265 922.072C1.88049 922.072 1.5351 922.933 1.5351 923.986C1.5351 925.038 1.1897 925.9 0.767549 925.9C0.312392 925.9 0 928.707 0 932.789C0 936.872 0.312392 939.679 0.767549 939.679C1.1897 939.679 1.5351 940.885 1.5351 942.359C1.5351 943.833 1.88049 945.038 2.30265 945.038C2.7248 945.038 3.0702 946.244 3.0702 947.718C3.0702 949.191 3.41559 950.397 3.83774 950.397C4.2599 950.397 4.60529 951.775 4.60529 953.459C4.60529 955.144 4.95069 956.522 5.37284 956.522C5.79499 956.522 6.14039 957.727 6.14039 959.201C6.14039 960.675 6.48579 961.88 6.90794 961.88C7.33009 961.88 7.67549 963.086 7.67549 964.56C7.67549 966.033 8.02089 967.239 8.44304 967.239C8.86519 967.239 9.21059 968.617 9.21059 970.301C9.21059 971.986 9.55598 973.364 9.97814 973.364C10.4003 973.364 10.7457 973.886 10.7457 974.526C10.7457 975.834 20.2441 985.612 21.5144 985.612C21.9642 985.612 24.7174 988.024 27.6318 990.971C30.5461 993.919 33.3093 996.33 33.7722 996.33C34.235 996.33 36.9982 998.742 39.9125 1001.69C42.8269 1004.64 45.7459 1007.05 46.3999 1007.05C47.0531 1007.05 47.588 1007.39 47.588 1007.81C47.588 1008.23 48.2788 1008.58 49.1231 1008.58C49.9674 1008.58 50.6582 1008.92 50.6582 1009.34C50.6582 1009.77 51.6944 1010.11 52.9609 1010.11C54.2273 1010.11 55.2635 1010.45 55.2635 1010.88C55.2635 1011.3 56.6451 1011.64 58.3337 1011.64C60.0223 1011.64 61.4039 1011.3 61.4039 1010.88C61.4039 1010.43 63.9622 1010.11 67.5443 1010.11C71.1265 1010.11 73.6847 1009.79 73.6847 1009.34C73.6847 1008.88 77.2668 1008.58 82.8953 1008.58C88.5237 1008.58 92.1059 1008.28 92.1059 1007.81C92.1059 1007.35 95.4317 1007.05 100.549 1007.05C105.666 1007.05 108.992 1006.75 108.992 1006.28C108.992 1005.83 111.807 1005.52 115.9 1005.52C119.993 1005.52 122.808 1005.21 122.808 1004.75C122.808 1004.33 124.113 1003.99 125.708 1003.99C127.729 1003.99 128.945 1003.52 129.716 1002.45C130.324 1001.61 131.437 1000.92 132.188 1000.92C133.042 1000.92 133.554 1000.35 133.554 999.392C133.554 998.55 133.899 997.861 134.321 997.861C134.743 997.861 135.089 997.172 135.089 996.33C135.089 995.488 135.434 994.799 135.856 994.799C136.278 994.799 136.624 994.11 136.624 993.268C136.624 991.316 137.516 991.316 138.926 993.268C139.535 994.11 140.491 994.799 141.052 994.799C141.612 994.799 144.455 997.211 147.369 1000.16C150.284 1003.11 153.127 1005.52 153.687 1005.52C154.247 1005.52 155.204 1006.21 155.812 1007.05C156.463 1007.95 157.8 1008.58 159.052 1008.58C160.225 1008.58 161.185 1008.92 161.185 1009.34C161.185 1009.77 163.232 1010.11 165.791 1010.11C168.349 1010.11 170.396 1009.77 170.396 1009.34C170.396 1008.92 171.777 1008.58 173.466 1008.58C175.155 1008.58 176.536 1008.23 176.536 1007.81C176.536 1007.39 177.918 1007.05 179.606 1007.05C181.295 1007.05 182.677 1006.7 182.677 1006.28C182.677 1005.86 183.713 1005.52 184.979 1005.52C186.246 1005.52 187.282 1005.17 187.282 1004.75C187.282 1004.33 188.664 1003.99 190.352 1003.99C192.041 1003.99 193.422 1003.64 193.422 1003.22C193.422 1002.8 194.804 1002.45 196.493 1002.45C198.181 1002.45 199.563 1002.11 199.563 1001.69C199.563 1001.27 200.944 1000.92 202.633 1000.92C204.322 1000.92 205.703 1000.58 205.703 1000.16C205.703 999.737 207.085 999.392 208.773 999.392C210.462 999.392 211.844 999.048 211.844 998.627C211.844 998.206 213.225 997.861 214.914 997.861C216.602 997.861 217.984 997.554 217.984 997.179C217.984 996.444 221.362 995.715 227.77 995.065C230.422 994.797 231.8 994.943 231.8 995.493C231.8 995.954 232.491 996.33 233.335 996.33C234.179 996.33 234.87 996.675 234.87 997.096C234.87 997.517 236.252 997.861 237.94 997.861C239.629 997.861 241.01 998.174 241.01 998.556C241.01 998.938 242.824 999.43 245.04 999.65C247.256 999.869 250.969 1000.44 253.291 1000.92C255.613 1001.4 259.326 1001.98 261.542 1002.2C263.758 1002.42 265.572 1002.91 265.572 1003.29C265.572 1003.67 267.299 1003.99 269.41 1003.99C271.52 1003.99 273.247 1004.33 273.247 1004.75C273.247 1005.18 275.294 1005.52 277.853 1005.52C280.411 1005.52 282.458 1005.86 282.458 1006.28C282.458 1006.7 284.185 1007.05 286.296 1007.05C288.407 1007.05 290.133 1006.7 290.133 1006.28C290.133 1005.86 291.006 1005.52 292.072 1005.52C294.453 1005.52 300.879 999.387 300.879 997.116C300.879 996.263 301.225 995.565 301.647 995.565C302.069 995.565 302.414 994.703 302.414 993.651C302.414 992.598 302.76 991.737 303.182 991.737C303.604 991.737 303.949 991.048 303.949 990.206C303.949 989.364 304.295 988.675 304.717 988.675C305.139 988.675 305.484 987.986 305.484 987.144C305.484 986.301 305.83 985.612 306.252 985.612C306.674 985.612 307.02 984.923 307.02 984.081C307.02 983.239 307.365 982.55 307.787 982.55C308.209 982.55 308.555 981.861 308.555 981.019C308.555 980.177 308.9 979.488 309.322 979.488C309.744 979.488 310.09 978.799 310.09 977.957C310.09 977.115 310.435 976.426 310.857 976.426C311.279 976.426 311.625 975.737 311.625 974.895C311.625 974.053 311.97 973.364 312.392 973.364C312.815 973.364 313.16 972.502 313.16 971.45C313.16 970.397 313.505 969.536 313.928 969.536C314.35 969.536 314.695 968.847 314.695 968.005C314.695 967.163 315.04 966.474 315.463 966.474C315.885 966.474 316.23 965.785 316.23 964.943C316.23 964.1 316.523 963.411 316.88 963.411C317.901 963.411 320.835 966.176 320.835 967.137C320.835 967.614 321.181 968.005 321.603 968.005C322.025 968.005 322.371 968.358 322.371 968.79C322.371 969.834 328.595 976.007 330.873 977.223C333.165 978.447 343.293 978.511 343.696 977.304C343.858 976.821 344.491 976.426 345.103 976.426C345.715 976.426 347.363 975.306 348.765 973.938C350.167 972.57 352.105 970.933 353.073 970.301C354.04 969.67 355.973 968.038 357.369 966.675C360.204 963.91 362.283 964.021 362.283 966.938C362.283 967.946 362.628 968.77 363.051 968.77C363.473 968.77 363.818 969.976 363.818 971.45C363.818 972.923 364.164 974.129 364.586 974.129C365.008 974.129 365.353 975.335 365.353 976.809C365.353 978.282 365.699 979.488 366.121 979.488C366.543 979.488 366.888 980.694 366.888 982.167C366.888 983.641 367.234 984.847 367.656 984.847C368.078 984.847 368.423 986.053 368.423 987.526C368.423 989 368.769 990.206 369.191 990.206C369.613 990.206 369.959 991.584 369.959 993.268C369.959 994.952 370.304 996.33 370.726 996.33C371.148 996.33 371.494 997.364 371.494 998.627C371.494 999.89 371.839 1000.92 372.261 1000.92C372.683 1000.92 373.029 1001.45 373.029 1002.1C373.029 1003.62 377.999 1008.58 379.528 1008.58C380.175 1008.58 380.704 1008.92 380.704 1009.34C380.704 1009.77 381.74 1010.11 383.007 1010.11C384.273 1010.11 385.31 1010.45 385.31 1010.88C385.31 1011.3 386 1011.64 386.845 1011.64C387.689 1011.64 388.38 1011.3 388.38 1010.88C388.38 1010.42 391.45 1010.11 396.055 1010.11C400.661 1010.11 403.731 1009.8 403.731 1009.34C403.731 1008.87 407.824 1008.58 414.476 1008.58C421.129 1008.58 425.222 1008.87 425.222 1009.34C425.222 1009.77 426.258 1010.11 427.525 1010.11C428.791 1010.11 429.827 1010.45 429.827 1010.88C429.827 1011.36 435.968 1011.64 446.713 1011.64C457.459 1011.64 463.6 1011.36 463.6 1010.88C463.6 1010.38 471.275 1010.11 485.091 1010.11C498.907 1010.11 506.582 1009.84 506.582 1009.34C506.582 1008.92 507.618 1008.58 508.885 1008.58C510.151 1008.58 511.188 1008.23 511.188 1007.81C511.188 1007.39 512.224 1007.05 513.49 1007.05C514.757 1007.05 515.793 1006.7 515.793 1006.28C515.793 1005.86 516.829 1005.52 518.096 1005.52C519.362 1005.52 520.398 1005.17 520.398 1004.75C520.398 1004.33 521.434 1003.99 522.701 1003.99C523.967 1003.99 525.003 1003.68 525.003 1003.32C525.003 1002.95 525.981 1002.45 527.176 1002.21C529.466 1001.76 534.214 997.838 534.214 996.406C534.214 995.943 534.559 995.565 534.982 995.565C535.404 995.565 535.749 995.048 535.749 994.416C535.749 993.785 536.095 993.268 536.517 993.268C536.939 993.268 537.284 992.234 537.284 990.971C537.284 987.865 538.954 987.993 542.325 991.354C543.802 992.828 545.338 994.034 545.739 994.034C546.139 994.034 548.712 996.273 551.456 999.01C554.199 1001.75 556.831 1003.99 557.302 1003.99C557.774 1003.99 559.128 1005.02 560.311 1006.28C561.633 1007.69 563.23 1008.58 564.456 1008.58C565.554 1008.58 566.451 1008.92 566.451 1009.34C566.451 1009.77 568.498 1010.11 571.056 1010.11C573.615 1010.11 575.662 1009.77 575.662 1009.34C575.662 1008.92 577.043 1008.58 578.732 1008.58C580.42 1008.58 581.802 1008.23 581.802 1007.81C581.802 1007.39 583.184 1007.05 584.872 1007.05C586.561 1007.05 587.942 1006.7 587.942 1006.28C587.942 1005.86 589.324 1005.52 591.013 1005.52C592.701 1005.52 594.083 1005.17 594.083 1004.75C594.083 1004.33 595.119 1003.99 596.385 1003.99C597.652 1003.99 598.688 1003.64 598.688 1003.22C598.688 1002.8 600.07 1002.45 601.758 1002.45C603.447 1002.45 604.829 1002.11 604.829 1001.69C604.829 1001.27 606.21 1000.92 607.899 1000.92C609.587 1000.92 610.969 1000.58 610.969 1000.16C610.969 999.737 612.351 999.392 614.039 999.392C615.728 999.392 617.109 999.048 617.109 998.627C617.109 998.206 618.491 997.861 620.18 997.861C621.868 997.861 623.25 997.517 623.25 997.096C623.25 996.675 624.631 996.33 626.32 996.33C628.009 996.33 629.39 996.023 629.39 995.648C629.39 995.274 630.599 994.757 632.077 994.5C633.554 994.243 635.972 993.824 637.449 993.567C638.927 993.31 640.136 992.793 640.136 992.419C640.136 992.044 640.827 991.737 641.671 991.737C642.515 991.737 643.206 991.392 643.206 990.971C643.206 990.55 643.897 990.206 644.741 990.206C645.594 990.206 646.276 989.695 646.276 989.057C646.276 988.426 646.622 987.909 647.044 987.909C647.466 987.909 647.811 987.392 647.811 986.761C647.811 986.129 648.157 985.612 648.579 985.612C649.001 985.612 649.346 984.579 649.346 983.316C649.346 982.053 649.692 981.019 650.114 981.019C650.536 981.019 650.881 979.469 650.881 977.574C650.881 975.679 651.227 974.129 651.649 974.129C652.076 974.129 652.417 972.087 652.417 969.536C652.417 966.984 652.757 964.943 653.184 964.943C653.606 964.943 653.952 963.048 653.952 960.732C653.952 958.416 654.297 956.522 654.719 956.522C655.146 956.522 655.487 954.48 655.487 951.928C655.487 949.377 655.828 947.335 656.254 947.335C656.676 947.335 657.022 945.44 657.022 943.124C657.022 940.809 657.367 938.914 657.789 938.914C658.216 938.914 658.557 936.872 658.557 934.321C658.557 931.769 658.898 929.727 659.325 929.727C659.747 929.727 660.092 927.862 660.092 925.58C660.092 923.012 660.457 921.264 661.052 920.987C661.819 920.63 661.819 920.451 661.052 920.094C660.523 919.849 660.092 918.299 660.092 916.649C660.092 915 659.747 913.651 659.325 913.651C658.902 913.651 658.557 913.134 658.557 912.502C658.557 911.871 658.212 911.354 657.789 911.354C657.367 911.354 657.022 910.837 657.022 910.206C657.022 909.574 656.676 909.057 656.254 909.057C655.832 909.057 655.487 908.679 655.487 908.216C655.487 907.754 654.451 906.409 653.184 905.23C651.918 904.05 650.881 902.706 650.881 902.243C650.881 901.78 650.536 901.402 650.114 901.402C649.692 901.402 649.346 901.024 649.346 900.561C649.346 900.098 648.31 898.754 647.044 897.574C645.777 896.394 644.741 895.05 644.741 894.588C644.741 894.125 644.396 893.746 643.974 893.746C643.551 893.746 643.206 893.368 643.206 892.905C643.206 892.443 642.17 891.098 640.903 889.919C639.637 888.739 638.601 887.395 638.601 886.932C638.601 886.469 638.255 886.091 637.833 886.091C637.411 886.091 637.066 885.72 637.066 885.266C637.066 884.811 635.684 883.116 633.995 881.498C632.307 879.879 630.925 878.157 630.925 877.67C630.925 877.183 629.544 875.46 627.855 873.842C626.166 872.224 624.785 870.529 624.785 870.074C624.785 869.62 624.439 869.249 624.017 869.249C623.595 869.249 623.25 868.889 623.25 868.449C623.25 867.219 619.631 863.89 618.295 863.89C617.643 863.89 617.109 863.545 617.109 863.124C617.109 862.703 616.419 862.359 615.574 862.359C614.73 862.359 614.039 862.014 614.039 861.593C614.039 861.126 610.457 860.828 604.829 860.828C599.2 860.828 595.618 860.53 595.618 860.062C595.618 859.574 589.222 859.297 577.964 859.297C566.707 859.297 560.311 859.574 560.311 860.062C560.311 860.483 559.62 860.828 558.776 860.828C557.931 860.828 557.241 861.172 557.241 861.593C557.241 862.014 556.55 862.359 555.705 862.359C554.861 862.359 554.17 862.703 554.17 863.124C554.17 863.545 553.556 863.89 552.805 863.89C552.053 863.89 550.941 864.579 550.333 865.421C549.724 866.263 548.688 866.952 548.03 866.952C547.372 866.952 546.336 867.641 545.727 868.483C545.119 869.325 544.006 870.014 543.255 870.014C542.504 870.014 541.89 870.317 541.89 870.687C541.89 871.057 540.853 871.788 539.587 872.311C538.32 872.834 537.284 873.565 537.284 873.935C537.284 874.305 536.669 874.608 535.919 874.608C535.167 874.608 534.055 875.297 533.446 876.139C532.838 876.981 531.802 877.67 531.144 877.67C530.486 877.67 529.45 878.359 528.841 879.201C527.546 880.993 525.003 881.247 525.003 879.584C525.003 878.952 524.658 878.435 524.236 878.435C523.814 878.435 523.468 877.919 523.468 877.287C523.468 876.656 523.123 876.139 522.701 876.139C522.279 876.139 521.933 875.613 521.933 874.971C521.933 873.451 515.418 866.952 513.894 866.952C513.25 866.952 512.723 866.608 512.723 866.187C512.723 865.766 510.996 865.421 508.885 865.421C506.774 865.421 505.047 865.077 505.047 864.656C505.047 864.202 502.233 863.89 498.139 863.89C494.046 863.89 491.231 863.578 491.231 863.124C491.231 862.678 488.673 862.359 485.091 862.359C481.509 862.359 478.951 862.04 478.951 861.593C478.951 861.139 476.136 860.828 472.043 860.828C467.949 860.828 465.135 860.516 465.135 860.062C465.135 859.616 462.576 859.297 458.994 859.297C455.412 859.297 452.854 858.977 452.854 858.531C452.854 858.11 451.818 857.766 450.551 857.766C449.285 857.766 448.249 858.11 448.249 858.531ZM86.9103 925.823C89.5568 927.044 93.535 928.825 95.7517 929.782C97.9676 930.738 99.7814 931.658 99.7814 931.826C99.7814 932.8 96.6935 934.701 88.2873 938.905C81.5214 942.287 78.3383 943.493 77.0358 943.167C76.0372 942.917 75.2198 942.416 75.2198 942.054C75.2198 941.692 74.1836 940.968 72.9171 940.445C70.6613 939.513 70.6145 939.382 70.6145 934.008V928.523L75.4117 926.109C78.0505 924.781 80.6341 923.674 81.1537 923.649C81.6733 923.624 84.2638 924.602 86.9103 925.823Z" fill="black"/>
<path fill-rule="evenodd" clip-rule="evenodd" d="M49.3872 883.634L30.134 894.109L15.351 932.128L19.9908 949.349C22.5429 958.821 24.6306 966.7 24.6306 966.859C24.6306 967.019 31.9308 973.554 40.8528 981.383L57.0742 995.617L62.1523 995.127C64.9446 994.856 79.6639 993.542 94.8614 992.205C121.318 989.879 122.482 989.711 122.238 988.258C121.884 986.162 112.205 946.405 111.744 945.158C111.481 944.445 106.454 946.676 94.6733 952.733L77.9753 961.318L66.9809 953.848C60.9334 949.74 55.8469 945.986 55.6765 945.507C55.5068 945.027 55.6181 938.63 55.9259 931.292L56.4839 917.948L82.3803 905.936L97.0642 912.769C105.14 916.527 111.805 919.549 111.876 919.486C112.164 919.228 113.84 876.802 113.572 876.541C113.413 876.384 104.82 875.711 94.4776 875.045C84.1349 874.379 74.09 873.682 72.1565 873.497C68.8315 873.178 67.5896 873.731 49.3872 883.634ZM439.491 876.25C434.003 877.96 429.239 879.609 428.905 879.914C428.571 880.22 429.002 904.364 429.864 933.569C430.726 962.774 431.432 988.699 431.432 991.181V995.694L503.965 994.624L512.792 991.565C517.646 989.883 521.929 988.214 522.308 987.855C522.687 987.496 524.98 982.485 527.404 976.719L531.812 966.234L530.659 962.857C530.024 961 529.63 959.364 529.784 959.221C529.936 959.078 539.215 967.019 550.402 976.866C561.589 986.714 571.23 994.773 571.827 994.775C572.658 994.778 635.435 978.749 636.137 978.355C636.221 978.307 638.58 965.19 641.378 949.204C645.42 926.122 646.285 919.846 645.583 918.72C645.097 917.94 637.099 907.89 627.81 896.385C612.084 876.908 610.727 875.44 608.101 875.063C606.55 874.84 596.301 874.451 585.325 874.2L565.369 873.743L527.029 898.115L523.94 918.825C522.241 930.216 520.619 939.766 520.336 940.048C519.941 940.44 514.141 937.651 512.096 936.086C511.924 935.954 513.684 933 516.005 929.52L520.227 923.192L521.328 900.609L508.111 879.474L480.324 876.243C465.043 874.466 451.848 873.041 451.004 873.077C450.16 873.113 444.979 874.541 439.491 876.25ZM141.682 885.329C131.55 891.726 122.858 897.352 122.365 897.831C121.692 898.485 115.016 939.62 114.18 948.269C114.036 949.752 164.561 994.779 166.369 994.779C167.958 994.779 229.872 978.626 230.479 978.053C230.769 977.778 233.274 964.524 236.046 948.599L241.085 919.643L205.528 875.463L202.004 875.052C200.066 874.825 189.846 874.428 179.292 874.169L160.103 873.698L141.682 885.329ZM367.341 874.567C366.497 874.923 361.489 882.298 356.212 890.955C350.935 899.612 346.445 906.704 346.234 906.714C346.023 906.725 344.682 903.376 343.256 899.273C341.829 895.169 339.29 887.937 337.611 883.2L334.561 874.588H299.693L270.391 928.692C254.276 958.449 241.174 982.873 241.277 982.967C241.974 983.608 286.828 991.561 287.265 991.121C287.569 990.817 293.909 977.65 301.354 961.86C308.8 946.071 314.966 933.079 315.057 932.988C315.182 932.864 327.931 949.635 337.471 962.474C338.151 963.391 340.957 961.217 352.962 950.478C361.026 943.264 367.929 937.363 368.305 937.363C369.289 937.363 378.478 964.44 383.114 980.999C385.294 988.789 387.127 995.218 387.188 995.287C387.453 995.59 430.109 991.76 430.469 991.401C430.69 991.18 423.338 964.635 414.131 932.411L397.392 873.822L383.134 873.87C375.292 873.897 368.186 874.21 367.341 874.567ZM477.101 900.904L484.776 902.65V916.191L478.252 917.573C474.664 918.333 470.95 919.142 470.001 919.37C468.275 919.784 468.274 919.78 468.274 909.435C468.274 903.743 468.533 899.102 468.85 899.122C469.167 899.143 472.879 899.944 477.101 900.904ZM180.333 918.758C191.526 921.227 191.189 920.818 191.189 931.933V939.417L176.228 944.972L169.125 940.301C165.218 937.732 162.017 935.417 162.01 935.156C161.986 934.221 169.93 916.693 170.384 916.679C170.64 916.671 175.116 917.607 180.333 918.758ZM585.709 918.71C590.986 919.836 595.537 920.962 595.824 921.213C596.111 921.464 596.435 925.631 596.544 930.473L596.743 939.277L581.703 944.945L574.688 940.276C570.828 937.707 567.543 935.499 567.385 935.369C567.019 935.067 575.218 916.709 575.731 916.683C575.942 916.672 580.432 917.585 585.709 918.71ZM479.73 953.148L487.463 955.917V966.964L479.595 968.63C475.268 969.546 471.469 970.293 471.152 970.289C470.835 970.284 470.577 965.803 470.577 960.329C470.577 954.742 470.888 950.377 471.287 950.377C471.677 950.377 475.477 951.623 479.73 953.148Z" fill="url(#paint0_linear_215_201)"/>
<path fill-rule="evenodd" clip-rule="evenodd" d="M49.3503 883.591L30.1317 894.057L15.351 932.076L19.9908 949.297C22.5429 958.769 24.6306 966.646 24.6306 966.802C24.6306 966.958 31.9415 973.514 40.8774 981.37L57.1241 995.656L60.6417 995.228C62.5767 994.992 76.9391 993.721 92.5587 992.404C108.178 991.087 121.359 989.887 121.848 989.739C122.48 989.547 122.188 987.284 120.847 981.955C117.432 968.399 117.541 968.698 116.018 968.698C115.234 968.698 102.788 972.327 88.3602 976.763L62.1292 984.827L53.9341 978.174C49.4263 974.515 42.8891 969.249 39.4067 966.473L33.0752 961.426L31.1011 954.918C24.1709 932.08 24.7496 933.515 21.9342 932.175C18.4442 930.516 19.234 929.655 24.2469 929.655C26.7184 929.655 28.6196 929.271 28.9803 928.698C29.3112 928.172 32.5456 921.547 36.1669 913.976L42.7517 900.211L71.8349 887.767V881.048C71.8349 871.084 72.4374 871.016 49.3503 883.591ZM141.264 885.599C130.94 892.112 122.229 897.885 121.907 898.428C121.584 898.971 119.638 910.612 117.582 924.296C113.019 954.67 112.482 952.607 124.558 951.149C128.91 950.623 132.574 950.092 132.7 949.968C132.825 949.844 133.861 940.166 135.003 928.462L137.077 907.182L148.353 902.534C154.556 899.977 159.848 897.659 160.114 897.383C160.379 897.108 160.931 892.139 161.341 886.342C161.943 877.812 161.89 875.607 161.06 874.78C160.206 873.927 156.919 875.724 141.264 885.599ZM299.413 875.329C299.413 876.238 311.336 891.458 312.062 891.476C312.325 891.483 317.585 887.932 323.752 883.586L334.964 875.684L331.58 875.166C325.915 874.301 299.413 874.435 299.413 875.329ZM608.679 877.907L605.981 879.736L603.31 908.413L608.71 914.249C611.68 917.459 616.359 922.541 619.107 925.542L624.105 930.997L622.131 952.336C621.045 964.072 620.045 974.026 619.909 974.457C619.773 974.891 611.648 976.054 601.726 977.06C591.862 978.06 583.099 979.138 582.255 979.454C581.23 979.838 579.863 982.231 578.141 986.656C576.722 990.301 575.699 993.419 575.867 993.587C576.091 993.81 635.187 978.822 636.137 978.301C636.221 978.255 638.58 965.138 641.378 949.151C645.525 925.468 646.297 919.813 645.547 918.611C644.715 917.275 614.288 879.29 612.24 877.029C611.562 876.281 610.802 876.469 608.679 877.907ZM201.863 884.679C198.731 888.153 195.714 891.577 195.158 892.289C194.267 893.43 195.839 895.594 208.403 910.511C216.588 920.23 222.658 928.097 222.658 928.984C222.658 930.312 215.019 971.92 214.711 972.27C214.65 972.34 205.992 973.633 195.472 975.143C184.952 976.654 176.214 978.02 176.053 978.18C175.573 978.66 169.819 993.961 170.119 993.961C171.218 993.961 230.063 978.41 230.474 978.01C230.763 977.731 233.274 964.477 236.057 948.557L241.114 919.613L224.499 898.988C215.36 887.645 207.809 878.363 207.719 878.363C207.63 878.363 204.995 881.206 201.863 884.679ZM471.344 897.426C471.344 899.574 471.534 899.685 477.293 900.916C480.565 901.615 483.686 902.333 484.231 902.511C484.961 902.751 485.162 904.582 484.998 909.502L484.776 916.168L470.737 919.097L470.415 928.013C470.237 932.916 470.194 937.065 470.32 937.233C470.445 937.4 476.34 936.022 483.418 934.17L496.289 930.804L500.427 914.515C502.702 905.556 504.404 898.068 504.211 897.874C503.778 897.442 479.125 895.228 474.606 895.215C471.516 895.206 471.344 895.323 471.344 897.426ZM294.04 947.752C283.698 964.417 275.235 978.57 275.235 979.203C275.235 979.837 276.962 982.706 279.073 985.578C282.709 990.526 285.741 992.598 287.202 991.133C287.54 990.794 293.909 977.598 301.354 961.808C308.8 946.019 314.967 933.026 315.057 932.935C315.149 932.844 320.363 939.627 326.646 948.008C336.846 961.615 338.227 963.16 339.556 962.451C340.375 962.014 341.216 961.001 341.426 960.201C341.636 959.401 342.221 958.746 342.727 958.746C343.232 958.746 349.042 953.923 355.638 948.028C362.235 942.134 367.936 937.311 368.309 937.311C369.153 937.311 378.32 963.728 381.592 975.588C382.929 980.43 385.194 986.717 386.628 989.56L389.236 994.727H393.697C397.369 994.727 398.455 994.413 399.829 992.956C400.747 991.981 401.497 990.689 401.497 990.085C401.498 989.141 371.09 918.376 370.289 917.455C370.129 917.272 364.441 920.89 357.649 925.494C350.856 930.098 344.982 934.064 344.595 934.306C344.208 934.548 343.385 938.823 342.765 943.806C342.146 948.789 341.499 953.005 341.33 953.175C341.16 953.344 340.769 949.14 340.463 943.833L339.905 934.183L337.504 932.395C333.819 929.65 314.138 917.403 313.452 917.429C313.119 917.442 304.383 931.087 294.04 947.752ZM111.43 947.391C111.394 948.936 111.154 950.745 110.898 951.411C110.563 952.281 110.891 952.622 112.064 952.622C113.772 952.622 113.773 952.137 112.073 946.497C111.563 944.806 111.488 944.911 111.43 947.391ZM518.615 958.938L517.293 968.259L507.427 979.253L494.951 979.792C488.088 980.088 473.148 980.727 461.75 981.213L441.026 982.095L437.79 988.22C436.011 991.588 434.542 994.63 434.528 994.98C434.513 995.33 450.131 995.38 469.233 995.091L503.965 994.565L512.792 991.51C517.646 989.83 521.919 988.171 522.287 987.824C523.158 987.001 531.283 967.907 531.414 966.372C531.507 965.288 521.916 950.835 520.541 949.987C520.209 949.783 519.343 953.811 518.615 958.938Z" fill="#CCC7BE"/>
<path d="M227.927 728.5C64.3269 676.9 52.4269 574.667 66.9269 530C94.5266 547.2 113.427 546.167 119.427 543.5C116.627 443.9 60.2604 403 32.4272 395C24.4272 263.4 130.761 228.833 184.927 228L206.427 97L244.927 119.5L299.427 37.5L316.927 87L319.427 0L393.927 83L422.927 45.5L454.427 132L519.427 103L486.927 216.5H519.427L512.927 228C632.527 252.4 642.094 349.5 631.927 395C585.927 404.2 570.427 497.833 568.427 543.5C587.627 549.5 608.427 537 616.427 530C636.427 563 625.427 709.5 495.927 728.5C392.327 743.7 343.761 779.167 332.427 795C332.427 795 293.427 751 227.927 728.5Z" fill="url(#paint1_linear_215_201)"/>
<path d="M134.5 554C97.3 564.8 78.6667 558.5 74 554C61 629 187 710.5 247 723.5C284.343 731.591 322.667 746.5 336.5 758C344.5 750.5 377.7 733.1 446.5 723.5C598.5 709.1 617.833 604.833 608.5 554.5C598.9 561.3 569.5 557.333 556 554.5C553.2 449.3 597.833 396.333 620.5 383V349L610 340.5L613.5 328.5L599.5 301.5H588.5V289L566.5 266.5H554V257L519.5 239.5L493 243.5L497 231.5H466.5L497 129L445 150.5L439 121L417.5 71.5L387.5 110L384 93.5L334 37V93.5L309.5 110L304 103L293 71.5L260.5 121L253.5 144.5L222 121L198.5 237.5L200.5 246L173.5 255L165 243.5L145 239L112.5 255V268L103 265L78 289.5V300.5H67.5L51.5 329L57 340.5L46 347.5V383.5C117.2 416.3 134.667 510.833 134.5 554Z" fill="#151A1E"/>
<path fill-rule="evenodd" clip-rule="evenodd" d="M141.025 262.118L128.275 269.212V283.765L114.149 280.665L95.275 299.46V313L82.775 313.002L71.155 334.5L73.215 339.519C74.348 342.28 75.275 345.073 75.275 345.727C75.275 346.381 73.297 348.075 70.88 349.491C66.022 352.338 66.148 351.995 64.166 367.801L63 377.101L72.888 387.293C78.326 392.898 95.936 410.905 112.021 427.307L141.267 457.13L161.301 463.876L246.24 391.968L239.83 378.968L246.323 319.97L225.15 295.735C213.505 282.406 203.144 270.613 202.126 269.528C200.299 267.581 200.198 267.634 193.876 273.9C189.456 278.281 187.059 279.991 186.126 279.429C185.383 278.981 178.156 273.301 170.067 266.807C161.977 260.313 155.002 255.005 154.567 255.012C154.131 255.018 148.038 258.216 141.025 262.118ZM500.275 266.145C480.406 282.352 483.281 281.44 475.71 273.936C469.352 267.634 469.251 267.581 467.424 269.528C466.406 270.613 456.045 282.406 444.4 295.735L423.227 319.97L429.72 378.968L423.31 391.968L508.249 463.876L528.223 457.15L556.999 427.817C572.826 411.685 590.449 393.675 596.163 387.796L606.55 377.106L605.384 367.803C603.448 352.362 603.571 352.698 598.703 349.618C596.268 348.077 594.275 346.304 594.275 345.678C594.275 345.051 595.202 342.28 596.335 339.519L598.395 334.5L586.775 313.002L574.275 313V299.46L555.401 280.665L541.275 283.765V269.202L528.457 262.101C521.407 258.195 515.22 255.03 514.707 255.067C514.194 255.104 507.7 260.089 500.275 266.145ZM319.275 468.938C259.202 514.827 235.683 533.339 235.448 534.921C235.268 536.13 236.285 541.179 237.708 546.142C245.718 574.063 266.824 602.275 296.775 625.093C312.327 636.941 336.035 651.034 352.369 658.14C357.773 660.491 362.095 662.513 361.974 662.634C361.853 662.755 358.11 662.222 353.656 661.449C321.32 655.837 286.744 632.427 253.063 593.341C243.066 581.74 231.621 566.665 224.343 555.511C221.476 551.117 219.007 547.399 218.856 547.248C218.177 546.568 210.636 550.451 204.567 554.606C179.005 572.106 144.935 581.278 112.066 579.508C105.076 579.131 98.019 579.117 96.385 579.476L93.413 580.129L104.902 594.814C126.105 621.916 145.629 642.373 165.69 658.509C193.777 681.1 225.631 697.077 254.627 703.118C262.802 704.821 269.546 705.324 289.32 705.705C316.262 706.223 324.557 705.368 340.411 700.439C394.602 683.588 443.924 625.765 479.066 537.887C485.74 521.196 495.275 493.325 495.275 490.504C495.275 489.046 405.81 405.599 403.954 405.327C403.306 405.232 365.2 433.857 319.275 468.938ZM218.775 442.128C196.775 460.804 177.694 476.897 176.373 477.891L173.971 479.697L179.411 501.627L192.784 513.564C200.464 520.419 207.012 525.5 208.167 525.5C209.272 525.5 232.25 509.075 259.228 489L308.279 452.5L307.801 449.008C307.537 447.087 306.916 445.38 306.419 445.215C305.922 445.049 300.201 436.608 293.707 426.457L281.899 408L258.775 408.172L218.775 442.128ZM495.312 549.718C492.277 557.163 480.319 581.192 474.52 591.5C455.145 625.941 427.751 658.949 404.091 676.363C398.417 680.539 392.979 684.649 392.007 685.496C391.034 686.343 387.321 688.475 383.757 690.233C380.192 691.991 377.276 693.67 377.277 693.965C377.278 694.259 379.19 695.694 381.527 697.153C384.832 699.218 387.994 700.06 395.775 700.951C412.045 702.814 447.422 703.425 461.864 702.093C504.977 698.116 539.503 683.615 561.275 660.34C578.668 641.748 590.172 614.736 590.593 591.5L590.775 581.5L586.775 582C584.575 582.275 577.375 582.467 570.775 582.426C546.313 582.276 526.225 573.111 506.754 553.218L497.669 543.936L495.312 549.718Z" fill="url(#paint2_linear_215_201)"/>
<path fill-rule="evenodd" clip-rule="evenodd" d="M398.993 292.666C393.218 295.569 380.421 301.224 370.554 305.232C360.688 309.24 352.444 313.033 352.235 313.66C352.026 314.288 353.839 316.786 356.264 319.211C364.469 327.415 376.04 328.876 393.784 323.948C401.518 321.8 402.207 321.388 404.03 317.815C405.77 314.404 410.554 289.689 409.794 288.04C409.628 287.681 404.768 289.762 398.993 292.666ZM260 290.054C260.023 294.731 264.227 314.602 265.742 317.196C267.273 319.819 268.877 320.726 275.533 322.737C280.767 324.318 286.074 325.159 291.029 325.193C297.512 325.237 299.311 324.839 303.9 322.341C308.552 319.809 314.993 313.457 313.882 312.495C313.668 312.31 304.493 308.434 293.493 303.883C282.493 299.331 270.793 294.211 267.493 292.504C264.193 290.798 261.156 289.248 260.743 289.061C260.33 288.874 259.996 289.32 260 290.054Z" fill="white"/>
<path fill-rule="evenodd" clip-rule="evenodd" d="M342.262 79.75L342.796 101.5L321.618 120.5C309.97 130.95 300.133 139.618 299.757 139.761C299.382 139.905 297.609 135.55 295.817 130.083C293.156 121.965 292.302 117.088 291.153 103.458C290.38 94.281 289.561 86.585 289.332 86.357C289.104 86.129 281.448 105.868 272.318 130.221C256.042 173.635 255.729 174.617 256.297 180.5L256.877 186.5L250.467 177.5C246.941 172.55 240.075 162.763 235.21 155.75C230.345 148.737 226.08 143 225.733 143C225.386 143 222.29 157.287 218.854 174.75C210.652 216.426 210.416 220.859 214.96 248L218.392 268.5L229.267 279.086C235.248 284.908 242.087 291.438 244.464 293.597L248.785 297.524L257.714 340.012C262.625 363.38 266.764 382.863 266.912 383.306C267.059 383.75 278.411 394.392 292.138 406.956L317.096 429.799L337.119 429.301C348.132 429.027 358.32 428.509 359.76 428.151C361.56 427.703 367.93 420.939 380.151 406.5C389.926 394.95 398.53 384.796 399.27 383.936C400.01 383.075 403.393 369.35 406.787 353.436L412.958 324.5L420.47 313.5C432.336 296.124 435.783 291.906 457.932 267.66C469.407 255.099 478.583 244.608 478.323 244.348C478.063 244.087 469.895 246.42 460.174 249.532C450.452 252.644 442.295 254.986 442.046 254.738C441.798 254.489 451.072 230.763 462.656 202.014C474.239 173.264 483.587 149.624 483.429 149.48C483.271 149.337 471.91 155.915 458.181 164.099C444.452 172.282 432.888 178.645 432.482 178.239C431.588 177.344 428.402 160.052 422.073 121.75C419.46 105.938 417.057 93.014 416.732 93.032C416.408 93.05 410.362 103.181 403.297 115.545L390.451 138.027L383.433 142.567C379.573 145.063 376.203 146.894 375.943 146.634C375.683 146.374 374.552 139.263 373.429 130.831L371.388 115.5L357.012 86.75C349.105 70.938 342.431 58 342.182 58C341.932 58 341.968 67.788 342.262 79.75ZM404.166 169.762C403.792 173.481 403.169 178.078 402.78 179.979L402.073 183.434L399.735 179.65C397.492 176.021 397.227 175.892 393.269 176.506C390.999 176.858 388.242 177.389 387.142 177.685C385.481 178.133 385.361 177.994 386.437 176.862C388.759 174.42 403.119 163.137 403.993 163.067C404.462 163.03 404.539 166.043 404.166 169.762ZM290.605 200.241C290.625 200.648 288.375 199.587 285.605 197.882L280.568 194.783L272.806 199.92L274.739 193.21C275.802 189.519 277.153 184.737 277.741 182.581L278.81 178.663L284.689 189.081C287.922 194.812 290.585 199.833 290.605 200.241ZM347.474 193.267C350.204 200.27 352.244 206 352.007 206C351.77 206 349.439 204.917 346.828 203.594L342.08 201.188L338.111 204.176C327.896 211.866 328.142 212.57 335.22 195.893C338.752 187.57 341.642 180.515 341.642 180.214C341.642 178.727 342.92 181.587 347.474 193.267ZM255.611 246.528C255.104 248.713 254.679 250.954 254.666 251.508C254.653 252.062 257.567 254.499 261.142 256.924C264.717 259.348 267.637 262.044 267.63 262.916C267.624 263.787 266.954 266.975 266.142 270C265.33 273.025 264.66 276.259 264.654 277.186C264.646 278.263 269.247 281.788 277.392 286.945C287.473 293.328 294.187 296.615 309.466 302.649C325.26 308.886 328.548 310.513 327.466 311.556C326.738 312.258 321.207 316.922 315.176 321.921C305.592 329.864 303.827 330.949 301.176 330.531C299.507 330.269 292.347 329.545 285.265 328.923C275.559 328.071 270.759 327.137 265.771 325.131L259.155 322.471L249.539 288.064L257.89 270.09L246.845 257.5L251.493 249.864C254.05 245.665 256.23 242.302 256.337 242.392C256.444 242.482 256.117 244.344 255.611 246.528ZM421.616 257.36C421.63 257.833 419.392 260.681 416.642 263.69C413.892 266.699 411.647 269.687 411.653 270.331C411.659 270.974 413.401 275.224 415.524 279.774L419.384 288.049L415.507 301.774C413.374 309.324 411.184 317.116 410.64 319.09C409.746 322.334 409 322.934 402.896 325.306C397.619 327.357 392.658 328.24 380.206 329.345L364.27 330.759L339.885 310.329L358.513 303.079C373.362 297.301 379.932 294.092 390.892 287.263C398.455 282.551 404.634 278.427 404.625 278.098C404.615 277.769 403.718 274.125 402.631 270L400.653 262.5L402.98 260.5C404.26 259.4 407.434 257.028 410.035 255.228C413.39 252.906 414.614 251.454 414.25 250.228C412.077 242.907 412.64 242.759 417.03 249.5C419.538 253.35 421.602 256.887 421.616 257.36Z" fill="url(#paint3_linear_215_201)"/>
<path fill-rule="evenodd" clip-rule="evenodd" d="M343.484 64.5604C343.362 70.6478 358.56 109.646 362.813 114.159C365.784 117.311 366.972 121.458 369.065 135.956C372.844 162.149 372.342 161.579 382.868 151.63C387.722 147.042 391.693 142.339 391.693 141.179C391.693 138.305 391.034 138.464 383.694 143.094C380.186 145.308 376.796 146.533 376.16 145.819C375.526 145.104 374.252 138.126 373.33 130.314C371.753 116.945 370.826 114.466 357.61 88.2779C348.073 69.3758 343.54 61.7673 343.484 64.5604ZM415.012 97.4884C413.182 101.334 413.816 106.585 420.51 143.027C424.672 165.683 428.503 184.219 429.025 184.219C429.545 184.219 440.738 177.897 453.895 170.171C467.054 162.445 477.994 156.314 478.208 156.549C478.68 157.066 423.589 260.388 418.324 268.86L414.582 274.879L418.327 273.721C420.387 273.083 424.767 271.202 428.063 269.539C431.36 267.876 434.374 266.833 434.76 267.221C435.148 267.609 428.16 281.144 419.232 297.3L402.997 326.674L399.585 350.027C397.708 362.871 395.605 374.781 394.91 376.494C394.215 378.206 385.112 389.066 374.679 400.625C356.529 420.737 355.362 421.718 347.609 423.378C339.51 425.111 339.508 425.112 343.97 426.91C346.61 427.974 351.385 428.299 355.653 427.707C362.623 426.741 363.469 426.006 380.01 406.548C389.434 395.461 397.988 385.214 399.02 383.777C400.051 382.34 403.473 368.904 406.623 353.919C410.147 337.162 413.749 324.212 415.98 320.278C422.555 308.679 438.314 288.599 455.945 269.348C465.496 258.92 474.689 248.82 476.373 246.905C479.181 243.709 477.926 243.93 460.992 249.616C450.851 253.021 442.277 255.532 441.94 255.194C441.602 254.858 450.216 232.619 461.078 205.777C471.942 178.935 481.443 155.378 482.194 153.427C483.836 149.164 485.93 148.157 455.587 166.239C433.608 179.335 432.989 179.592 431.824 176.095C431.165 174.12 427.579 154.648 423.854 132.823C417.609 96.2335 416.92 93.4794 415.012 97.4884ZM287.639 111.061C285.81 121.721 285.839 121.896 292.14 139.381C297.178 153.357 298.341 158.501 297.799 164.403C297.424 168.49 297.394 171.555 297.732 171.218C299.148 169.802 307.76 137.183 306.934 136.357C306.439 135.862 304.641 136.714 302.94 138.254C300.449 140.505 299.692 140.63 299.053 138.892C293.995 125.157 291.993 116.995 291.993 110.115C291.993 98.175 289.767 98.6592 287.639 111.061ZM228.128 146.932C228.131 147.316 229.525 154.989 231.226 163.98L234.319 180.327L247.968 193.235C260.217 204.821 270.184 212.288 270.184 209.878C270.184 209.389 266.801 203.942 262.666 197.772C258.532 191.602 254.704 185.343 254.16 183.864C252.54 179.452 228.114 144.799 228.128 146.932ZM218.329 182.27C211.888 215.171 211.652 220.82 215.661 246.149L219.163 268.28L249.641 297.516L255.385 322.003L256.304 301.096L228.997 266.994L219.47 220.298L221.476 194.085C224.185 158.668 223.473 155.991 218.329 182.27Z" fill="url(#paint4_linear_215_201)"/>
<path d="M521 258.5L513.5 255L482.5 279L485 290.5L521 258.5Z" fill="#68EFF6"/>
<path d="M148 259.451L155.597 256L187 279.662L184.468 291L148 259.451Z" fill="#68EFF6"/>
<path d="M391.5 422.5L401 433L275 522.5C280.83 544.805 294.735 586.268 312.143 611.54C318.612 618.945 324.682 625.094 329.5 629.5C323.462 625.858 317.629 619.503 312.143 611.54C292.431 588.972 269.012 554.725 266 522.5L391.5 422.5Z" fill="#67F0F6"/>
<path fill-rule="evenodd" clip-rule="evenodd" d="M151.024 256.583L148.745 258.428L166.499 274.72C185.363 292.03 185.963 292.325 185.974 284.304C185.98 280.338 185.846 280.197 170.324 267.804C161.714 260.929 154.361 255.177 153.985 255.021C153.609 254.866 152.277 255.568 151.024 256.583ZM498.676 267.462L482.999 279.988L483.014 284.146C483.044 292.338 483.581 292.08 502.372 274.836C512.067 265.939 519.999 258.479 519.999 258.258C519.999 258.037 518.729 257.199 517.176 256.396C514.368 254.944 514.274 255 498.676 267.462ZM198.081 269.206C196.545 271.056 194.927 268.475 215.999 297.804C225.68 311.279 233.917 322.825 234.303 323.463C234.689 324.1 233.44 334.201 231.529 345.908C228.942 361.749 227.598 367.627 226.276 368.886C225.299 369.817 211.224 382.385 194.999 396.817C160.679 427.343 161.589 426.495 164.999 424.782C167.819 423.365 221.057 394.926 227.999 391.129C232.49 388.671 232.494 388.671 229.963 390.985C228.568 392.261 211.352 406.744 191.706 423.17C159.862 449.794 155.8 452.888 154.289 451.67C153.357 450.919 133.052 432.634 109.168 411.038C74.511 379.701 65.465 372.002 64.371 372.911C63.616 373.537 62.999 374.781 63 375.676C63.001 376.572 80.342 395.079 101.537 416.804L140.072 456.304L160.657 463.589L202.578 428.135C225.635 408.635 244.637 392.295 244.805 391.824C244.973 391.354 243.72 388.213 242.02 384.845L238.929 378.721L242.061 350.72C243.784 335.319 244.931 321.725 244.609 320.511C244.286 319.297 234.766 307.729 223.452 294.804C197.57 265.237 199.64 267.326 198.081 269.206ZM446.543 293.473C434.668 307.041 424.666 319.284 424.315 320.68C423.965 322.077 425.07 335.779 426.771 351.13L429.863 379.041L426.717 385.422C423.961 391.01 423.752 391.98 425.034 393.224C425.84 394.006 444.855 410.16 467.29 429.122L508.081 463.599L527.297 457.304L566.398 417.506C587.904 395.617 605.633 376.902 605.797 375.918C605.961 374.934 605.457 373.599 604.676 372.951C603.517 371.989 595.275 378.989 559.83 411.038C535.946 432.634 515.641 450.919 514.708 451.671C513.195 452.891 509.086 449.763 476.755 422.78C435.734 388.543 434.476 387.428 440.999 391.066C446.259 393.999 500.319 422.93 503.999 424.78C507.41 426.496 508.315 427.34 473.999 396.817C457.774 382.385 443.717 369.834 442.76 368.924C441.489 367.716 440.072 361.523 437.49 345.892C434.389 327.117 434.13 324.258 435.366 322.409C436.14 321.251 444.686 309.31 454.358 295.873C467.89 277.073 471.691 271.138 470.849 270.123C470.247 269.398 469.389 268.804 468.944 268.804C468.498 268.804 458.418 279.905 446.543 293.473ZM127.999 277.245C127.999 284.633 128.362 284.416 119.514 282.304C115.743 281.404 113.177 281.226 112.58 281.823C112.059 282.344 111.827 282.94 112.066 283.147C112.304 283.355 124.874 292.648 139.999 303.801C155.124 314.953 168.174 324.578 168.999 325.191C170.236 326.108 170.301 326.041 169.373 324.804C168.754 323.979 159.667 311.759 149.181 297.649C138.694 283.538 129.638 271.699 129.056 271.34C128.354 270.906 127.999 272.889 127.999 277.245ZM538.382 272.966C537.218 274.252 528.274 286.104 518.507 299.304C508.74 312.504 500.243 323.979 499.624 324.804C498.697 326.04 498.763 326.109 499.999 325.194C500.824 324.583 513.874 314.952 528.999 303.79C544.124 292.628 556.694 283.333 556.932 283.133C557.171 282.934 556.939 282.344 556.418 281.823C555.821 281.226 553.255 281.404 549.484 282.304C540.771 284.384 541.126 284.592 540.795 277.216L540.499 270.629L538.382 272.966ZM95.666 298.471C95.299 298.837 94.999 302.437 94.999 306.471V313.804H88.499C84.924 313.804 82.015 314.141 82.035 314.554C82.063 315.147 100.815 328.246 128.2 346.804C130.168 348.137 130.314 348.137 129.513 346.804C128.877 345.746 98.494 300.867 96.509 298.054C96.412 297.916 96.032 298.104 95.666 298.471ZM557.499 320.09C549.249 332.204 541.605 343.508 540.512 345.21L538.524 348.304L540.768 346.804C559.063 334.572 586.936 315.141 586.963 314.6C586.983 314.212 583.961 313.762 580.249 313.6L573.499 313.304L572.499 298.064L557.499 320.09ZM315.356 321.32L305.214 329.748L285.893 331.313C273.64 332.305 266.304 333.31 265.84 334.061C265.437 334.713 265.216 335.355 265.349 335.488C266.061 336.199 309.512 338.691 310.144 338.057C311.801 336.393 326.475 312.742 325.784 312.848C325.627 312.872 320.935 316.684 315.356 321.32ZM341.784 314.402C343.384 317.392 355.996 337.195 356.839 338.041C357.243 338.447 367.232 337.892 379.036 336.808C390.841 335.723 400.926 334.829 401.449 334.82C402.041 334.81 402.037 334.442 401.437 333.842C400.909 333.314 391.773 332.176 381.136 331.315L361.795 329.749L351.258 321.083C345.463 316.316 341.199 313.309 341.784 314.402ZM72.034 337.054C72.054 337.742 72.713 339.429 73.499 340.804C75.828 344.878 75.253 346.533 70.333 349.918L65.667 353.128L86.083 363.413C97.312 369.069 106.868 373.721 107.32 373.751C107.771 373.78 100.178 365.254 90.447 354.804C80.715 344.354 72.584 335.804 72.376 335.804C72.169 335.804 72.015 336.367 72.034 337.054ZM577.551 354.804C567.82 365.254 560.112 373.804 560.422 373.804C561.665 373.804 601.999 353.279 601.999 352.647C601.999 352.273 600.341 350.918 598.315 349.636C596.289 348.353 594.247 347.042 593.778 346.722C593.309 346.402 593.842 344.003 594.962 341.389C596.083 338.776 596.999 336.45 596.999 336.221C596.999 334.399 592.953 338.265 577.551 354.804ZM234.913 533.304L235.409 537.304C235.682 539.504 237.05 544.802 238.449 549.077C250.568 586.098 281.663 619.37 329.603 646.614C343.236 654.361 346.953 655.753 355.654 656.368L363.499 656.924L353.499 651.613C342.014 645.514 333.364 639.789 323.749 631.926C314.285 624.186 314.656 624.161 326.999 631.712C328.374 632.553 326.222 629.751 322.217 625.486C301.569 603.497 282.452 570.736 269.366 534.918C267.48 529.756 266.063 525.435 266.218 525.314C266.373 525.194 296.424 504.756 332.999 479.897C386.868 443.283 399.594 434.215 399.999 432.159C400.458 429.831 403.538 432.443 437.294 463.784C463.641 488.248 473.954 498.424 473.615 499.626C473.354 500.549 471.725 506.395 469.994 512.617C460.154 547.995 441.423 587.077 421.668 613.446C392.315 652.629 360.954 674.009 319.603 683.03C305.034 686.208 273.753 686.206 256.883 683.025C225.734 677.153 188.794 662.527 157.312 643.602C149.362 638.823 148.468 637.981 148.182 635.003C147.638 629.343 154.531 623.891 166.974 620.139C167.874 619.868 166.312 618.526 162.974 616.703C156.101 612.948 150.351 607.401 148.959 603.181C145.286 592.053 160.604 577.826 189.255 565.757C197.37 562.338 200.233 560.622 201.579 558.367L203.333 555.43L200.416 557.493C194.824 561.448 178.716 568.954 168.643 572.299C150.463 578.335 145.735 579.019 119.038 579.475C105.584 579.705 94.411 580.059 94.209 580.261C93.649 580.82 109.957 601.857 121.057 614.895C132.465 628.294 152.781 648.273 165.022 658.13C193.186 680.808 225.16 696.84 254.352 702.922C268.467 705.863 309.136 706.75 322.679 704.412C371.024 696.07 413.946 659.97 450.057 597.283C459.092 581.6 471.768 554.965 479.317 535.804C485.674 519.669 495.631 490.007 494.878 489.447C494.67 489.292 475.374 471.462 451.999 449.824C428.624 428.186 408.149 409.243 406.499 407.73L403.499 404.978L234.913 533.304ZM217.999 442.857C195.174 462.135 175.958 478.447 175.296 479.106C174.359 480.039 174.726 482.737 176.955 491.304L179.818 502.304L179.966 496.304C180.296 482.974 177.227 486.523 221.315 448.475L261.13 414.113L268.815 414.573C273.041 414.827 276.861 415.366 277.303 415.773C277.745 416.179 261.657 431.262 241.553 449.29C221.448 467.318 204.999 482.248 204.999 482.468C204.999 482.687 210.062 478.867 216.249 473.978C248.036 448.862 281.526 422.808 281.983 422.839C282.267 422.858 285.649 427.002 289.499 432.046C299.984 445.785 301.919 447.804 304.603 447.804C306.962 447.804 307.944 446.288 306.006 445.637C305.459 445.454 299.667 436.979 293.135 426.804L281.258 408.304L259.499 407.806L217.999 442.857ZM494.652 551.383L491.95 557.962L495.657 564.133C507.631 584.067 522.057 597.312 536.079 601.246C541.158 602.671 544.321 602.871 552.926 602.309C563.02 601.649 563.613 601.72 565.509 603.818C567.013 605.481 567.491 607.402 567.468 611.685C567.408 622.46 558.036 637.976 543.098 652.029C511.508 681.747 462.188 698.979 405.999 699.931C397.5 700.075 397.501 700.075 410.999 701.358C481.395 708.047 538.616 690.179 567.327 652.542C577.392 639.349 584.561 623.843 588.014 607.804C590.24 597.462 591.381 584.752 590.235 583.065C589.576 582.093 587.519 582.067 580.706 582.947C570.618 584.249 558.316 583.053 547.3 579.7C530.895 574.707 511.335 561.266 501.244 548.054C499.879 546.266 498.445 544.804 498.058 544.804C497.671 544.804 496.138 547.765 494.652 551.383ZM259.702 603.304C264.764 609.48 277.959 622.219 283.999 626.762C286.474 628.624 287.824 629.483 286.999 628.672C269.852 611.813 256.52 599.422 259.702 603.304ZM336.664 638.481C341.201 642.529 352.408 649.041 360.17 652.14C371.354 656.607 370.143 655.105 356.999 648.211C350.124 644.606 342.024 640.306 338.999 638.656L333.499 635.657L336.664 638.481Z" fill="#CCC7BE"/>
<defs>
<linearGradient id="paint0_linear_215_201" x1="333.5" y1="0" x2="333.5" y2="1017" gradientUnits="userSpaceOnUse">
<stop stop-color="#FDFDFD"/>
<stop offset="1" stop-color="#F1F1F1"/>
</linearGradient>
<linearGradient id="paint1_linear_215_201" x1="333.5" y1="0" x2="333.5" y2="1017" gradientUnits="userSpaceOnUse">
<stop stop-color="#9D97F2"/>
<stop offset="0.369792" stop-color="#77CAF1"/>
<stop offset="0.729167" stop-color="#8CA4EC"/>
<stop offset="1" stop-color="#67F1F7"/>
</linearGradient>
<linearGradient id="paint2_linear_215_201" x1="333.5" y1="0" x2="333.5" y2="1017" gradientUnits="userSpaceOnUse">
<stop stop-color="#F9F6F0"/>
<stop offset="1" stop-color="#EFEFEF"/>
</linearGradient>
<linearGradient id="paint3_linear_215_201" x1="333.5" y1="0" x2="333.5" y2="1017" gradientUnits="userSpaceOnUse">
<stop stop-color="#F9F6F0"/>
<stop offset="0.623127" stop-color="#F9F6F0"/>
<stop offset="1" stop-color="#63737E"/>
</linearGradient>
<linearGradient id="paint4_linear_215_201" x1="334.199" y1="16.4121" x2="334.199" y2="1012.08" gradientUnits="userSpaceOnUse">
<stop offset="0.364583" stop-color="#CCC7BE"/>
<stop offset="1" stop-color="#727F89"/>
</linearGradient>
</defs>
</svg>
