<svg width="259" height="136" viewBox="0 0 259 136" fill="none" xmlns="http://www.w3.org/2000/svg">
<path d="M174.756 35.3117H251.301C255.536 35.3117 258.972 31.8905 258.972 27.6734V7.71214C258.972 3.49508 255.536 0.0738525 251.301 0.0738525H164.761C160.526 0.0738525 157.091 3.49508 157.091 7.71214V17.861C157.091 17.861 157.231 31.6115 144.69 31.6115H134.671C130.436 31.6115 127 35.0328 127 39.2498V96.5083C127 100.725 130.436 104.147 134.671 104.147H144.797C157.222 104.229 157.091 117.889 157.091 117.889V127.948C157.091 132.165 160.526 135.586 164.761 135.586H251.301C255.536 135.586 258.972 132.165 258.972 127.948V107.994C258.972 103.777 255.536 100.356 251.301 100.356H174.624C163.921 100.266 162.553 90.1007 162.389 87.3276V48.5372C162.562 45.7477 163.929 35.3199 174.764 35.3199L174.756 35.3117Z" fill="black"/>
<g clip-path="url(#clip0_25_99)">
<path d="M39.4404 0H118.321L90.961 27.7715L39.4404 0Z" fill="#B7FAFF"/>
<path d="M0 68.5687L39.4405 0L26.2244 53.4345L0 68.5687Z" fill="#B7FAFF"/>
<path d="M26.2246 53.4345L39.4407 0L90.9613 27.7715L26.2246 53.4345Z" fill="#B4CFFA"/>
<path d="M118.321 0L90.9609 27.7715L157 67.6532L118.321 0Z" fill="#B4CFFA"/>
<path d="M26.2246 53.4345L90.9613 27.7715L98.1235 106.009L26.2246 53.4345Z" fill="#B2B3E1"/>
<path d="M0 68.5688L26.2244 53.4346L39.4405 136L0 68.5688Z" fill="#B3A5D6"/>
<path d="M98.1235 106.009L26.2246 53.4346L39.4407 136L98.1235 106.009Z" fill="#B397C9"/>
<path d="M157 67.6532L98.1231 106.009L90.9609 27.7715L157 67.6532Z" fill="#B3C1EE"/>
<path d="M39.4404 136L98.1232 106.009L118.321 136H39.4404Z" fill="#B37AAF"/>
<path d="M157 67.6532L98.123 106.009L118.321 136L157 67.6532Z" fill="#B388BD"/>
</g>
<defs>
<clipPath id="clip0_25_99">
<rect width="157" height="136" fill="white"/>
</clipPath>
</defs>
</svg>
