<?xml version="1.0" encoding="utf-8"?>
<!-- Generator: Adobe Illustrator 27.2.0, SVG Export Plug-In . SVG Version: 6.00 Build 0)  -->
<svg version="1.1" id="Layer_1" xmlns="http://www.w3.org/2000/svg" xmlns:xlink="http://www.w3.org/1999/xlink" x="0px" y="0px"
	 viewBox="0 0 335 1984.4" style="enable-background:new 0 0 335 1984.4;" xml:space="preserve">
<path d="M271.6,507.6H252c-24.8,0-24.5-27.3-24.5-27.3v-20.6c0-8.4-6.8-15.2-15.2-15.2H41.1c-8.4,0-15.2,6.8-15.2,15.2V631
	c0,8.4,6.8,15.2,15.2,15.2h19.9c24.6,0.1,24.3,27.3,24.3,27.3v20.7c0,8.4,6.8,15.2,15.2,15.2h171.2c8.4,0,15.2-6.8,15.2-15.2V522.8
	C286.8,514.4,280,507.6,271.6,507.6L271.6,507.6z M96,611.9L96,611.9l0-97.4h96.3c24.8,0,24.5,27.3,24.5,27.3l0-0.1v97.5h-96.3
	C95.7,639.3,96,611.9,96,611.9z"/>
<path d="M120.9,98h148.7c8.2,0,14.9-6.7,14.9-14.9v-39c0-8.2-6.7-14.9-14.9-14.9H101.5c-8.2,0-14.9,6.7-14.9,14.9V64
	c0,0,0.3,26.9-24.1,26.9H43c-8.2,0-14.9,6.7-14.9,14.9v111.9c0,8.2,6.7,14.9,14.9,14.9h19.7c24.1,0.2,23.9,26.8,23.9,26.8V279
	c0,8.2,6.7,14.9,14.9,14.9h168.2c8.2,0,14.9-6.7,14.9-14.9v-39c0-8.2-6.7-14.9-14.9-14.9h-149c-20.8-0.2-23.5-20-23.8-25.5v-75.8
	C97.2,118.4,99.9,98.1,120.9,98L120.9,98z"/>
<path d="M283.2,972.4h-19.7C239,972.4,247,957,247,957l43.9-44.2c2.8-2.8,4.3-6.6,4.3-10.5v-27.6c0-8.2-6.6-14.8-14.8-14.8h-27.3
	c-3.9,0-7.7,1.6-10.5,4.3l-70.1,68.8c-5.8,5.8-15.2,5.8-21,0l-68.8-68.9c-2.8-2.8-6.5-4.3-10.5-4.3H46.9c-8.2,0-14.8,6.6-14.8,14.8
	v26.5c0,3.9,1.6,7.7,4.4,10.5L81.8,957c0,0,8,15.4-16.5,15.4H45.6c-8.3,0-15.1,6.8-15.1,15.1v121.9c0,8.3,6.8,15.1,15.1,15.1H85
	c8.3,0,15.1-6.8,15.1-15.1v-105.3c0-28.8,15.5-13.5,15.5-13.5l19.7,19.6c2.8,2.8,6.5,4.3,10.5,4.3h37.3c3.9,0,7.7-1.6,10.5-4.3
	l19.6-19.7v0c0,0,15.5-15.3,15.5,13.5v105.3c0,8.3,6.8,15.1,15.1,15.1h39.4c8.3,0,15.1-6.8,15.1-15.1V987.5
	C298.3,979.2,291.5,972.4,283.2,972.4L283.2,972.4z"/>
<path d="M282.3,1389.2h-28.9c-7.5,0-12.3-9.4-4.6-17.1l8.5-8.5l26.7-26.5v0c3-2.8,4.9-6.7,4.9-11.1v-35.8c0-8.3-6.8-15.1-15.1-15.1
	H46.5c-8.3,0-15.1,6.8-15.1,15.1V1424c0,8.3,6.8,15.1,15.1,15.1h27.2c6.7,0,7.9,5.3,2,11.2l-39.9,39c-2.8,2.7-4.4,6.5-4.4,10.4v25.2
	c0,8.1,6.5,14.6,14.6,14.6h28.2c3.9,0,7.6-1.5,10.3-4.2l42.4-42.1c9.8-9.8,19.7-10.7,19.7,0v31.2c0,8.3,6.8,15.1,15.1,15.1h120.7
	c8.3,0,15.1-6.8,15.1-15.1v-120.1C297.4,1396,290.7,1389.2,282.3,1389.2L282.3,1389.2z M164.8,1473.6c-9.1,0-11.9-6.2-3-15.1
	l55.7-55.3c9.4-9.4,14-3.9,14,5.2v65.2L164.8,1473.6L164.8,1473.6z M165.3,1362.3h0.2l-58.8,57.5c-1.5,1.4-9.4,4.1-9.4-4.7v-74.2
	h52.2C177.9,1341.1,165.3,1362.3,165.3,1362.3z"/>
<path d="M283,1691.4H109.4c-8.5,0-15.4,6.9-15.4,15.4v20.2c-0.1,25-27.7,24.7-27.7,24.7h0H45.4c-8.5,0-15.4,6.9-15.4,15.4v173.8
	c0,8.5,6.9,15.4,15.4,15.4H219c8.5,0,15.4-6.9,15.4-15.4v-20c0-25.2,27.7-24.9,27.7-24.9H283c8.5,0,15.4-6.9,15.4-15.4v-173.8
	C298.4,1698.3,291.5,1691.4,283,1691.4L283,1691.4z M227.4,1860.3c0,25.2-27.7,24.9-27.7,24.9l0.1,0H101v-97.8
	c0-25.2,27.7-24.9,27.7-24.9l-0.1,0h98.8L227.4,1860.3L227.4,1860.3z"/>
</svg>
