<?xml version="1.0" encoding="utf-8"?>
<!-- Generator: Adobe Illustrator 27.2.0, SVG Export Plug-In . SVG Version: 6.00 Build 0)  -->
<svg version="1.1" id="Layer_1" xmlns="http://www.w3.org/2000/svg" xmlns:xlink="http://www.w3.org/1999/xlink" x="0px" y="0px"
	 viewBox="0 0 1940.3 300" style="enable-background:new 0 0 1940.3 300;" xml:space="preserve">
<style type="text/css">
	.st0{fill:#FFFFFF;}
</style>
<g>
	<g>
		<path class="st0" d="M662.5,80.7h-19.7c-24.8,0-24.5-27.3-24.5-27.3V32.7c0-8.4-6.8-15.2-15.2-15.2H431.9
			c-8.4,0-15.2,6.8-15.2,15.2v171.3c0,8.4,6.8,15.2,15.2,15.2h19.9c24.6,0.1,24.3,27.3,24.3,27.3v20.7c0,8.4,6.8,15.2,15.2,15.2
			h171.2c8.4,0,15.2-6.8,15.2-15.2V95.9C677.6,87.5,670.8,80.7,662.5,80.7L662.5,80.7z M486.8,185L486.8,185l0-97.4h96.3
			c24.8,0,24.5,27.3,24.5,27.3l0-0.1v97.5h-96.3C486.5,212.4,486.8,185,486.8,185z"/>
		<path class="st0" d="M102.6,86.5h148.7c8.2,0,14.9-6.7,14.9-14.9v-39c0-8.2-6.7-14.9-14.9-14.9H83.2c-8.2,0-14.9,6.7-14.9,14.9
			v19.8c0,0,0.3,26.9-24.1,26.9H24.7c-8.2,0-14.9,6.7-14.9,14.9v111.9c0,8.2,6.7,14.9,14.9,14.9h19.7c24.1,0.2,23.9,26.8,23.9,26.8
			v19.7c0,8.2,6.7,14.9,14.9,14.9h168.2c8.2,0,14.9-6.7,14.9-14.9v-39c0-8.2-6.7-14.9-14.9-14.9h-149c-20.8-0.2-23.5-20-23.8-25.5
			v-75.8C78.9,106.9,81.5,86.6,102.6,86.5L102.6,86.5z"/>
		<path class="st0" d="M1076.4,130.1h-19.7c-24.5,0-16.5-15.4-16.5-15.4l43.9-44.2c2.8-2.8,4.3-6.6,4.3-10.5V32.4
			c0-8.2-6.6-14.8-14.8-14.8h-27.3c-3.9,0-7.7,1.6-10.5,4.3l-70.1,68.8c-5.8,5.8-15.2,5.8-21,0l-68.8-68.9
			c-2.8-2.8-6.5-4.3-10.5-4.3H840c-8.2,0-14.8,6.6-14.8,14.8v26.5c0,3.9,1.6,7.7,4.4,10.5l45.4,45.2c0,0,8,15.4-16.5,15.4h-19.7
			c-8.3,0-15.1,6.8-15.1,15.1v121.9c0,8.3,6.8,15.1,15.1,15.1h39.4c8.3,0,15.1-6.8,15.1-15.1V161.8c0-28.8,15.5-13.5,15.5-13.5
			l19.7,19.6c2.8,2.8,6.5,4.3,10.5,4.3h37.3c3.9,0,7.7-1.6,10.5-4.3l19.6-19.7v0c0,0,15.5-15.3,15.5,13.5v105.3
			c0,8.3,6.8,15.1,15.1,15.1h39.4c8.3,0,15.1-6.8,15.1-15.1V145.2C1091.5,136.8,1084.7,130.1,1076.4,130.1L1076.4,130.1z"/>
		<path class="st0" d="M1489.7,131.7h-28.9c-7.5,0-12.3-9.4-4.6-17.1l8.5-8.5l26.7-26.5v0c3-2.8,4.9-6.7,4.9-11.1V32.7
			c0-8.3-6.8-15.1-15.1-15.1h-227.4c-8.3,0-15.1,6.8-15.1,15.1v133.8c0,8.3,6.8,15.1,15.1,15.1h27.2c6.7,0,7.9,5.3,2,11.2l-39.9,39
			c-2.8,2.7-4.4,6.5-4.4,10.4v25.2c0,8.1,6.5,14.6,14.6,14.6h28.2c3.9,0,7.6-1.5,10.3-4.2l42.4-42.1c9.8-9.8,19.7-10.7,19.7,0v31.2
			c0,8.3,6.8,15.1,15.1,15.1h120.7c8.3,0,15.1-6.8,15.1-15.1V146.8C1504.8,138.5,1498.1,131.7,1489.7,131.7L1489.7,131.7z
			 M1372.2,216.1c-9.1,0-11.9-6.2-3-15.1l55.7-55.3c9.4-9.4,14-3.9,14,5.2v65.2L1372.2,216.1L1372.2,216.1z M1372.7,104.8h0.2
			l-58.8,57.5c-1.5,1.4-9.4,4.1-9.4-4.7V83.6h52.2C1385.3,83.6,1372.7,104.8,1372.7,104.8z"/>
	</g>
</g>
<path class="st0" d="M1903.3,17.6h-173.6c-8.5,0-15.4,6.9-15.4,15.4v20.2c-0.1,25-27.7,24.7-27.7,24.7h0h-20.9
	c-8.5,0-15.4,6.9-15.4,15.4V267c0,8.5,6.9,15.4,15.4,15.4h173.6c8.5,0,15.4-6.9,15.4-15.4v-20c0-25.2,27.7-24.9,27.7-24.9h20.9
	c8.5,0,15.4-6.9,15.4-15.4V33C1918.7,24.5,1911.8,17.6,1903.3,17.6L1903.3,17.6z M1847.7,186.5c0,25.2-27.7,24.9-27.7,24.9l0.1,0
	h-98.8v-97.8c0-25.2,27.7-24.9,27.7-24.9l-0.1,0h98.8L1847.7,186.5L1847.7,186.5z"/>
</svg>
